Merriweather_make small caps 1.glyphspackage
{
glyphname = exclam;
kernLeft = exclam;
kernRight = exclam;
layers = (
{
layerId = UUID0;
shapes = (
{
closed = 1;
nodes = (
(174,1798,l),
(224,460,l),
(326,460,l),
(368,1798,l)
);
},
{
closed = 1;
nodes = (
(160,20,o),
(214,-22,o),
(272,-22,cs),
(342,-22,o),
(406,30,o),
(406,108,cs),
(406,166,o),
(372,218,o),
(292,218,cs),
(228,218,o),
(160,162,o),
(160,88,cs)
);
}
);
width = 566;
},
{
layerId = "DEBB1CE4-A72D-4960-969E-E04A036D2FA1";
shapes = (
{
closed = 1;
nodes = (
(110,1780,l),
(201,516,l),
(389,516,l),
(480,1780,l)
);
},
{
closed = 1;
nodes = (
(117,51,o),
(201,-16,o),
(287,-16,cs),
(408,-16,o),
(494,49,o),
(494,164,cs),
(494,249,o),
(429,330,o),
(317,330,cs),
(207,330,o),
(117,257,o),
(117,149,cs)
);
}
);
width = 604;
},
{
layerId = "184155C8-9F61-4F1C-9784-DDA8EA717636";
shapes = (
{
closed = 1;
nodes = (
(60,1780,l),
(221,456,l),
(276,456,l),
(436,1780,l)
);
},
{
closed = 1;
nodes = (
(81,47,o),
(152,-16,o),
(232,-16,cs),
(342,-16,o),
(416,44,o),
(416,149,cs),
(416,227,o),
(361,301,o),
(260,301,cs),
(160,301,o),
(81,234,o),
(81,136,cs)
);
}
);
width = 496;
},
{
layerId = "EA2265BD-E890-48C4-9E90-A53076E780C5";
shapes = (
{
closed = 1;
nodes = (
(100,1780,l),
(187,516,l),
(384,516,l),
(470,1780,l)
);
},
{
closed = 1;
nodes = (
(107,51,o),
(191,-16,o),
(277,-16,cs),
(398,-16,o),
(484,49,o),
(484,164,cs),
(484,249,o),
(419,330,o),
(307,330,cs),
(197,330,o),
(107,257,o),
(107,149,cs)
);
}
);
width = 584;
},
{
layerId = "0E4B6E2E-ECAB-4D06-9686-B0B40AA31834";
shapes = (
{
closed = 1;
nodes = (
(134,1798,l),
(184,460,l),
(286,460,l),
(328,1798,l)
);
},
{
closed = 1;
nodes = (
(120,20,o),
(174,-22,o),
(232,-22,cs),
(302,-22,o),
(366,30,o),
(366,108,cs),
(366,166,o),
(332,218,o),
(252,218,cs),
(188,218,o),
(120,162,o),
(120,88,cs)
);
}
);
width = 486;
},
{
layerId = "F2B10EEF-9DDC-48CA-970D-6B8C79870881";
shapes = (
{
closed = 1;
nodes = (
(50,1780,l),
(192,470,l),
(243,470,l),
(384,1780,l)
);
},
{
closed = 1;
nodes = (
(69,47,o),
(132,-16,o),
(203,-16,cs),
(300,-16,o),
(366,44,o),
(366,149,cs),
(366,227,o),
(317,301,o),
(228,301,cs),
(139,301,o),
(69,234,o),
(69,136,cs)
);
}
);
width = 434;
},
{
layerId = "E96AC896-F5DF-475B-BBD9-C7FEC6A86D0E";
shapes = (
{
closed = 1;
nodes = (
(103,1798,l),
(159,347,l),
(204,347,l),
(253,1798,l)
);
},
{
closed = 1;
nodes = (
(95,14,o),
(130,-22,o),
(172,-22,cs),
(218,-22,o),
(261,22,o),
(261,85,cs),
(261,132,o),
(238,176,o),
(186,176,cs),
(139,176,o),
(95,130,o),
(95,69,cs)
);
}
);
width = 356;
},
{
layerId = "C9B9556E-C2FD-4F62-BB40-44923C452C22";
shapes = (
{
closed = 1;
nodes = (
(109,1798,l),
(166,359,l),
(214,359,l),
(263,1798,l)
);
},
{
closed = 1;
nodes = (
(90,14,o),
(130,-22,o),
(179,-22,cs),
(232,-22,o),
(282,22,o),
(282,85,cs),
(282,132,o),
(256,176,o),
(195,176,cs),
(141,176,o),
(90,130,o),
(90,69,cs)
);
}
);
width = 372;
}
);
metricRight = "=|";
unicode = 33;
}
{
glyphname = quotedbl;
kernLeft = quotesingle;
kernRight = quotesingle;
layers = (
{
layerId = UUID0;
shapes = (
{
closed = 1;
nodes = (
(258,1644,l),
(294,938,l),
(400,938,l),
(438,1644,l)
);
},
{
closed = 1;
nodes = (
(761,1644,l),
(797,938,l),
(903,938,l),
(941,1644,l)
);
}
);
width = 1198;
},
{
layerId = "DEBB1CE4-A72D-4960-969E-E04A036D2FA1";
shapes = (
{
closed = 1;
nodes = (
(220,1682,l),
(269,846,l),
(464,846,l),
(515,1682,l)
);
},
{
closed = 1;
nodes = (
(776,1682,l),
(825,846,l),
(1020,846,l),
(1071,1682,l)
);
}
);
width = 1290;
},
{
layerId = "184155C8-9F61-4F1C-9784-DDA8EA717636";
shapes = (
{
closed = 1;
nodes = (
(194,1682,l),
(301,939,l),
(348,939,l),
(457,1682,l)
);
},
{
closed = 1;
nodes = (
(648,1682,l),
(755,939,l),
(802,939,l),
(911,1682,l)
);
}
);
width = 1101;
},
{
layerId = "EA2265BD-E890-48C4-9E90-A53076E780C5";
shapes = (
{
closed = 1;
nodes = (
(220,1682,l),
(269,846,l),
(464,846,l),
(515,1682,l)
);
},
{
closed = 1;
nodes = (
(776,1682,l),
(825,846,l),
(1020,846,l),
(1071,1682,l)
);
}
);
width = 1290;
},
{
layerId = "0E4B6E2E-ECAB-4D06-9686-B0B40AA31834";
shapes = (
{
closed = 1;
nodes = (
(258,1644,l),
(294,938,l),
(400,938,l),
(438,1644,l)
);
},
{
closed = 1;
nodes = (
(761,1644,l),
(797,938,l),
(903,938,l),
(941,1644,l)
);
}
);
width = 1198;
},
{
layerId = "F2B10EEF-9DDC-48CA-970D-6B8C79870881";
shapes = (
{
closed = 1;
nodes = (
(176,1682,l),
(270,939,l),
(314,939,l),
(410,1682,l)
);
},
{
closed = 1;
nodes = (
(571,1682,l),
(665,939,l),
(709,939,l),
(805,1682,l)
);
}
);
width = 979;
},
{
layerId = "E96AC896-F5DF-475B-BBD9-C7FEC6A86D0E";
shapes = (
{
closed = 1;
nodes = (
(216,1644,l),
(259,1065,l),
(300,1065,l),
(345,1644,l)
);
},
{
closed = 1;
nodes = (
(536,1644,l),
(578,1065,l),
(620,1065,l),
(664,1644,l)
);
}
);
width = 876;
},
{
layerId = "C9B9556E-C2FD-4F62-BB40-44923C452C22";
shapes = (
{
closed = 1;
nodes = (
(228,1644,l),
(278,1065,l),
(322,1065,l),
(374,1644,l)
);
},
{
closed = 1;
nodes = (
(599,1644,l),
(648,1065,l),
(693,1065,l),
(744,1644,l)
);
}
);
width = 970;
}
);
unicode = 34;
}
{
glyphname = numbersign;
kernLeft = numbersign;
kernRight = numbersign;
layers = (
{
layerId = UUID0;
shapes = (
{
closed = 1;
nodes = (
(286,0,l),
(404,0,l),
(469,413,l),
(824,413,l),
(761,0,l),
(879,0,l),
(942,413,l),
(1190,413,l),
(1208,546,l),
(964,546,l),
(1035,977,l),
(1268,977,l),
(1286,1108,l),
(1053,1108,l),
(1123,1540,l),
(1004,1540,l),
(934,1108,l),
(580,1108,l),
(648,1540,l),
(530,1540,l),
(462,1108,l),
(223,1108,l),
(205,977,l),
(441,977,l),
(371,546,l),
(146,546,l),
(128,413,l),
(350,413,l)
);
},
{
closed = 1;
nodes = (
(488,546,l),
(560,977,l),
(916,977,l),
(846,546,l)
);
}
);
width = 1414;
},
{
layerId = "DEBB1CE4-A72D-4960-969E-E04A036D2FA1";
shapes = (
{
closed = 1;
nodes = (
(306,0,l),
(424,0,l),
(489,413,l),
(834,413,l),
(771,0,l),
(889,0,l),
(952,413,l),
(1220,413,l),
(1248,616,l),
(984,616,l),
(1034,907,l),
(1288,907,l),
(1316,1108,l),
(1063,1108,l),
(1133,1539,l),
(1014,1539,l),
(944,1108,l),
(600,1108,l),
(668,1539,l),
(550,1539,l),
(482,1108,l),
(223,1108,l),
(195,907,l),
(451,907,l),
(404,616,l),
(156,616,l),
(128,413,l),
(370,413,l)
);
},
{
closed = 1;
nodes = (
(521,616,l),
(570,907,l),
(915,907,l),
(866,616,l)
);
}
);
width = 1444;
},
{
layerId = "184155C8-9F61-4F1C-9784-DDA8EA717636";
shapes = (
{
closed = 1;
nodes = (
(299,0,l),
(367,0,l),
(432,413,l),
(777,413,l),
(714,0,l),
(782,0,l),
(845,413,l),
(1113,413,l),
(1141,616,l),
(877,616,l),
(927,907,l),
(1181,907,l),
(1209,1108,l),
(956,1108,l),
(1026,1539,l),
(957,1539,l),
(887,1108,l),
(543,1108,l),
(611,1539,l),
(543,1539,l),
(475,1108,l),
(216,1108,l),
(188,907,l),
(444,907,l),
(397,616,l),
(149,616,l),
(121,413,l),
(363,413,l)
);
},
{
closed = 1;
nodes = (
(464,616,l),
(513,907,l),
(858,907,l),
(809,616,l)
);
}
);
width = 1330;
},
{
layerId = "EA2265BD-E890-48C4-9E90-A53076E780C5";
shapes = (
{
closed = 1;
nodes = (
(306,0,l),
(424,0,l),
(489,413,l),
(814,413,l),
(751,0,l),
(869,0,l),
(932,413,l),
(1200,413,l),
(1228,616,l),
(964,616,l),
(1014,907,l),
(1268,907,l),
(1296,1108,l),
(1043,1108,l),
(1113,1539,l),
(994,1539,l),
(924,1108,l),
(600,1108,l),
(668,1539,l),
(550,1539,l),
(482,1108,l),
(223,1108,l),
(195,907,l),
(451,907,l),
(404,616,l),
(156,616,l),
(128,413,l),
(370,413,l)
);
},
{
closed = 1;
nodes = (
(521,616,l),
(570,907,l),
(895,907,l),
(846,616,l)
);
}
);
width = 1424;
},
{
layerId = "0E4B6E2E-ECAB-4D06-9686-B0B40AA31834";
shapes = (
{
closed = 1;
nodes = (
(286,0,l),
(404,0,l),
(469,413,l),
(794,413,l),
(731,0,l),
(849,0,l),
(912,413,l),
(1160,413,l),
(1178,546,l),
(934,546,l),
(1005,977,l),
(1238,977,l),
(1256,1108,l),
(1023,1108,l),
(1093,1540,l),
(974,1540,l),
(904,1108,l),
(580,1108,l),
(648,1540,l),
(530,1540,l),
(462,1108,l),
(223,1108,l),
(205,977,l),
(441,977,l),
(371,546,l),
(146,546,l),
(128,413,l),
(350,413,l)
);
},
{
closed = 1;
nodes = (
(488,546,l),
(560,977,l),
(886,977,l),
(816,546,l)
);
}
);
width = 1384;
},
{
layerId = "F2B10EEF-9DDC-48CA-970D-6B8C79870881";
shapes = (
{
closed = 1;
nodes = (
(299,0,l),
(367,0,l),
(432,413,l),
(737,413,l),
(674,0,l),
(742,0,l),
(805,413,l),
(1073,413,l),
(1101,616,l),
(837,616,l),
(887,907,l),
(1141,907,l),
(1169,1108,l),
(916,1108,l),
(986,1539,l),
(917,1539,l),
(847,1108,l),
(543,1108,l),
(611,1539,l),
(543,1539,l),
(475,1108,l),
(216,1108,l),
(188,907,l),
(444,907,l),
(397,616,l),
(149,616,l),
(121,413,l),
(363,413,l)
);
},
{
closed = 1;
nodes = (
(464,616,l),
(513,907,l),
(818,907,l),
(769,616,l)
);
}
);
width = 1290;
},
{
layerId = "E96AC896-F5DF-475B-BBD9-C7FEC6A86D0E";
shapes = (
{
closed = 1;
nodes = (
(279,0,l),
(347,0,l),
(412,413,l),
(737,413,l),
(674,0,l),
(742,0,l),
(805,413,l),
(1053,413,l),
(1071,546,l),
(827,546,l),
(898,977,l),
(1131,977,l),
(1149,1108,l),
(916,1108,l),
(986,1539,l),
(917,1539,l),
(847,1108,l),
(523,1108,l),
(591,1539,l),
(523,1539,l),
(455,1108,l),
(216,1108,l),
(198,977,l),
(434,977,l),
(364,546,l),
(139,546,l),
(121,413,l),
(343,413,l)
);
},
{
closed = 1;
nodes = (
(431,546,l),
(503,977,l),
(829,977,l),
(759,546,l)
);
}
);
width = 1270;
},
{
layerId = "C9B9556E-C2FD-4F62-BB40-44923C452C22";
shapes = (
{
closed = 1;
nodes = (
(271,3,l),
(339,3,l),
(404,416,l),
(759,416,l),
(696,3,l),
(764,3,l),
(827,416,l),
(1075,416,l),
(1093,549,l),
(849,549,l),
(920,980,l),
(1153,980,l),
(1171,1111,l),
(938,1111,l),
(1008,1542,l),
(939,1542,l),
(869,1111,l),
(515,1111,l),
(583,1542,l),
(515,1542,l),
(447,1111,l),
(208,1111,l),
(190,980,l),
(426,980,l),
(356,549,l),
(131,549,l),
(113,416,l),
(335,416,l)
);
},
{
closed = 1;
nodes = (
(423,549,l),
(495,980,l),
(851,980,l),
(781,549,l)
);
}
);
width = 1284;
}
);
metricRight = "=|";
unicode = 35;
}
{
glyphname = dollar;
kernLeft = dollar;
kernRight = dollar;
layers = (
{
layerId = UUID0;
shapes = (
{
closed = 1;
nodes = (
(250,42,o),
(408,-8,o),
(576,-20,c),
(574,-252,l),
(700,-252,l),
(702,-20,l),
(972,0,o),
(1132,150,o),
(1132,370,cs),
(1132,605,o),
(960,688,o),
(691,838,cs),
(529,928,o),
(376,1003,o),
(376,1174,cs),
(376,1344,o),
(516,1408,o),
(672,1408,c),
(786,1410,o),
(856,1382,o),
(900,1348,c),
(946,1110,l),
(1042,1110,l),
(1052,1426,l),
(1002,1448,o),
(892,1494,o),
(736,1502,c),
(736,1720,l),
(608,1720,l),
(608,1500,l),
(398,1476,o),
(220,1352,o),
(220,1150,cs),
(220,924,o),
(352,824,o),
(588,700,cs),
(789,594,o),
(970,512,o),
(970,342,cs),
(970,162,o),
(854,74,o),
(650,74,cs),
(518,74,o),
(414,104,o),
(354,154,c),
(314,404,l),
(214,404,l),
(200,68,l)
);
}
);
width = 1312;
},
{
layerId = "DEBB1CE4-A72D-4960-969E-E04A036D2FA1";
shapes = (
{
closed = 1;
nodes = (
(220,51,o),
(386,-8,o),
(585,-20,c),
(583,-252,l),
(758,-252,l),
(760,-16,l),
(1089,21,o),
(1206,225,o),
(1206,420,cs),
(1206,649,o),
(1018,760,o),
(827,863,cs),
(668,948,o),
(493,1027,o),
(493,1184,cs),
(493,1291,o),
(572,1373,o),
(710,1373,c),
(786,1373,o),
(847,1348,o),
(875,1320,c),
(919,1100,l),
(1104,1100,l),
(1116,1432,l),
(1066,1447,o),
(923,1491,o),
(769,1502,c),
(769,1720,l),
(592,1720,l),
(592,1500,l),
(318,1467,o),
(171,1300,o),
(171,1110,cs),
(171,854,o),
(340,736,o),
(527,641,cs),
(728,540,o),
(870,461,o),
(870,324,cs),
(870,200,o),
(807,117,o),
(634,117,cs),
(519,117,o),
(454,148,o),
(420,185,c),
(369,428,l),
(180,428,l),
(163,65,l)
);
}
);
width = 1342;
},
{
layerId = "184155C8-9F61-4F1C-9784-DDA8EA717636";
shapes = (
{
closed = 1;
nodes = (
(219,60,o),
(391,-18,o),
(631,-26,c),
(631,-260,l),
(732,-260,l),
(732,-22,l),
(1021,16,o),
(1206,177,o),
(1206,424,cs),
(1206,675,o),
(1012,780,o),
(827,885,cs),
(634,993,o),
(537,1082,o),
(537,1221,cs),
(537,1339,o),
(585,1446,o),
(710,1446,cs),
(761,1446,o),
(820,1429,o),
(875,1393,c),
(924,1090,l),
(1104,1090,l),
(1126,1432,l),
(1066,1437,o),
(866,1504,o),
(732,1504,c),
(732,1738,l),
(631,1738,l),
(631,1504,l),
(341,1480,o),
(171,1330,o),
(171,1088,cs),
(171,811,o),
(396,691,o),
(527,619,cs),
(721,513,o),
(826,417,o),
(826,278,cs),
(826,141,o),
(755,37,o),
(617,37,cs),
(554,37,o),
(486,58,o),
(421,105,c),
(364,438,l),
(180,438,l),
(153,65,l)
);
}
);
width = 1337;
},
{
layerId = "EA2265BD-E890-48C4-9E90-A53076E780C5";
shapes = (
{
closed = 1;
nodes = (
(190,50,o),
(336,-8,o),
(518,-20,c),
(516,-252,l),
(681,-252,l),
(682,-16,l),
(978,18,o),
(1079,226,o),
(1079,406,cs),
(1079,640,o),
(908,765,o),
(759,859,cs),
(625,944,o),
(456,1036,o),
(456,1194,cs),
(456,1287,o),
(513,1373,o),
(634,1373,c),
(694,1373,o),
(746,1348,o),
(767,1320,c),
(806,1100,l),
(986,1100,l),
(997,1432,l),
(953,1447,o),
(819,1490,o),
(685,1502,c),
(685,1720,l),
(518,1720,l),
(518,1500,l),
(255,1464,o),
(139,1302,o),
(139,1100,cs),
(139,850,o),
(314,732,o),
(449,645,cs),
(638,522,o),
(748,463,o),
(748,315,cs),
(748,220,o),
(704,117,o),
(547,117,cs),
(460,117,o),
(404,149,o),
(382,185,c),
(335,428,l),
(151,428,l),
(135,65,l)
);
}
);
width = 1342;
},
{
layerId = "0E4B6E2E-ECAB-4D06-9686-B0B40AA31834";
shapes = (
{
closed = 1;
nodes = (
(217,42,o),
(358,-7,o),
(508,-20,c),
(506,-252,l),
(630,-252,l),
(631,-20,l),
(868,-1,o),
(1012,151,o),
(1012,362,cs),
(1012,607,o),
(821,721,o),
(620,838,cs),
(506,905,o),
(340,988,o),
(340,1180,cs),
(340,1330,o),
(444,1407,o),
(597,1408,cs),
(695,1409,o),
(754,1385,o),
(795,1348,c),
(836,1110,l),
(931,1110,l),
(940,1426,l),
(896,1448,o),
(794,1491,o),
(659,1502,c),
(659,1720,l),
(534,1720,l),
(534,1499,l),
(327,1470,o),
(188,1349,o),
(188,1135,cs),
(188,920,o),
(326,818,o),
(519,701,cs),
(718,580,o),
(854,518,o),
(854,328,cs),
(854,166,o),
(754,74,o),
(569,74,cs),
(459,74,o),
(366,107,o),
(320,154,c),
(283,404,l),
(185,404,l),
(172,68,l)
);
}
);
width = 1165;
},
{
layerId = "F2B10EEF-9DDC-48CA-970D-6B8C79870881";
shapes = (
{
closed = 1;
nodes = (
(188,60,o),
(343,-18,o),
(566,-26,c),
(566,-260,l),
(663,-260,l),
(663,-22,l),
(932,15,o),
(1093,178,o),
(1093,420,cs),
(1093,672,o),
(917,769,o),
(766,866,cs),
(571,992,o),
(488,1074,o),
(488,1222,cs),
(488,1338,o),
(539,1446,o),
(654,1446,cs),
(712,1446,o),
(780,1419,o),
(794,1393,c),
(833,1090,l),
(999,1090,l),
(1024,1432,l),
(970,1437,o),
(780,1504,o),
(657,1504,c),
(657,1738,l),
(560,1738,l),
(560,1504,l),
(298,1482,o),
(139,1334,o),
(139,1093,cs),
(139,821,o),
(342,709,o),
(455,637,cs),
(634,523,o),
(730,432,o),
(730,270,cs),
(730,146,o),
(673,37,o),
(550,37,cs),
(493,37,o),
(403,60,o),
(375,105,c),
(330,438,l),
(150,438,l),
(126,65,l)
);
}
);
width = 1234;
},
{
layerId = "E96AC896-F5DF-475B-BBD9-C7FEC6A86D0E";
shapes = (
{
closed = 1;
nodes = (
(197,42,o),
(351,-8,o),
(514,-20,c),
(512,-252,l),
(598,-252,l),
(600,-20,l),
(857,-2,o),
(1012,152,o),
(1012,360,cs),
(1012,592,o),
(825,703,o),
(636,808,cs),
(463,902,o),
(306,984,o),
(306,1171,cs),
(306,1335,o),
(426,1451,o),
(587,1451,c),
(669,1453,o),
(763,1426,o),
(809,1391,c),
(841,1111,l),
(932,1111,l),
(941,1426,l),
(891,1448,o),
(781,1492,o),
(629,1502,c),
(629,1720,l),
(543,1720,l),
(543,1500,l),
(322,1472,o),
(168,1348,o),
(168,1143,cs),
(168,909,o),
(367,797,o),
(539,698,cs),
(697,608,o),
(868,539,o),
(868,332,cs),
(868,152,o),
(735,31,o),
(552,31,cs),
(456,31,o),
(335,66,o),
(286,111,c),
(259,403,l),
(164,403,l),
(151,68,l)
);
}
);
width = 1145;
},
{
layerId = "C9B9556E-C2FD-4F62-BB40-44923C452C22";
shapes = (
{
closed = 1;
nodes = (
(234,42,o),
(391,-8,o),
(557,-20,c),
(555,-252,l),
(640,-252,l),
(642,-20,l),
(900,-3,o),
(1063,150,o),
(1063,359,cs),
(1063,587,o),
(870,696,o),
(679,795,cs),
(489,893,o),
(314,974,o),
(314,1166,cs),
(314,1335,o),
(450,1447,o),
(631,1447,c),
(722,1448,o),
(828,1422,o),
(877,1387,c),
(910,1110,l),
(978,1110,l),
(988,1426,l),
(938,1448,o),
(826,1494,o),
(672,1502,c),
(672,1720,l),
(585,1720,l),
(585,1500,l),
(360,1472,o),
(203,1348,o),
(203,1145,cs),
(203,915,o),
(403,808,o),
(581,711,cs),
(763,612,o),
(947,542,o),
(947,335,cs),
(947,152,o),
(797,35,o),
(594,35,cs),
(483,35,o),
(351,70,o),
(297,115,c),
(269,404,l),
(198,404,l),
(185,68,l)
);
}
);
width = 1229;
}
);
unicode = 36;
}
{
glyphname = percent;
kernLeft = percent;
kernRight = percent;
layers = (
{
layerId = UUID0;
shapes = (
{
closed = 1;
nodes = (
(764,0,l),
(1404,1502,l),
(1274,1502,l),
(632,0,l)
);
},
{
closed = 1;
nodes = (
(656,648,o),
(840,794,o),
(840,1060,cs),
(840,1286,o),
(734,1464,o),
(494,1464,cs),
(294,1464,o),
(114,1314,o),
(114,1048,cs),
(114,832,o),
(248,648,o),
(460,648,cs)
);
},
{
closed = 1;
nodes = (
(340,744,o),
(268,884,o),
(268,1056,cs),
(268,1248,o),
(350,1368,o),
(482,1368,cs),
(618,1368,o),
(688,1238,o),
(688,1052,cs),
(688,862,o),
(604,744,o),
(472,744,cs)
);
},
{
closed = 1;
nodes = (
(1736,48,o),
(1922,194,o),
(1922,460,cs),
(1922,684,o),
(1814,864,o),
(1576,864,cs),
(1376,864,o),
(1196,714,o),
(1196,448,cs),
(1196,232,o),
(1328,48,o),
(1542,48,cs)
);
},
{
closed = 1;
nodes = (
(1422,144,o),
(1348,284,o),
(1348,458,cs),
(1348,648,o),
(1430,768,o),
(1564,768,cs),
(1700,768,o),
(1770,636,o),
(1770,452,cs),
(1770,262,o),
(1684,144,o),
(1552,144,cs)
);
}
);
width = 2036;
},
{
layerId = "DEBB1CE4-A72D-4960-969E-E04A036D2FA1";
shapes = (
{
closed = 1;
nodes = (
(856,0,l),
(1497,1502,l),
(1292,1502,l),
(651,0,l)
);
},
{
closed = 1;
nodes = (
(705,624,o),
(895,779,o),
(895,1063,cs),
(895,1304,o),
(795,1495,o),
(509,1495,cs),
(273,1495,o),
(89,1335,o),
(89,1051,cs),
(89,819,o),
(220,624,o),
(473,624,cs)
);
},
{
closed = 1;
nodes = (
(384,753,o),
(354,924,o),
(354,1063,cs),
(354,1239,o),
(388,1364,o),
(497,1364,cs),
(605,1364,o),
(632,1210,o),
(632,1055,cs),
(632,878,o),
(601,753,o),
(491,753,cs)
);
},
{
closed = 1;
nodes = (
(1876,20,o),
(2067,176,o),
(2067,460,cs),
(2067,700,o),
(1965,892,o),
(1681,892,cs),
(1444,892,o),
(1260,732,o),
(1260,448,cs),
(1260,217,o),
(1392,20,o),
(1644,20,cs)
);
},
{
closed = 1;
nodes = (
(1555,151,o),
(1524,321,o),
(1524,461,cs),
(1524,636,o),
(1559,761,o),
(1669,761,cs),
(1775,761,o),
(1803,606,o),
(1803,452,cs),
(1804,277,o),
(1771,151,o),
(1661,151,cs)
);
}
);
width = 2156;
},
{
layerId = "184155C8-9F61-4F1C-9784-DDA8EA717636";
shapes = (
{
closed = 1;
nodes = (
(712,0,l),
(1366,1502,l),
(1280,1502,l),
(626,0,l)
);
},
{
closed = 1;
nodes = (
(704,624,o),
(895,780,o),
(895,1064,cs),
(895,1304,o),
(793,1496,o),
(510,1496,cs),
(273,1496,o),
(89,1336,o),
(89,1052,cs),
(89,811,o),
(221,624,o),
(473,624,cs)
);
},
{
closed = 1;
nodes = (
(394,682,o),
(353,796,o),
(353,1065,cs),
(353,1328,o),
(396,1440,o),
(498,1440,cs),
(592,1440,o),
(632,1325,o),
(632,1056,cs),
(632,794,o),
(590,682,o),
(490,682,cs)
);
},
{
closed = 1;
nodes = (
(1715,20,o),
(1906,176,o),
(1906,460,cs),
(1906,700,o),
(1804,892,o),
(1520,892,cs),
(1283,892,o),
(1099,732,o),
(1099,448,cs),
(1099,217,o),
(1231,20,o),
(1483,20,cs)
);
},
{
closed = 1;
nodes = (
(1404,78,o),
(1363,192,o),
(1363,461,cs),
(1363,724,o),
(1406,836,o),
(1508,836,cs),
(1602,836,o),
(1642,721,o),
(1642,452,cs),
(1642,190,o),
(1600,78,o),
(1500,78,cs)
);
}
);
width = 1995;
},
{
layerId = "EA2265BD-E890-48C4-9E90-A53076E780C5";
shapes = (
{
closed = 1;
nodes = (
(773,0,l),
(1337,1502,l),
(1140,1502,l),
(576,0,l)
);
},
{
closed = 1;
nodes = (
(629,624,o),
(798,779,o),
(798,1063,cs),
(798,1304,o),
(711,1495,o),
(450,1495,cs),
(233,1495,o),
(69,1335,o),
(69,1051,cs),
(69,819,o),
(185,624,o),
(418,624,cs)
);
},
{
closed = 1;
nodes = (
(347,753,o),
(330,923,o),
(330,1063,cs),
(330,1239,o),
(349,1364,o),
(439,1364,cs),
(528,1364,o),
(542,1209,o),
(542,1055,cs),
(542,880,o),
(527,753,o),
(435,753,cs)
);
},
{
closed = 1;
nodes = (
(1680,21,o),
(1849,176,o),
(1849,460,cs),
(1849,701,o),
(1762,892,o),
(1501,892,cs),
(1284,892,o),
(1120,732,o),
(1120,448,cs),
(1120,216,o),
(1236,21,o),
(1469,21,cs)
);
},
{
closed = 1;
nodes = (
(1398,150,o),
(1381,320,o),
(1381,460,cs),
(1381,636,o),
(1400,761,o),
(1490,761,cs),
(1579,761,o),
(1593,606,o),
(1593,452,cs),
(1593,277,o),
(1578,150,o),
(1486,150,cs)
);
}
);
width = 1918;
},
{
layerId = "0E4B6E2E-ECAB-4D06-9686-B0B40AA31834";
shapes = (
{
closed = 1;
nodes = (
(704,0,l),
(1283,1502,l),
(1159,1502,l),
(577,0,l)
);
},
{
closed = 1;
nodes = (
(601,648,o),
(770,794,o),
(770,1060,cs),
(770,1285,o),
(673,1464,o),
(452,1464,cs),
(269,1464,o),
(104,1314,o),
(104,1048,cs),
(104,833,o),
(226,648,o),
(422,648,cs)
);
},
{
closed = 1;
nodes = (
(315,744,o),
(253,885,o),
(253,1056,cs),
(253,1247,o),
(324,1368,o),
(441,1368,cs),
(562,1368,o),
(622,1236,o),
(622,1052,cs),
(622,864,o),
(550,744,o),
(433,744,cs)
);
},
{
closed = 1;
nodes = (
(1587,48,o),
(1758,194,o),
(1758,460,cs),
(1758,682,o),
(1661,864,o),
(1440,864,cs),
(1257,864,o),
(1092,714,o),
(1092,448,cs),
(1092,232,o),
(1214,48,o),
(1410,48,cs)
);
},
{
closed = 1;
nodes = (
(1304,144,o),
(1240,285,o),
(1240,458,cs),
(1240,646,o),
(1310,768,o),
(1430,768,cs),
(1551,768,o),
(1611,634,o),
(1611,452,cs),
(1611,263,o),
(1537,144,o),
(1419,144,cs)
);
}
);
width = 1862;
},
{
layerId = "F2B10EEF-9DDC-48CA-970D-6B8C79870881";
shapes = (
{
closed = 1;
nodes = (
(708,0,l),
(1285,1502,l),
(1199,1502,l),
(623,0,l)
);
},
{
closed = 1;
nodes = (
(641,624,o),
(816,776,o),
(816,1075,cs),
(816,1294,o),
(724,1496,o),
(466,1496,cs),
(236,1496,o),
(69,1336,o),
(69,1056,cs),
(69,821,o),
(186,624,o),
(428,624,cs)
);
},
{
closed = 1;
nodes = (
(349,682,o),
(316,797,o),
(316,1059,cs),
(316,1328,o),
(350,1440,o),
(443,1440,cs),
(537,1440,o),
(569,1325,o),
(569,1060,cs),
(569,795,o),
(537,682,o),
(443,682,cs)
);
},
{
closed = 1;
nodes = (
(1665,20,o),
(1840,172,o),
(1840,471,cs),
(1840,690,o),
(1748,892,o),
(1490,892,cs),
(1260,892,o),
(1093,732,o),
(1093,452,cs),
(1093,217,o),
(1210,20,o),
(1452,20,cs)
);
},
{
closed = 1;
nodes = (
(1373,78,o),
(1340,193,o),
(1340,455,cs),
(1340,724,o),
(1374,836,o),
(1467,836,cs),
(1561,836,o),
(1593,721,o),
(1593,456,cs),
(1593,191,o),
(1561,78,o),
(1467,78,cs)
);
}
);
width = 1909;
},
{
layerId = "E96AC896-F5DF-475B-BBD9-C7FEC6A86D0E";
shapes = (
{
closed = 1;
nodes = (
(625,0,l),
(1168,1502,l),
(1059,1501,l),
(516,0,l)
);
},
{
closed = 1;
nodes = (
(558,649,o),
(720,795,o),
(720,1060,cs),
(720,1284,o),
(627,1463,o),
(412,1463,cs),
(232,1463,o),
(74,1313,o),
(74,1048,cs),
(74,835,o),
(191,649,o),
(382,649,cs)
);
},
{
closed = 1;
nodes = (
(270,687,o),
(205,857,o),
(205,1056,cs),
(205,1279,o),
(278,1425,o),
(401,1425,cs),
(522,1425,o),
(590,1284,o),
(590,1052,cs),
(590,830,o),
(515,687,o),
(393,687,cs)
);
},
{
closed = 1;
nodes = (
(1456,50,o),
(1618,196,o),
(1618,461,cs),
(1618,686,o),
(1525,864,o),
(1310,864,cs),
(1130,864,o),
(972,714,o),
(972,449,cs),
(972,234,o),
(1090,50,o),
(1281,50,cs)
);
},
{
closed = 1;
nodes = (
(1168,88,o),
(1103,258,o),
(1103,457,cs),
(1103,680,o),
(1176,826,o),
(1299,826,cs),
(1420,826,o),
(1488,686,o),
(1488,453,cs),
(1488,231,o),
(1413,88,o),
(1291,88,cs)
);
}
);
width = 1692;
},
{
layerId = "C9B9556E-C2FD-4F62-BB40-44923C452C22";
shapes = (
{
closed = 1;
nodes = (
(681,0,l),
(1281,1502,l),
(1170,1501,l),
(571,0,l)
);
},
{
closed = 1;
nodes = (
(622,648,o),
(800,794,o),
(800,1060,cs),
(800,1285,o),
(698,1464,o),
(463,1464,cs),
(268,1464,o),
(94,1314,o),
(94,1048,cs),
(94,833,o),
(223,648,o),
(431,648,cs)
);
},
{
closed = 1;
nodes = (
(301,686,o),
(225,854,o),
(225,1056,cs),
(225,1282,o),
(311,1426,o),
(451,1426,cs),
(590,1426,o),
(670,1287,o),
(670,1052,cs),
(670,828,o),
(582,686,o),
(442,686,cs)
);
},
{
closed = 1;
nodes = (
(1589,49,o),
(1767,195,o),
(1767,461,cs),
(1767,686,o),
(1665,865,o),
(1430,865,cs),
(1235,865,o),
(1061,715,o),
(1061,449,cs),
(1061,234,o),
(1190,49,o),
(1398,49,cs)
);
},
{
closed = 1;
nodes = (
(1268,87,o),
(1192,255,o),
(1192,457,cs),
(1192,683,o),
(1278,827,o),
(1418,827,cs),
(1557,827,o),
(1637,688,o),
(1637,453,cs),
(1637,229,o),
(1549,87,o),
(1409,87,cs)
);
}
);
width = 1861;
}
);
metricRight = "=|";
unicode = 37;
}
{
glyphname = ampersand;
kernLeft = ampersand;
kernRight = ampersand;
layers = (
{
layerId = UUID0;
shapes = (
{
closed = 1;
nodes = (
(1030,810,l),
(1030,712,l),
(1166,692,l),
(1178,570,o),
(1150,402,o),
(1062,288,c),
(904,440,o),
(788,576,o),
(660,748,c),
(872,878,o),
(1006,998,o),
(1006,1208,cs),
(1006,1372,o),
(890,1504,o),
(690,1504,cs),
(422,1504,o),
(288,1326,o),
(288,1146,cs),
(288,998,o),
(372,864,o),
(464,748,c),
(272,674,o),
(136,536,o),
(136,370,cs),
(136,122,o),
(344,-16,o),
(650,-16,cs),
(750,-16,o),
(910,20,o),
(1032,120,c),
(1122,36,o),
(1184,-12,o),
(1276,-12,cs),
(1304,-12,o),
(1372,-6,o),
(1398,6,c),
(1398,80,l),
(1288,86,o),
(1216,136,o),
(1136,216,c),
(1232,324,o),
(1316,500,o),
(1312,692,c),
(1466,712,l),
(1466,810,l)
);
},
{
closed = 1;
nodes = (
(446,1292,o),
(516,1422,o),
(676,1422,cs),
(810,1422,o),
(860,1292,o),
(860,1196,cs),
(860,1012,o),
(788,936,o),
(606,816,c),
(538,894,o),
(446,996,o),
(446,1158,cs)
);
},
{
closed = 1;
nodes = (
(446,84,o),
(296,220,o),
(296,378,cs),
(296,506,o),
(376,610,o),
(520,682,c),
(648,522,o),
(818,310,o),
(958,186,c),
(870,120,o),
(750,84,o),
(658,84,cs)
);
}
);
width = 1514;
},
{
layerId = "DEBB1CE4-A72D-4960-969E-E04A036D2FA1";
shapes = (
{
closed = 1;
nodes = (
(1040,828,l),
(1040,677,l),
(1172,648,l),
(1177,551,o),
(1151,457,o),
(1090,377,c),
(981,478,o),
(877,607,o),
(735,782,c),
(970,897,o),
(1077,1004,o),
(1077,1208,cs),
(1077,1362,o),
(955,1505,o),
(686,1505,cs),
(413,1505,o),
(222,1335,o),
(222,1121,cs),
(222,961,o),
(313,840,o),
(396,732,c),
(217,675,o),
(56,542,o),
(56,364,cs),
(56,123,o),
(264,-22,o),
(591,-22,cs),
(768,-22,o),
(900,16,o),
(992,89,c),
(1078,29,o),
(1168,-15,o),
(1279,-15,cs),
(1316,-15,o),
(1441,-5,o),
(1473,19,c),
(1473,145,l),
(1375,151,o),
(1272,213,o),
(1198,277,c),
(1275,342,o),
(1359,476,o),
(1371,648,c),
(1510,677,l),
(1510,828,l)
);
},
{
closed = 1;
nodes = (
(526,1322,o),
(581,1397,o),
(682,1397,cs),
(786,1397,o),
(811,1279,o),
(811,1209,cs),
(811,1087,o),
(779,977,o),
(662,875,c),
(607,943,o),
(526,1049,o),
(526,1180,cs)
);
},
{
closed = 1;
nodes = (
(453,119,o),
(340,251,o),
(340,397,cs),
(340,516,o),
(401,585,o),
(471,635,c),
(590,487,o),
(729,292,o),
(871,177,c),
(821,147,o),
(757,119,o),
(677,119,cs)
);
}
);
width = 1532;
},
{
layerId = "184155C8-9F61-4F1C-9784-DDA8EA717636";
shapes = (
{
closed = 1;
nodes = (
(1089,828,l),
(1089,780,l),
(1225,743,l),
(1225,626,o),
(1213,448,o),
(1127,359,c),
(1052,432,o),
(933,575,o),
(765,807,c),
(933,888,o),
(1107,998,o),
(1107,1206,cs),
(1107,1378,o),
(969,1505,o),
(700,1505,cs),
(366,1505,o),
(220,1335,o),
(220,1140,cs),
(220,1003,o),
(295,867,o),
(423,700,c),
(192,641,o),
(62,508,o),
(62,340,cs),
(62,130,o),
(222,-22,o),
(561,-22,cs),
(735,-22,o),
(854,33,o),
(918,96,c),
(1014,13,o),
(1165,-14,o),
(1276,-14,cs),
(1363,-14,o),
(1475,2,o),
(1489,19,c),
(1489,62,l),
(1405,79,o),
(1218,260,o),
(1167,323,c),
(1274,382,o),
(1401,579,o),
(1401,743,c),
(1529,780,l),
(1529,828,l)
);
},
{
closed = 1;
nodes = (
(547,1373,o),
(589,1447,o),
(690,1447,cs),
(788,1447,o),
(836,1343,o),
(836,1204,cs),
(836,1052,o),
(801,919,o),
(728,845,c),
(625,971,o),
(547,1117,o),
(547,1225,cs)
);
},
{
closed = 1;
nodes = (
(506,103,o),
(383,225,o),
(383,418,cs),
(383,518,o),
(416,608,o),
(455,651,c),
(621,421,o),
(753,264,o),
(882,134,c),
(837,111,o),
(759,103,o),
(697,103,cs)
);
}
);
width = 1551;
},
{
layerId = "EA2265BD-E890-48C4-9E90-A53076E780C5";
shapes = (
{
closed = 1;
nodes = (
(938,828,l),
(938,677,l),
(1054,648,l),
(1058,552,o),
(1037,456,o),
(986,377,c),
(894,482,o),
(825,580,o),
(673,782,c),
(892,892,o),
(988,1019,o),
(988,1185,cs),
(988,1366,o),
(873,1505,o),
(629,1505,cs),
(359,1505,o),
(183,1335,o),
(183,1116,cs),
(183,962,o),
(269,838,o),
(341,732,c),
(168,667,o),
(31,542,o),
(31,351,cs),
(31,126,o),
(220,-22,o),
(529,-22,cs),
(695,-22,o),
(815,21,o),
(885,89,c),
(974,23,o),
(1041,-14,o),
(1157,-14,cs),
(1233,-14,o),
(1322,2,o),
(1342,19,c),
(1342,145,l),
(1253,151,o),
(1153,215,o),
(1090,277,c),
(1156,342,o),
(1234,476,o),
(1248,648,c),
(1369,677,l),
(1369,828,l)
);
},
{
closed = 1;
nodes = (
(482,1315,o),
(530,1397,o),
(612,1397,cs),
(707,1397,o),
(727,1286,o),
(727,1195,cs),
(727,1098,o),
(704,974,o),
(604,875,c),
(549,952,o),
(482,1045,o),
(482,1191,cs)
);
},
{
closed = 1;
nodes = (
(405,119,o),
(311,251,o),
(311,402,cs),
(311,517,o),
(365,587,o),
(412,635,c),
(516,490,o),
(638,292,o),
(768,177,c),
(725,147,o),
(678,119,o),
(593,119,cs)
);
}
);
width = 1382;
},
{
layerId = "0E4B6E2E-ECAB-4D06-9686-B0B40AA31834";
shapes = (
{
closed = 1;
nodes = (
(954,810,l),
(954,712,l),
(1079,692,l),
(1090,570,o),
(1062,402,o),
(985,288,c),
(842,438,o),
(741,564,o),
(610,748,c),
(802,871,o),
(936,999,o),
(936,1198,cs),
(936,1379,o),
(826,1504,o),
(631,1504,cs),
(413,1504,o),
(258,1349,o),
(258,1145,cs),
(258,996,o),
(340,860,o),
(422,748,c),
(242,671,o),
(116,542,o),
(116,359,cs),
(116,122,o),
(327,-16,o),
(577,-16,cs),
(692,-16,o),
(830,13,o),
(952,120,c),
(1036,36,o),
(1095,-12,o),
(1181,-12,cs),
(1208,-12,o),
(1275,-6,o),
(1301,6,c),
(1301,80,l),
(1200,86,o),
(1131,134,o),
(1056,216,c),
(1144,324,o),
(1223,500,o),
(1220,692,c),
(1361,712,l),
(1361,810,l)
);
},
{
closed = 1;
nodes = (
(411,1308,o),
(491,1422,o),
(618,1422,cs),
(748,1422,o),
(795,1304,o),
(795,1178,cs),
(795,1014,o),
(715,925,o),
(559,816,c),
(495,896,o),
(411,998,o),
(411,1155,cs)
);
},
{
closed = 1;
nodes = (
(411,84,o),
(271,219,o),
(271,383,cs),
(271,503,o),
(347,612,o),
(475,682,c),
(592,524,o),
(750,309,o),
(881,186,c),
(800,120,o),
(697,84,o),
(600,84,cs)
);
}
);
width = 1389;
},
{
layerId = "F2B10EEF-9DDC-48CA-970D-6B8C79870881";
shapes = (
{
closed = 1;
nodes = (
(964,828,l),
(964,780,l),
(1086,743,l),
(1086,626,o),
(1075,448,o),
(998,359,c),
(931,432,o),
(825,575,o),
(675,807,c),
(825,888,o),
(980,998,o),
(980,1206,cs),
(980,1378,o),
(857,1505,o),
(617,1505,cs),
(319,1505,o),
(188,1335,o),
(188,1140,cs),
(188,1003,o),
(255,867,o),
(369,700,c),
(163,641,o),
(47,508,o),
(47,340,cs),
(47,130,o),
(190,-22,o),
(493,-22,cs),
(648,-22,o),
(754,33,o),
(812,96,c),
(897,13,o),
(1032,-14,o),
(1131,-14,cs),
(1209,-14,o),
(1309,2,o),
(1322,19,c),
(1322,62,l),
(1247,79,o),
(1080,260,o),
(1034,323,c),
(1130,382,o),
(1243,579,o),
(1243,743,c),
(1357,780,l),
(1357,828,l)
);
},
{
closed = 1;
nodes = (
(480,1373,o),
(518,1447,o),
(608,1447,cs),
(695,1447,o),
(738,1343,o),
(738,1204,cs),
(738,1052,o),
(707,919,o),
(642,845,c),
(550,971,o),
(480,1117,o),
(480,1225,cs)
);
},
{
closed = 1;
nodes = (
(444,103,o),
(334,225,o),
(334,418,cs),
(334,518,o),
(363,608,o),
(398,651,c),
(546,421,o),
(664,264,o),
(779,134,c),
(739,111,o),
(670,103,o),
(614,103,cs)
);
}
);
width = 1395;
},
{
layerId = "E96AC896-F5DF-475B-BBD9-C7FEC6A86D0E";
shapes = (
{
closed = 1;
nodes = (
(922,770,l),
(922,722,l),
(1050,694,l),
(1060,521,o),
(1048,332,o),
(954,226,c),
(799,407,o),
(661,596,o),
(554,763,c),
(796,900,o),
(907,1024,o),
(907,1212,cs),
(907,1382,o),
(786,1504,o),
(591,1504,cs),
(381,1504,o),
(226,1350,o),
(226,1154,cs),
(226,990,o),
(307,869,o),
(400,725,c),
(231,632,o),
(106,523,o),
(106,345,cs),
(106,139,o),
(282,-16,o),
(566,-16,cs),
(663,-16,o),
(781,9,o),
(891,109,c),
(967,39,o),
(1043,-13,o),
(1141,-13,cs),
(1186,-13,o),
(1232,-2,o),
(1252,6,c),
(1252,49,l),
(1174,48,o),
(1070,128,o),
(987,208,c),
(1123,332,o),
(1177,504,o),
(1170,694,c),
(1279,722,l),
(1279,770,l)
);
},
{
closed = 1;
nodes = (
(369,1351,o),
(454,1456,o),
(571,1456,cs),
(721,1456,o),
(768,1339,o),
(768,1206,cs),
(768,1026,o),
(716,906,o),
(535,791,c),
(449,924,o),
(369,1039,o),
(369,1202,cs)
);
},
{
closed = 1;
nodes = (
(375,48,o),
(257,196,o),
(257,365,cs),
(257,490,o),
(300,620,o),
(420,698,c),
(532,527,o),
(733,267,o),
(863,136,c),
(792,67,o),
(688,36,o),
(591,40,cs)
);
}
);
width = 1315;
},
{
layerId = "C9B9556E-C2FD-4F62-BB40-44923C452C22";
shapes = (
{
closed = 1;
nodes = (
(971,770,l),
(971,722,l),
(1107,694,l),
(1117,521,o),
(1105,332,o),
(1005,226,c),
(841,407,o),
(694,596,o),
(581,763,c),
(837,900,o),
(955,1024,o),
(955,1212,cs),
(955,1382,o),
(827,1504,o),
(620,1504,cs),
(397,1504,o),
(233,1350,o),
(233,1154,cs),
(233,990,o),
(319,869,o),
(418,725,c),
(238,632,o),
(106,523,o),
(106,345,cs),
(106,139,o),
(293,-16,o),
(594,-16,cs),
(696,-16,o),
(821,9,o),
(938,109,c),
(1019,39,o),
(1099,-13,o),
(1203,-13,cs),
(1251,-13,o),
(1300,-2,o),
(1321,6,c),
(1321,49,l),
(1238,48,o),
(1128,128,o),
(1040,208,c),
(1184,332,o),
(1241,504,o),
(1234,694,c),
(1349,722,l),
(1349,770,l)
);
},
{
closed = 1;
nodes = (
(385,1351,o),
(475,1456,o),
(599,1456,cs),
(758,1456,o),
(808,1339,o),
(808,1206,cs),
(808,1026,o),
(753,906,o),
(561,791,c),
(470,924,o),
(385,1039,o),
(385,1202,cs)
);
},
{
closed = 1;
nodes = (
(391,48,o),
(266,196,o),
(266,365,cs),
(266,490,o),
(312,620,o),
(439,698,c),
(558,527,o),
(771,267,o),
(908,136,c),
(833,67,o),
(723,36,o),
(620,40,cs)
);
}
);
width = 1385;
}
);
unicode = 38;
}
{
glyphname = quotesingle;
kernLeft = quotesingle;
kernRight = quotesingle;
layers = (
{
layerId = UUID0;
shapes = (
{
closed = 1;
nodes = (
(200,1644,l),
(236,938,l),
(342,938,l),
(380,1644,l)
);
}
);
width = 580;
},
{
layerId = "DEBB1CE4-A72D-4960-969E-E04A036D2FA1";
shapes = (
{
closed = 1;
nodes = (
(220,1682,l),
(269,846,l),
(464,846,l),
(515,1682,l)
);
}
);
width = 735;
},
{
layerId = "184155C8-9F61-4F1C-9784-DDA8EA717636";
shapes = (
{
closed = 1;
nodes = (
(194,1682,l),
(301,939,l),
(348,939,l),
(457,1682,l)
);
}
);
width = 651;
},
{
layerId = "EA2265BD-E890-48C4-9E90-A53076E780C5";
shapes = (
{
closed = 1;
nodes = (
(220,1682,l),
(269,846,l),
(464,846,l),
(515,1682,l)
);
}
);
width = 735;
},
{
layerId = "0E4B6E2E-ECAB-4D06-9686-B0B40AA31834";
shapes = (
{
closed = 1;
nodes = (
(200,1644,l),
(236,938,l),
(342,938,l),
(380,1644,l)
);
}
);
width = 580;
},
{
layerId = "F2B10EEF-9DDC-48CA-970D-6B8C79870881";
shapes = (
{
closed = 1;
nodes = (
(176,1682,l),
(270,939,l),
(314,939,l),
(410,1682,l)
);
}
);
width = 586;
},
{
layerId = "E96AC896-F5DF-475B-BBD9-C7FEC6A86D0E";
shapes = (
{
closed = 1;
nodes = (
(216,1644,l),
(259,1065,l),
(300,1065,l),
(345,1644,l)
);
}
);
width = 561;
},
{
layerId = "C9B9556E-C2FD-4F62-BB40-44923C452C22";
shapes = (
{
closed = 1;
nodes = (
(228,1644,l),
(278,1065,l),
(322,1065,l),
(374,1644,l)
);
}
);
width = 602;
}
);
metricRight = "=|";
unicode = 39;
}
{
glyphname = parenleft;
kernLeft = parenleft;
kernRight = parenleft;
layers = (
{
layerId = UUID0;
shapes = (
{
closed = 1;
nodes = (
(146,8,o),
(538,-310,o),
(628,-364,c),
(708,-310,l),
(616,-244,o),
(294,94,o),
(308,704,c),
(318,1244,o),
(618,1552,o),
(700,1606,c),
(628,1652,l),
(522,1594,o),
(146,1240,o),
(146,668,cs)
);
}
);
width = 846;
},
{
layerId = "DEBB1CE4-A72D-4960-969E-E04A036D2FA1";
shapes = (
{
closed = 1;
nodes = (
(103,-60,o),
(553,-328,o),
(643,-382,c),
(754,-295,l),
(653,-226,o),
(384,95,o),
(400,695,c),
(413,1250,o),
(667,1527,o),
(756,1581,c),
(643,1670,l),
(537,1610,o),
(103,1292,o),
(103,668,cs)
);
}
);
width = 896;
},
{
layerId = "184155C8-9F61-4F1C-9784-DDA8EA717636";
shapes = (
{
closed = 1;
nodes = (
(90,-40,o),
(579,-324,o),
(702,-382,c),
(741,-351,l),
(602,-242,o),
(406,75,o),
(421,695,cs),
(435,1270,o),
(616,1544,o),
(743,1638,c),
(706,1670,l),
(567,1592,o),
(90,1272,o),
(90,668,cs)
);
}
);
width = 865;
},
{
layerId = "EA2265BD-E890-48C4-9E90-A53076E780C5";
shapes = (
{
closed = 1;
nodes = (
(103,-60,o),
(553,-328,o),
(643,-382,c),
(754,-295,l),
(653,-226,o),
(384,95,o),
(400,695,c),
(413,1250,o),
(667,1527,o),
(756,1581,c),
(643,1670,l),
(537,1610,o),
(103,1292,o),
(103,668,cs)
);
}
);
width = 896;
},
{
layerId = "0E4B6E2E-ECAB-4D06-9686-B0B40AA31834";
shapes = (
{
closed = 1;
nodes = (
(146,8,o),
(538,-310,o),
(628,-364,c),
(708,-310,l),
(616,-244,o),
(294,94,o),
(308,704,c),
(318,1244,o),
(618,1552,o),
(700,1606,c),
(628,1652,l),
(522,1594,o),
(146,1240,o),
(146,668,cs)
);
}
);
width = 846;
},
{
layerId = "F2B10EEF-9DDC-48CA-970D-6B8C79870881";
shapes = (
{
closed = 1;
nodes = (
(85,-40,o),
(527,-324,o),
(627,-382,c),
(664,-351,l),
(550,-242,o),
(378,75,o),
(391,695,cs),
(404,1270,o),
(563,1544,o),
(666,1638,c),
(630,1670,l),
(517,1592,o),
(85,1272,o),
(85,668,cs)
);
}
);
width = 788;
},
{
layerId = "E96AC896-F5DF-475B-BBD9-C7FEC6A86D0E";
shapes = (
{
closed = 1;
nodes = (
(104,8,o),
(456,-310,o),
(520,-364,c),
(562,-332,l),
(484,-266,o),
(213,94,o),
(225,704,cs),
(234,1244,o),
(488,1572,o),
(555,1626,c),
(520,1652,l),
(442,1594,o),
(104,1240,o),
(104,668,cs)
);
}
);
width = 658;
},
{
layerId = "C9B9556E-C2FD-4F62-BB40-44923C452C22";
shapes = (
{
closed = 1;
nodes = (
(116,8,o),
(511,-310,o),
(593,-364,c),
(638,-332,l),
(540,-266,o),
(224,94,o),
(238,704,cs),
(248,1244,o),
(545,1572,o),
(630,1626,c),
(593,1652,l),
(495,1594,o),
(116,1240,o),
(116,668,cs)
);
}
);
width = 746;
}
);
metricLeft = "=|parenright";
metricRight = "=|parenright";
unicode = 40;
}
{
glyphname = parenright;
kernLeft = parenright;
kernRight = parenright;
layers = (
{
layerId = UUID0;
shapes = (
{
closed = 1;
nodes = (
(700,1282,o),
(308,1600,o),
(218,1654,c),
(138,1600,l),
(230,1534,o),
(552,1196,o),
(538,586,c),
(528,46,o),
(228,-262,o),
(146,-316,c),
(218,-362,l),
(324,-304,o),
(700,50,o),
(700,622,cs)
);
}
);
width = 846;
},
{
layerId = "DEBB1CE4-A72D-4960-969E-E04A036D2FA1";
shapes = (
{
closed = 1;
nodes = (
(793,1350,o),
(343,1618,o),
(253,1672,c),
(142,1585,l),
(243,1516,o),
(512,1195,o),
(497,595,c),
(484,40,o),
(229,-237,o),
(140,-291,c),
(253,-380,l),
(359,-320,o),
(793,-2,o),
(793,622,cs)
);
}
);
width = 896;
},
{
layerId = "184155C8-9F61-4F1C-9784-DDA8EA717636";
shapes = (
{
closed = 1;
nodes = (
(775,1328,o),
(286,1612,o),
(163,1670,c),
(124,1639,l),
(263,1530,o),
(459,1213,o),
(444,593,cs),
(430,18,o),
(249,-256,o),
(122,-350,c),
(159,-382,l),
(298,-304,o),
(775,16,o),
(775,620,cs)
);
}
);
width = 865;
},
{
layerId = "EA2265BD-E890-48C4-9E90-A53076E780C5";
shapes = (
{
closed = 1;
nodes = (
(793,1350,o),
(343,1618,o),
(253,1672,c),
(142,1585,l),
(243,1516,o),
(512,1195,o),
(497,595,c),
(484,40,o),
(229,-237,o),
(140,-291,c),
(253,-380,l),
(359,-320,o),
(793,-2,o),
(793,622,cs)
);
}
);
width = 896;
},
{
layerId = "0E4B6E2E-ECAB-4D06-9686-B0B40AA31834";
shapes = (
{
closed = 1;
nodes = (
(700,1282,o),
(308,1600,o),
(218,1654,c),
(138,1600,l),
(230,1534,o),
(552,1196,o),
(538,586,c),
(528,46,o),
(228,-262,o),
(146,-316,c),
(218,-362,l),
(324,-304,o),
(700,50,o),
(700,622,cs)
);
}
);
width = 846;
},
{
layerId = "F2B10EEF-9DDC-48CA-970D-6B8C79870881";
shapes = (
{
closed = 1;
nodes = (
(703,1328,o),
(261,1612,o),
(161,1670,c),
(124,1639,l),
(238,1530,o),
(410,1213,o),
(397,593,cs),
(384,18,o),
(225,-256,o),
(122,-350,c),
(158,-382,l),
(271,-304,o),
(703,16,o),
(703,620,cs)
);
}
);
width = 788;
},
{
layerId = "E96AC896-F5DF-475B-BBD9-C7FEC6A86D0E";
shapes = (
{
closed = 1;
nodes = (
(554,1280,o),
(202,1598,o),
(138,1652,c),
(96,1620,l),
(174,1554,o),
(445,1194,o),
(433,584,cs),
(424,44,o),
(170,-284,o),
(103,-338,c),
(138,-364,l),
(216,-306,o),
(554,48,o),
(554,620,cs)
);
}
);
width = 658;
},
{
layerId = "C9B9556E-C2FD-4F62-BB40-44923C452C22";
shapes = (
{
closed = 1;
nodes = (
(630,1280,o),
(235,1598,o),
(153,1652,c),
(108,1620,l),
(206,1554,o),
(522,1194,o),
(508,584,cs),
(498,44,o),
(201,-284,o),
(116,-338,c),
(153,-364,l),
(251,-306,o),
(630,48,o),
(630,620,cs)
);
}
);
width = 746;
}
);
unicode = 41;
}
{
color = 4;
glyphname = asterisk;
kernLeft = asterisk;
kernRight = asterisk;
layers = (
{
layerId = UUID0;
shapes = (
{
closed = 1;
nodes = (
(164,942,l),
(244,806,l),
(494,986,l),
(612,1094,l),
(584,936,l),
(560,626,l),
(718,628,l),
(684,936,l),
(652,1094,l),
(776,990,l),
(1026,812,l),
(1106,952,l),
(824,1078,l),
(672,1128,l),
(824,1182,l),
(1100,1314,l),
(1022,1448,l),
(770,1268,l),
(652,1162,l),
(682,1320,l),
(708,1626,l),
(548,1626,l),
(580,1318,l),
(614,1160,l),
(490,1264,l),
(238,1442,l),
(162,1306,l),
(442,1176,l),
(594,1128,l),
(442,1076,l)
);
}
);
width = 1268;
},
{
layerId = "DEBB1CE4-A72D-4960-969E-E04A036D2FA1";
shapes = (
{
closed = 1;
nodes = (
(129,980,l),
(257,765,l),
(420,884,l),
(624,1079,l),
(562,810,l),
(547,604,l),
(807,604,l),
(786,810,l),
(711,1076,l),
(925,887,l),
(1082,772,l),
(1214,995,l),
(1035,1078,l),
(756,1152,l),
(1035,1232,l),
(1209,1323,l),
(1080,1537,l),
(913,1419,l),
(711,1227,l),
(774,1493,l),
(791,1697,l),
(529,1697,l),
(550,1488,l),
(624,1222,l),
(416,1413,l),
(250,1529,l),
(125,1313,l),
(306,1229,l),
(579,1152,l),
(306,1070,l)
);
}
);
width = 1339;
},
{
layerId = "184155C8-9F61-4F1C-9784-DDA8EA717636";
shapes = (
{
closed = 1;
nodes = (
(56,1079,l),
(147,922,l),
(272,1014,l),
(434,1174,l),
(386,951,l),
(372,799,l),
(553,799,l),
(535,954,l),
(479,1174,l),
(648,1021,l),
(772,933,l),
(863,1090,l),
(720,1152,l),
(501,1213,l),
(718,1283,l),
(857,1346,l),
(766,1503,l),
(641,1411,l),
(479,1251,l),
(527,1474,l),
(541,1626,l),
(360,1626,l),
(378,1471,l),
(434,1251,l),
(265,1404,l),
(141,1492,l),
(50,1335,l),
(193,1273,l),
(412,1212,l),
(195,1142,l)
);
}
);
width = 913;
},
{
layerId = "EA2265BD-E890-48C4-9E90-A53076E780C5";
shapes = (
{
closed = 1;
nodes = (
(129,980,l),
(257,765,l),
(420,884,l),
(624,1079,l),
(562,810,l),
(547,604,l),
(807,604,l),
(786,810,l),
(711,1076,l),
(925,887,l),
(1082,772,l),
(1214,995,l),
(1035,1078,l),
(756,1152,l),
(1035,1232,l),
(1209,1323,l),
(1080,1537,l),
(913,1419,l),
(711,1227,l),
(774,1493,l),
(791,1697,l),
(529,1697,l),
(550,1488,l),
(624,1222,l),
(416,1413,l),
(250,1529,l),
(125,1313,l),
(306,1229,l),
(579,1152,l),
(306,1070,l)
);
}
);
width = 1339;
},
{
layerId = "0E4B6E2E-ECAB-4D06-9686-B0B40AA31834";
shapes = (
{
closed = 1;
nodes = (
(164,942,l),
(244,806,l),
(494,986,l),
(612,1094,l),
(584,936,l),
(560,626,l),
(718,628,l),
(684,936,l),
(652,1094,l),
(776,990,l),
(1026,812,l),
(1106,952,l),
(824,1078,l),
(672,1128,l),
(824,1182,l),
(1100,1314,l),
(1022,1448,l),
(770,1268,l),
(652,1162,l),
(682,1320,l),
(708,1626,l),
(548,1626,l),
(580,1318,l),
(614,1160,l),
(490,1264,l),
(238,1442,l),
(162,1306,l),
(442,1176,l),
(594,1128,l),
(442,1076,l)
);
}
);
width = 1268;
},
{
layerId = "F2B10EEF-9DDC-48CA-970D-6B8C79870881";
shapes = (
{
closed = 1;
nodes = (
(56,1079,l),
(147,922,l),
(272,1014,l),
(434,1174,l),
(386,951,l),
(372,799,l),
(553,799,l),
(535,954,l),
(479,1174,l),
(648,1021,l),
(772,933,l),
(863,1090,l),
(720,1152,l),
(501,1213,l),
(718,1283,l),
(857,1346,l),
(766,1503,l),
(641,1411,l),
(479,1251,l),
(527,1474,l),
(541,1626,l),
(360,1626,l),
(378,1471,l),
(434,1251,l),
(265,1404,l),
(141,1492,l),
(50,1335,l),
(193,1273,l),
(412,1212,l),
(195,1142,l)
);
}
);
width = 913;
},
{
layerId = "E96AC896-F5DF-475B-BBD9-C7FEC6A86D0E";
shapes = (
{
closed = 1;
nodes = (
(71,1085,l),
(131,980,l),
(325,1124,l),
(425,1216,l),
(399,1081,l),
(379,838,l),
(498,838,l),
(472,1082,l),
(443,1216,l),
(544,1125,l),
(740,986,l),
(800,1091,l),
(580,1190,l),
(452,1232,l),
(579,1275,l),
(796,1379,l),
(736,1484,l),
(542,1340,l),
(442,1248,l),
(468,1383,l),
(488,1626,l),
(369,1626,l),
(395,1382,l),
(424,1248,l),
(323,1339,l),
(127,1478,l),
(67,1373,l),
(287,1274,l),
(415,1232,l),
(288,1189,l)
);
}
);
width = 867;
},
{
layerId = "C9B9556E-C2FD-4F62-BB40-44923C452C22";
shapes = (
{
closed = 1;
nodes = (
(94,1085,l),
(155,980,l),
(353,1124,l),
(455,1216,l),
(428,1081,l),
(408,838,l),
(529,838,l),
(503,1082,l),
(473,1216,l),
(576,1125,l),
(776,986,l),
(837,1091,l),
(613,1190,l),
(482,1232,l),
(612,1275,l),
(833,1379,l),
(772,1484,l),
(574,1340,l),
(472,1248,l),
(499,1383,l),
(519,1626,l),
(398,1626,l),
(424,1382,l),
(454,1248,l),
(351,1339,l),
(151,1478,l),
(90,1373,l),
(314,1274,l),
(445,1232,l),
(315,1189,l)
);
}
);
width = 927;
}
);
metricRight = "=|";
unicode = 42;
}
{
color = 4;
glyphname = plus;
kernLeft = hyphen;
kernRight = hyphen;
layers = (
{
layerId = UUID0;
shapes = (
{
closed = 1;
nodes = (
(180,708,l),
(180,578,l),
(396,578,l),
(568,584,l),
(562,412,l),
(562,171,l),
(692,171,l),
(692,412,l),
(684,584,l),
(832,578,l),
(1074,578,l),
(1074,708,l),
(832,708,l),
(684,698,l),
(692,874,l),
(692,1114,l),
(562,1114,l),
(562,874,l),
(568,698,l),
(396,708,l)
);
}
);
width = 1254;
},
{
layerId = "DEBB1CE4-A72D-4960-969E-E04A036D2FA1";
shapes = (
{
closed = 1;
nodes = (
(180,745,l),
(180,533,l),
(358,533,l),
(541,541,l),
(535,389,l),
(535,170,l),
(745,170,l),
(745,389,l),
(736,541,l),
(893,533,l),
(1101,533,l),
(1101,745,l),
(893,745,l),
(736,733,l),
(745,887,l),
(745,1113,l),
(535,1113,l),
(535,887,l),
(541,733,l),
(358,745,l)
);
}
);
width = 1281;
},
{
layerId = "184155C8-9F61-4F1C-9784-DDA8EA717636";
shapes = (
{
closed = 1;
nodes = (
(154,607,l),
(154,521,l),
(332,521,l),
(571,521,l),
(571,320,l),
(571,92,l),
(657,92,l),
(657,320,l),
(657,521,l),
(867,521,l),
(1075,521,l),
(1075,607,l),
(867,607,l),
(657,607,l),
(657,816,l),
(657,1035,l),
(571,1035,l),
(571,816,l),
(571,607,l),
(332,607,l)
);
}
);
width = 1229;
},
{
layerId = "EA2265BD-E890-48C4-9E90-A53076E780C5";
shapes = (
{
closed = 1;
nodes = (
(185,745,l),
(185,533,l),
(353,533,l),
(536,541,l),
(530,389,l),
(530,170,l),
(740,170,l),
(740,389,l),
(731,541,l),
(888,533,l),
(1086,533,l),
(1086,745,l),
(888,745,l),
(731,733,l),
(740,887,l),
(740,1113,l),
(530,1113,l),
(530,887,l),
(536,733,l),
(353,745,l)
);
}
);
width = 1271;
},
{
layerId = "0E4B6E2E-ECAB-4D06-9686-B0B40AA31834";
shapes = (
{
closed = 1;
nodes = (
(110,709,l),
(110,579,l),
(326,579,l),
(498,585,l),
(492,413,l),
(492,173,l),
(622,173,l),
(622,413,l),
(614,585,l),
(762,579,l),
(1004,579,l),
(1004,709,l),
(762,709,l),
(614,699,l),
(622,875,l),
(622,1116,l),
(492,1116,l),
(492,875,l),
(498,699,l),
(326,709,l)
);
}
);
width = 1114;
},
{
layerId = "F2B10EEF-9DDC-48CA-970D-6B8C79870881";
shapes = (
{
closed = 1;
nodes = (
(141,607,l),
(141,521,l),
(319,521,l),
(558,521,l),
(558,320,l),
(558,92,l),
(644,92,l),
(644,320,l),
(644,521,l),
(854,521,l),
(1062,521,l),
(1062,607,l),
(854,607,l),
(644,607,l),
(644,816,l),
(644,1035,l),
(558,1035,l),
(558,816,l),
(558,607,l),
(319,607,l)
);
}
);
width = 1203;
},
{
layerId = "E96AC896-F5DF-475B-BBD9-C7FEC6A86D0E";
shapes = (
{
closed = 1;
nodes = (
(140,607,l),
(140,521,l),
(273,521,l),
(512,521,l),
(512,320,l),
(512,92,l),
(598,92,l),
(598,320,l),
(598,521,l),
(808,521,l),
(971,521,l),
(971,607,l),
(808,607,l),
(598,607,l),
(598,816,l),
(598,1035,l),
(512,1035,l),
(512,816,l),
(512,607,l),
(273,607,l)
);
}
);
width = 1111;
},
{
layerId = "C9B9556E-C2FD-4F62-BB40-44923C452C22";
shapes = (
{
closed = 1;
nodes = (
(154,607,l),
(154,521,l),
(332,521,l),
(571,521,l),
(571,320,l),
(571,92,l),
(657,92,l),
(657,320,l),
(657,521,l),
(867,521,l),
(1075,521,l),
(1075,607,l),
(867,607,l),
(657,607,l),
(657,816,l),
(657,1035,l),
(571,1035,l),
(571,816,l),
(571,607,l),
(332,607,l)
);
}
);
width = 1229;
}
);
metricLeft = hyphen;
metricRight = hyphen;
unicode = 43;
}
{
glyphname = comma;
kernLeft = period;
kernRight = period;
layers = (
{
layerId = UUID0;
shapes = (
{
closed = 1;
nodes = (
(336,278,ls),
(284,278,o),
(238,240,o),
(238,176,cs),
(238,58,o),
(334,64,o),
(334,-30,cs),
(334,-174,o),
(256,-334,o),
(210,-370,c),
(210,-388,l),
(268,-428,l),
(270,-428,l),
(366,-372,o),
(484,-184,o),
(484,48,cs),
(484,198,o),
(426,278,o),
(344,278,c)
);
}
);
width = 670;
},
{
layerId = "DEBB1CE4-A72D-4960-969E-E04A036D2FA1";
shapes = (
{
closed = 1;
nodes = (
(332,358,ls),
(234,358,o),
(164,298,o),
(164,204,cs),
(164,54,o),
(284,54,o),
(284,-49,cs),
(284,-170,o),
(229,-346,o),
(164,-401,c),
(164,-434,l),
(261,-499,l),
(263,-499,l),
(372,-444,o),
(540,-181,o),
(540,82,cs),
(540,238,o),
(448,358,o),
(344,358,c)
);
}
);
width = 669;
},
{
layerId = "184155C8-9F61-4F1C-9784-DDA8EA717636";
shapes = (
{
closed = 1;
nodes = (
(250,319,ls),
(159,319,o),
(104,265,o),
(104,179,cs),
(104,35,o),
(274,40,o),
(274,-81,cs),
(274,-194,o),
(216,-307,o),
(127,-398,c),
(127,-406,l),
(159,-427,l),
(161,-426,l),
(308,-345,o),
(446,-155,o),
(446,68,cs),
(446,210,o),
(365,319,o),
(261,319,c)
);
}
);
width = 544;
},
{
layerId = "EA2265BD-E890-48C4-9E90-A53076E780C5";
shapes = (
{
closed = 1;
nodes = (
(332,358,ls),
(234,358,o),
(164,298,o),
(164,204,cs),
(164,54,o),
(284,54,o),
(284,-49,cs),
(284,-170,o),
(229,-346,o),
(164,-401,c),
(164,-434,l),
(261,-499,l),
(263,-499,l),
(372,-444,o),
(540,-181,o),
(540,82,cs),
(540,238,o),
(448,358,o),
(344,358,c)
);
}
);
width = 669;
},
{
layerId = "0E4B6E2E-ECAB-4D06-9686-B0B40AA31834";
shapes = (
{
closed = 1;
nodes = (
(336,278,ls),
(284,278,o),
(238,240,o),
(238,176,cs),
(238,58,o),
(334,64,o),
(334,-30,cs),
(334,-174,o),
(256,-334,o),
(210,-370,c),
(210,-388,l),
(268,-428,l),
(270,-428,l),
(366,-372,o),
(484,-184,o),
(484,48,cs),
(484,198,o),
(426,278,o),
(344,278,c)
);
}
);
width = 670;
},
{
layerId = "F2B10EEF-9DDC-48CA-970D-6B8C79870881";
shapes = (
{
closed = 1;
nodes = (
(219,319,ls),
(142,319,o),
(94,262,o),
(94,181,cs),
(94,42,o),
(242,22,o),
(242,-89,cs),
(242,-195,o),
(173,-306,o),
(99,-397,c),
(99,-405,l),
(131,-427,l),
(133,-426,l),
(259,-343,o),
(394,-156,o),
(394,65,cs),
(394,212,o),
(324,319,o),
(228,319,c)
);
}
);
width = 482;
},
{
layerId = "E96AC896-F5DF-475B-BBD9-C7FEC6A86D0E";
shapes = (
{
closed = 1;
nodes = (
(175,220,ls),
(139,220,o),
(110,190,o),
(110,138,cs),
(110,43,o),
(193,35,o),
(193,-48,cs),
(193,-149,o),
(146,-254,o),
(94,-309,c),
(94,-317,l),
(124,-338,l),
(125,-338,l),
(203,-276,o),
(281,-129,o),
(281,35,cs),
(281,156,o),
(231,220,o),
(181,220,c)
);
}
);
width = 386;
},
{
layerId = "C9B9556E-C2FD-4F62-BB40-44923C452C22";
shapes = (
{
closed = 1;
nodes = (
(204,220,ls),
(162,220,o),
(125,190,o),
(125,138,cs),
(125,43,o),
(232,35,o),
(232,-46,cs),
(232,-162,o),
(165,-256,o),
(102,-311,c),
(102,-319,l),
(130,-338,l),
(131,-338,l),
(236,-279,o),
(323,-126,o),
(323,35,cs),
(323,156,o),
(273,220,o),
(210,220,c)
);
}
);
width = 440;
}
);
unicode = 44;
}
{
color = 10;
glyphname = hyphen;
kernLeft = hyphen;
kernRight = hyphen;
layers = (
{
layerId = UUID0;
shapes = (
{
closed = 1;
nodes = (
(180,702,l),
(180,582,l),
(986,582,l),
(986,702,l)
);
}
);
width = 1166;
},
{
layerId = "DEBB1CE4-A72D-4960-969E-E04A036D2FA1";
shapes = (
{
closed = 1;
nodes = (
(180,749,l),
(180,537,l),
(967,537,l),
(967,749,l)
);
}
);
width = 1147;
},
{
layerId = "184155C8-9F61-4F1C-9784-DDA8EA717636";
shapes = (
{
closed = 1;
nodes = (
(154,606,l),
(154,520,l),
(897,520,l),
(897,606,l)
);
}
);
width = 1051;
},
{
layerId = "EA2265BD-E890-48C4-9E90-A53076E780C5";
shapes = (
{
closed = 1;
nodes = (
(185,749,l),
(185,537,l),
(972,537,l),
(972,749,l)
);
}
);
width = 1157;
},
{
layerId = "0E4B6E2E-ECAB-4D06-9686-B0B40AA31834";
shapes = (
{
closed = 1;
nodes = (
(110,702,l),
(110,582,l),
(916,582,l),
(916,702,l)
);
}
);
width = 1026;
},
{
layerId = "F2B10EEF-9DDC-48CA-970D-6B8C79870881";
shapes = (
{
closed = 1;
nodes = (
(141,606,l),
(141,520,l),
(790,520,l),
(790,606,l)
);
}
);
width = 931;
},
{
layerId = "E96AC896-F5DF-475B-BBD9-C7FEC6A86D0E";
shapes = (
{
closed = 1;
nodes = (
(140,606,l),
(140,520,l),
(772,520,l),
(772,606,l)
);
}
);
width = 912;
},
{
layerId = "C9B9556E-C2FD-4F62-BB40-44923C452C22";
shapes = (
{
closed = 1;
nodes = (
(154,606,l),
(154,520,l),
(886,520,l),
(886,606,l)
);
}
);
width = 1040;
}
);
metricRight = "=|";
unicode = 45;
}
{
glyphname = period;
kernLeft = period;
kernRight = period;
layers = (
{
layerId = UUID0;
shapes = (
{
closed = 1;
nodes = (
(308,-22,o),
(370,32,o),
(370,110,cs),
(370,168,o),
(338,222,o),
(262,222,cs),
(196,222,o),
(132,166,o),
(132,90,cs),
(132,22,o),
(182,-22,o),
(242,-22,cs)
);
}
);
width = 502;
},
{
layerId = "DEBB1CE4-A72D-4960-969E-E04A036D2FA1";
shapes = (
{
closed = 1;
nodes = (
(413,-16,o),
(499,50,o),
(499,165,cs),
(499,251,o),
(434,333,o),
(323,333,cs),
(213,333,o),
(122,259,o),
(122,151,cs),
(122,53,o),
(205,-16,o),
(293,-16,cs)
);
}
);
width = 620;
},
{
layerId = "184155C8-9F61-4F1C-9784-DDA8EA717636";
shapes = (
{
closed = 1;
nodes = (
(343,-16,o),
(417,44,o),
(417,149,cs),
(417,227,o),
(362,301,o),
(261,301,cs),
(161,301,o),
(82,234,o),
(82,136,cs),
(82,47,o),
(153,-16,o),
(233,-16,cs)
);
}
);
width = 499;
},
{
layerId = "EA2265BD-E890-48C4-9E90-A53076E780C5";
shapes = (
{
closed = 1;
nodes = (
(413,-16,o),
(499,50,o),
(499,165,cs),
(499,251,o),
(434,333,o),
(323,333,cs),
(213,333,o),
(122,259,o),
(122,151,cs),
(122,53,o),
(205,-16,o),
(293,-16,cs)
);
}
);
width = 620;
},
{
layerId = "0E4B6E2E-ECAB-4D06-9686-B0B40AA31834";
shapes = (
{
closed = 1;
nodes = (
(308,-22,o),
(370,32,o),
(370,110,cs),
(370,168,o),
(338,222,o),
(262,222,cs),
(196,222,o),
(132,166,o),
(132,90,cs),
(132,22,o),
(182,-22,o),
(242,-22,cs)
);
}
);
width = 502;
},
{
layerId = "F2B10EEF-9DDC-48CA-970D-6B8C79870881";
shapes = (
{
closed = 1;
nodes = (
(296,-16,o),
(361,44,o),
(361,149,cs),
(361,227,o),
(312,301,o),
(223,301,cs),
(134,301,o),
(64,234,o),
(64,136,cs),
(64,47,o),
(127,-16,o),
(198,-16,cs)
);
}
);
width = 425;
},
{
layerId = "E96AC896-F5DF-475B-BBD9-C7FEC6A86D0E";
shapes = (
{
closed = 1;
nodes = (
(181,-22,o),
(224,22,o),
(224,85,cs),
(224,132,o),
(201,176,o),
(149,176,cs),
(102,176,o),
(58,130,o),
(58,69,cs),
(58,14,o),
(93,-22,o),
(135,-22,cs)
);
}
);
width = 282;
},
{
layerId = "C9B9556E-C2FD-4F62-BB40-44923C452C22";
shapes = (
{
closed = 1;
nodes = (
(212,-22,o),
(262,22,o),
(262,85,cs),
(262,132,o),
(236,176,o),
(175,176,cs),
(121,176,o),
(70,130,o),
(70,69,cs),
(70,14,o),
(110,-22,o),
(159,-22,cs)
);
}
);
width = 332;
}
);
unicode = 46;
}
{
glyphname = slash;
kernLeft = slash;
kernRight = slash;
layers = (
{
layerId = UUID0;
shapes = (
{
closed = 1;
nodes = (
(536,1562,l),
(76,-354,l),
(226,-354,l),
(686,1562,l)
);
}
);
width = 762;
},
{
layerId = "DEBB1CE4-A72D-4960-969E-E04A036D2FA1";
shapes = (
{
closed = 1;
nodes = (
(544,1562,l),
(64,-354,l),
(288,-354,l),
(766,1562,l)
);
}
);
width = 830;
},
{
layerId = "184155C8-9F61-4F1C-9784-DDA8EA717636";
shapes = (
{
closed = 1;
nodes = (
(526,1562,l),
(42,-354,l),
(139,-354,l),
(621,1562,l)
);
}
);
width = 663;
},
{
layerId = "EA2265BD-E890-48C4-9E90-A53076E780C5";
shapes = (
{
closed = 1;
nodes = (
(554,1562,l),
(64,-354,l),
(288,-354,l),
(776,1562,l)
);
}
);
width = 840;
},
{
layerId = "0E4B6E2E-ECAB-4D06-9686-B0B40AA31834";
shapes = (
{
closed = 1;
nodes = (
(564,1562,l),
(64,-354,l),
(214,-354,l),
(714,1562,l)
);
}
);
width = 778;
},
{
layerId = "F2B10EEF-9DDC-48CA-970D-6B8C79870881";
shapes = (
{
closed = 1;
nodes = (
(446,1562,l),
(24,-354,l),
(119,-354,l),
(539,1562,l)
);
}
);
width = 563;
},
{
layerId = "E96AC896-F5DF-475B-BBD9-C7FEC6A86D0E";
shapes = (
{
closed = 1;
nodes = (
(516,1562,l),
(34,-354,l),
(116,-354,l),
(598,1562,l)
);
}
);
width = 632;
},
{
layerId = "C9B9556E-C2FD-4F62-BB40-44923C452C22";
shapes = (
{
closed = 1;
nodes = (
(578,1562,l),
(38,-354,l),
(124,-354,l),
(664,1562,l)
);
}
);
width = 702;
}
);
metricRight = "=|";
unicode = 47;
}
{
glyphname = one;
kernLeft = one;
kernRight = one;
layers = (
{
layerId = UUID0;
shapes = (
{
closed = 1;
nodes = (
(138,86,l),
(138,0,l),
(830,0,l),
(830,86,l),
(577,102,l),
(577,1484,l),
(476,1504,l),
(474,1504,l),
(380,1424,o),
(234,1350,o),
(98,1320,c),
(118,1226,l),
(204,1238,o),
(358,1280,o),
(412,1304,c),
(412,102,l)
);
}
);
width = 892;
},
{
layerId = "DEBB1CE4-A72D-4960-969E-E04A036D2FA1";
shapes = (
{
closed = 1;
nodes = (
(110,130,l),
(110,0,l),
(900,0,l),
(900,130,l),
(686,154,l),
(686,1486,l),
(517,1506,l),
(515,1506,l),
(421,1426,o),
(216,1342,o),
(60,1312,c),
(90,1144,l),
(150,1150,o),
(297,1182,o),
(343,1196,c),
(343,152,l)
);
}
);
width = 940;
},
{
layerId = "184155C8-9F61-4F1C-9784-DDA8EA717636";
shapes = (
{
closed = 1;
nodes = (
(62,38,l),
(62,0,l),
(873,0,l),
(873,38,l),
(661,72,l),
(661,1486,l),
(472,1506,l),
(456,1506,l),
(374,1412,o),
(233,1282,o),
(19,1242,c),
(30,1191,l),
(102,1189,o),
(236,1214,o),
(277,1230,c),
(276,72,l)
);
}
);
width = 894;
},
{
layerId = "EA2265BD-E890-48C4-9E90-A53076E780C5";
shapes = (
{
closed = 1;
nodes = (
(106,128,l),
(106,0,l),
(828,0,l),
(828,128,l),
(644,152,l),
(644,1486,l),
(488,1506,l),
(486,1506,l),
(402,1426,o),
(204,1342,o),
(60,1313,c),
(89,1148,l),
(139,1154,o),
(275,1186,o),
(316,1200,c),
(316,150,l)
);
}
);
width = 890;
},
{
layerId = "0E4B6E2E-ECAB-4D06-9686-B0B40AA31834";
shapes = (
{
closed = 1;
nodes = (
(136,86,l),
(136,0,l),
(744,0,l),
(744,86,l),
(527,102,l),
(527,1484,l),
(432,1504,l),
(430,1504,l),
(342,1424,o),
(221,1351,o),
(98,1321,c),
(118,1227,l),
(196,1239,o),
(317,1271,o),
(366,1304,c),
(366,102,l)
);
}
);
width = 806;
},
{
layerId = "F2B10EEF-9DDC-48CA-970D-6B8C79870881";
shapes = (
{
closed = 1;
nodes = (
(65,38,l),
(65,0,l),
(757,0,l),
(757,38,l),
(589,72,l),
(589,1485,l),
(416,1510,l),
(400,1510,l),
(333,1416,o),
(206,1282,o),
(29,1242,c),
(38,1191,l),
(99,1189,o),
(199,1213,o),
(237,1230,c),
(236,72,l)
);
}
);
width = 783;
},
{
layerId = "E96AC896-F5DF-475B-BBD9-C7FEC6A86D0E";
shapes = (
{
closed = 1;
nodes = (
(73,36,l),
(73,0,l),
(723,0,l),
(723,36,l),
(470,67,l),
(470,1484,l),
(372,1504,l),
(370,1504,l),
(308,1403,o),
(163,1314,o),
(39,1284,c),
(47,1242,l),
(183,1268,o),
(247,1295,o),
(313,1324,c),
(318,67,l)
);
}
);
width = 751;
},
{
layerId = "C9B9556E-C2FD-4F62-BB40-44923C452C22";
shapes = (
{
closed = 1;
nodes = (
(130,36,l),
(130,0,l),
(762,0,l),
(762,36,l),
(525,67,l),
(525,1484,l),
(428,1504,l),
(426,1504,l),
(360,1403,o),
(196,1314,o),
(64,1284,c),
(73,1242,l),
(217,1268,o),
(297,1295,o),
(368,1324,c),
(373,67,l)
);
}
);
width = 820;
}
);
unicode = 49;
}
{
glyphname = two;
kernLeft = two;
kernRight = two;
layers = (
{
guides = (
{
angle = 183.8141;
pos = (623,115);
}
);
layerId = UUID0;
shapes = (
{
closed = 1;
nodes = (
(88,0,l),
(1034,0,l),
(1082,292,l),
(994,310,l),
(928,136,l),
(278,94,l),
(582,298,o),
(990,734,o),
(990,1096,cs),
(990,1328,o),
(823,1502,o),
(549,1502,cs),
(297,1502,o),
(140,1356,o),
(73,1249,c),
(157,1183,l),
(210,1250,o),
(316,1372,o),
(510,1372,cs),
(694,1372,o),
(824,1278,o),
(824,1054,cs),
(824,736,o),
(394,272,o),
(64,68,c)
);
}
);
width = 1198;
},
{
layerId = "DEBB1CE4-A72D-4960-969E-E04A036D2FA1";
shapes = (
{
closed = 1;
nodes = (
(82,0,l),
(1062,0,l),
(1116,358,l),
(978,386,l),
(900,228,l),
(344,176,l),
(702,384,o),
(1034,782,o),
(1034,1070,cs),
(1034,1330,o),
(864,1504,o),
(554,1504,cs),
(302,1504,o),
(122,1372,o),
(32,1248,c),
(136,1130,l),
(202,1192,o),
(300,1278,o),
(452,1278,cs),
(588,1278,o),
(686,1198,o),
(686,1022,cs),
(686,710,o),
(358,326,o),
(34,122,c)
);
}
);
width = 1168;
},
{
guides = (
{
angle = -49.9812;
pos = (97,1248);
},
{
angle = 63.435;
pos = (987,312);
},
{
angle = 185.3557;
pos = (699,152);
},
{
pos = (779,1256);
}
);
layerId = "184155C8-9F61-4F1C-9784-DDA8EA717636";
shapes = (
{
closed = 1;
nodes = (
(58,0,l),
(1030,0,l),
(1123,448,l),
(1059,472,l),
(974,330,l),
(182,216,l),
(642,428,o),
(1035,720,o),
(1035,1093,cs),
(1035,1363,o),
(797,1504,o),
(564,1504,cs),
(266,1504,o),
(118,1328,o),
(39,1232,c),
(73,1181,l),
(165,1272,o),
(289,1333,o),
(408,1333,cs),
(556,1333,o),
(630,1215,o),
(630,1011,cs),
(630,676,o),
(353,350,o),
(-12,155,c)
);
}
);
width = 1168;
},
{
layerId = "EA2265BD-E890-48C4-9E90-A53076E780C5";
shapes = (
{
closed = 1;
nodes = (
(55,0,l),
(949,0,l),
(998,356,l),
(867,383,l),
(795,224,l),
(290,172,l),
(637,389,o),
(955,778,o),
(955,1072,cs),
(955,1331,o),
(779,1504,o),
(498,1504,cs),
(273,1504,o),
(109,1375,o),
(28,1253,c),
(124,1137,l),
(185,1202,o),
(257,1282,o),
(394,1282,cs),
(518,1282,o),
(622,1200,o),
(622,1024,cs),
(622,714,o),
(300,327,o),
(8,120,c)
);
}
);
width = 1042;
},
{
layerId = "0E4B6E2E-ECAB-4D06-9686-B0B40AA31834";
shapes = (
{
closed = 1;
nodes = (
(40,0,l),
(871,0,l),
(919,292,l),
(834,310,l),
(768,136,l),
(206,94,l),
(510,298,o),
(896,734,o),
(896,1096,cs),
(896,1308,o),
(769,1502,o),
(481,1502,cs),
(262,1502,o),
(114,1368,o),
(42,1249,c),
(110,1184,l),
(171,1268,o),
(272,1370,o),
(450,1370,cs),
(634,1370,o),
(732,1238,o),
(732,1054,cs),
(732,736,o),
(346,272,o),
(16,68,c)
);
}
);
width = 1019;
},
{
layerId = "F2B10EEF-9DDC-48CA-970D-6B8C79870881";
shapes = (
{
closed = 1;
nodes = (
(91,0,l),
(906,0,l),
(993,452,l),
(934,472,l),
(856,312,l),
(213,216,l),
(602,458,o),
(926,703,o),
(926,1119,cs),
(926,1298,o),
(809,1504,o),
(510,1504,cs),
(288,1504,o),
(122,1372,o),
(51,1232,c),
(80,1188,l),
(175,1291,o),
(257,1311,o),
(358,1311,cs),
(500,1311,o),
(594,1205,o),
(594,1013,cs),
(594,678,o),
(318,353,o),
(20,158,c)
);
}
);
width = 1029;
},
{
layerId = "E96AC896-F5DF-475B-BBD9-C7FEC6A86D0E";
shapes = (
{
closed = 1;
nodes = (
(41,0,l),
(826,0,l),
(886,314,l),
(824,325,l),
(726,142,l),
(194,101,l),
(537,395,o),
(820,775,o),
(820,1111,cs),
(820,1345,o),
(680,1502,o),
(451,1502,cs),
(271,1502,o),
(126,1408,o),
(26,1265,c),
(64,1231,l),
(163,1344,o),
(303,1404,o),
(405,1404,cs),
(544,1404,o),
(660,1309,o),
(660,1091,cs),
(660,716,o),
(334,252,o),
(31,36,c)
);
}
);
width = 959;
},
{
guides = (
{
angle = 141.8428;
pos = (182,1244);
},
{
angle = 31.2008;
pos = (193,36);
},
{
angle = 107.9279;
pos = (204,34);
},
{
angle = 167.3196;
pos = (1052,301);
},
{
pos = (203,36);
},
{
angle = 183.8141;
pos = (781,115);
},
{
angle = 184.0228;
pos = (545,122);
}
);
layerId = "C9B9556E-C2FD-4F62-BB40-44923C452C22";
shapes = (
{
closed = 1;
nodes = (
(32,0,l),
(952,0,l),
(1015,314,l),
(949,325,l),
(846,142,l),
(199,101,l),
(543,361,o),
(908,757,o),
(908,1106,cs),
(908,1364,o),
(723,1502,o),
(499,1502,cs),
(342,1502,o),
(162,1420,o),
(51,1225,c),
(92,1191,l),
(199,1343,o),
(350,1404,o),
(464,1404,cs),
(627,1404,o),
(742,1296,o),
(742,1081,cs),
(742,702,o),
(390,256,o),
(20,36,c)
);
}
);
width = 1063;
}
);
unicode = 50;
}
{
glyphname = three;
kernLeft = three;
kernRight = three;
layers = (
{
layerId = UUID0;
shapes = (
{
closed = 1;
nodes = (
(732,-26,o),
(1014,188,o),
(1010,488,cs),
(1008,676,o),
(840,824,o),
(564,800,c),
(748,864,o),
(938,988,o),
(938,1184,cs),
(938,1412,o),
(752,1502,o),
(536,1502,cs),
(322,1502,o),
(164,1408,o),
(100,1342,c),
(144,1270,l),
(222,1332,o),
(338,1386,o),
(494,1386,cs),
(660,1386,o),
(768,1329,o),
(766,1155,cs),
(764,995,o),
(626,920,o),
(460,854,cs),
(410,834,o),
(356,818,o),
(304,808,c),
(334,712,l),
(346,716,o),
(450,742,o),
(464,748,c),
(718,744,o),
(824,642,o),
(824,462,cs),
(824,252,o),
(628,70,o),
(278,70,cs),
(242,70,o),
(178,74,o),
(136,86,c),
(136,-8,l),
(186,-20,o),
(254,-26,o),
(304,-26,cs)
);
}
);
width = 1144;
},
{
layerId = "DEBB1CE4-A72D-4960-969E-E04A036D2FA1";
shapes = (
{
closed = 1;
nodes = (
(788,-36,o),
(1055,187,o),
(1054,469,cs),
(1053,670,o),
(851,793,o),
(587,769,c),
(786,839,o),
(977,966,o),
(977,1175,cs),
(977,1406,o),
(781,1503,o),
(532,1503,cs),
(329,1503,o),
(114,1402,o),
(48,1338,c),
(127,1198,l),
(184,1243,o),
(296,1297,o),
(425,1297,cs),
(529,1297,o),
(629,1249,o),
(629,1121,cs),
(629,1010,o),
(557,917,o),
(405,850,cs),
(356,828,o),
(299,808,o),
(243,799,c),
(288,666,l),
(319,673,o),
(373,687,o),
(404,695,c),
(587,686,o),
(679,604,o),
(679,437,cs),
(679,258,o),
(530,139,o),
(264,139,cs),
(185,139,o),
(126,149,o),
(70,167,c),
(70,1,l),
(128,-19,o),
(247,-36,o),
(339,-36,cs)
);
}
);
width = 1146;
},
{
layerId = "184155C8-9F61-4F1C-9784-DDA8EA717636";
shapes = (
{
closed = 1;
nodes = (
(692,-30,o),
(1028,142,o),
(1028,436,cs),
(1028,704,o),
(780,827,o),
(425,752,c),
(709,811,o),
(947,973,o),
(947,1207,cs),
(947,1406,o),
(750,1504,o),
(536,1504,cs),
(324,1504,o),
(155,1421,o),
(20,1290,c),
(66,1237,l),
(148,1296,o),
(223,1356,o),
(367,1356,cs),
(462,1356,o),
(553,1298,o),
(553,1140,cs),
(553,993,o),
(461,867,o),
(348,815,cs),
(309,797,o),
(248,774,o),
(204,764,c),
(212,685,l),
(245,694,o),
(314,717,o),
(353,727,c),
(516,727,o),
(618,605,o),
(618,432,cs),
(618,228,o),
(501,63,o),
(281,63,cs),
(199,63,o),
(119,71,o),
(34,105,c),
(20,37,l),
(80,4,o),
(221,-30,o),
(362,-30,cs)
);
}
);
width = 1086;
},
{
layerId = "EA2265BD-E890-48C4-9E90-A53076E780C5";
shapes = (
{
closed = 1;
nodes = (
(717,-35,o),
(975,186,o),
(975,470,cs),
(975,669,o),
(769,795,o),
(534,771,c),
(715,840,o),
(906,969,o),
(906,1176,cs),
(906,1405,o),
(708,1503,o),
(481,1503,cs),
(297,1503,o),
(100,1402,o),
(40,1338,c),
(117,1201,l),
(164,1247,o),
(259,1300,o),
(374,1300,cs),
(460,1300,o),
(555,1256,o),
(556,1123,cs),
(557,1006,o),
(492,917,o),
(360,851,cs),
(316,829,o),
(271,810,o),
(213,800,c),
(256,668,l),
(286,675,o),
(327,690,o),
(357,697,c),
(513,688,o),
(602,600,o),
(602,438,cs),
(602,257,o),
(461,136,o),
(240,136,cs),
(162,136,o),
(110,146,o),
(57,163,c),
(57,0,l),
(110,-19,o),
(226,-35,o),
(315,-35,cs)
);
}
);
width = 1030;
},
{
layerId = "0E4B6E2E-ECAB-4D06-9686-B0B40AA31834";
shapes = (
{
closed = 1;
nodes = (
(657,-26,o),
(923,188,o),
(918,488,cs),
(915,676,o),
(753,824,o),
(507,800,c),
(671,864,o),
(854,988,o),
(854,1214,cs),
(854,1412,o),
(675,1502,o),
(482,1502,cs),
(317,1502,o),
(144,1402,o),
(90,1342,c),
(133,1270,l),
(203,1332,o),
(331,1386,o),
(445,1386,cs),
(566,1386,o),
(682,1326,o),
(680,1182,cs),
(678,992,o),
(562,920,o),
(415,854,cs),
(366,832,o),
(313,818,o),
(263,808,c),
(292,712,l),
(303,716,o),
(405,742,o),
(418,748,c),
(644,744,o),
(736,640,o),
(736,460,cs),
(736,250,o),
(564,70,o),
(253,70,cs),
(221,70,o),
(164,74,o),
(126,86,c),
(126,-8,l),
(171,-20,o),
(231,-26,o),
(276,-26,cs)
);
}
);
width = 1018;
},
{
layerId = "F2B10EEF-9DDC-48CA-970D-6B8C79870881";
shapes = (
{
closed = 1;
nodes = (
(615,-36,o),
(925,132,o),
(925,426,cs),
(925,694,o),
(695,787,o),
(384,752,c),
(604,811,o),
(850,973,o),
(850,1207,cs),
(850,1406,o),
(677,1504,o),
(475,1504,cs),
(288,1504,o),
(133,1421,o),
(18,1290,c),
(50,1237,l),
(103,1296,o),
(221,1356,o),
(300,1356,cs),
(428,1356,o),
(510,1278,o),
(510,1140,cs),
(510,983,o),
(418,860,o),
(316,808,cs),
(281,790,o),
(243,777,o),
(204,767,c),
(209,695,l),
(239,704,o),
(283,717,o),
(318,727,c),
(487,717,o),
(558,595,o),
(558,442,cs),
(558,208,o),
(424,61,o),
(235,61,cs),
(150,61,o),
(98,71,o),
(21,105,c),
(8,37,l),
(63,4,o),
(180,-36,o),
(322,-36,cs)
);
}
);
width = 972;
},
{
layerId = "E96AC896-F5DF-475B-BBD9-C7FEC6A86D0E";
shapes = (
{
closed = 1;
nodes = (
(575,-33,o),
(854,139,o),
(854,458,cs),
(854,686,o),
(645,825,o),
(401,781,c),
(547,839,o),
(789,978,o),
(789,1208,cs),
(789,1412,o),
(627,1502,o),
(430,1502,cs),
(271,1502,o),
(122,1418,o),
(40,1332,c),
(65,1288,l),
(153,1363,o),
(250,1405,o),
(374,1407,cs),
(510,1409,o),
(628,1343,o),
(628,1199,cs),
(628,1064,o),
(517,898,o),
(329,821,cs),
(289,805,o),
(243,787,o),
(206,773,c),
(222,720,l),
(252,729,o),
(307,748,o),
(341,759,c),
(583,765,o),
(691,621,o),
(692,460,cs),
(694,199,o),
(537,33,o),
(241,38,cs),
(184,39,o),
(120,52,o),
(77,68,c),
(77,7,l),
(120,-11,o),
(202,-25,o),
(251,-26,cs)
);
}
);
width = 906;
},
{
layerId = "C9B9556E-C2FD-4F62-BB40-44923C452C22";
shapes = (
{
closed = 1;
nodes = (
(588,-32,o),
(924,139,o),
(924,468,cs),
(924,686,o),
(719,862,o),
(431,787,c),
(627,860,o),
(845,978,o),
(845,1208,cs),
(845,1412,o),
(656,1502,o),
(448,1502,cs),
(269,1502,o),
(111,1408,o),
(36,1332,c),
(62,1288,l),
(154,1363,o),
(288,1405,o),
(388,1407,cs),
(533,1410,o),
(668,1343,o),
(668,1199,cs),
(668,1044,o),
(557,905,o),
(351,828,cs),
(308,812,o),
(256,798,o),
(215,784,c),
(232,720,l),
(264,729,o),
(341,754,o),
(379,765,c),
(660,806,o),
(746,631,o),
(747,470,cs),
(749,209,o),
(547,33,o),
(219,38,cs),
(158,39,o),
(86,52,o),
(40,68,c),
(40,7,l),
(86,-11,o),
(177,-25,o),
(232,-26,cs)
);
}
);
width = 982;
}
);
unicode = 51;
}
{
glyphname = four;
kernLeft = four;
kernRight = four;
layers = (
{
layerId = UUID0;
shapes = (
{
closed = 1;
nodes = (
(869,0,l),
(869,322,l),
(1161,322,l),
(1161,462,l),
(869,448,l),
(869,854,l),
(723,842,l),
(723,442,l),
(213,414,l),
(289,532,l),
(767,1421,l),
(651,1486,l),
(603,1486,l),
(439,1152,o),
(273,768,o),
(55,402,c),
(97,322,l),
(723,322,l),
(723,0,l)
);
}
);
width = 1206;
},
{
layerId = "DEBB1CE4-A72D-4960-969E-E04A036D2FA1";
shapes = (
{
closed = 1;
nodes = (
(1034,0,l),
(1034,261,l),
(1263,261,l),
(1263,486,l),
(1034,472,l),
(1034,851,l),
(776,833,l),
(748,453,l),
(321,415,l),
(449,585,l),
(861,1374,l),
(586,1501,l),
(506,1501,l),
(392,1187,o),
(198,649,o),
(45,375,c),
(120,261,l),
(746,261,l),
(746,0,l)
);
}
);
width = 1295;
},
{
guides = (
{
angle = 90;
pos = (954,1218);
},
{
angle = 3.4522;
pos = (483,361);
},
{
angle = 88.3091;
pos = (708,407);
}
);
layerId = "184155C8-9F61-4F1C-9784-DDA8EA717636";
shapes = (
{
closed = 1;
nodes = (
(1056,0,l),
(1056,301,l),
(1216,301,l),
(1216,465,l),
(1055,455,l),
(1055,867,l),
(720,833,l),
(696,415,l),
(265,369,l),
(371,514,l),
(912,1341,l),
(625,1501,l),
(522,1501,l),
(409,1217,o),
(185,776,o),
(32,462,c),
(106,301,l),
(694,301,l),
(694,0,l)
);
}
);
width = 1258;
},
{
layerId = "EA2265BD-E890-48C4-9E90-A53076E780C5";
shapes = (
{
closed = 1;
nodes = (
(990,0,l),
(990,281,l),
(1195,281,l),
(1195,509,l),
(990,495,l),
(990,851,l),
(743,833,l),
(711,476,l),
(306,448,l),
(423,582,l),
(830,1366,l),
(566,1501,l),
(498,1501,l),
(404,1218,o),
(165,666,o),
(40,396,c),
(115,281,l),
(708,281,l),
(708,0,l)
);
}
);
width = 1230;
},
{
layerId = "0E4B6E2E-ECAB-4D06-9686-B0B40AA31834";
shapes = (
{
closed = 1;
nodes = (
(819,0,l),
(819,322,l),
(1030,322,l),
(1030,462,l),
(819,448,l),
(819,854,l),
(672,842,l),
(672,442,l),
(198,414,l),
(264,532,l),
(701,1424,l),
(592,1486,l),
(539,1486,l),
(400,1152,o),
(250,768,o),
(55,402,c),
(103,322,l),
(672,322,l),
(672,0,l)
);
}
);
width = 1074;
},
{
layerId = "F2B10EEF-9DDC-48CA-970D-6B8C79870881";
shapes = (
{
closed = 1;
nodes = (
(942,0,l),
(942,301,l),
(1098,301,l),
(1098,464,l),
(940,453,l),
(941,847,l),
(644,813,l),
(621,415,l),
(227,362,l),
(420,690,l),
(822,1341,l),
(543,1501,l),
(491,1501,l),
(384,1217,o),
(160,776,o),
(16,462,c),
(85,301,l),
(620,301,l),
(620,0,l)
);
}
);
width = 1119;
},
{
layerId = "E96AC896-F5DF-475B-BBD9-C7FEC6A86D0E";
shapes = (
{
closed = 1;
nodes = (
(787,0,l),
(787,322,l),
(980,322,l),
(979,438,l),
(786,421,l),
(787,864,l),
(655,852,l),
(644,415,l),
(91,379,l),
(269,695,l),
(622,1424,l),
(521,1486,l),
(456,1486,l),
(340,1152,o),
(200,768,o),
(27,402,c),
(64,322,l),
(645,322,l),
(645,0,l)
);
}
);
width = 1020;
},
{
guides = (
{
angle = 183.4908;
pos = (82,379);
}
);
layerId = "C9B9556E-C2FD-4F62-BB40-44923C452C22";
shapes = (
{
closed = 1;
nodes = (
(819,0,l),
(819,322,l),
(1063,322,l),
(1062,438,l),
(818,421,l),
(819,854,l),
(673,842,l),
(672,415,l),
(86,379,l),
(307,695,l),
(720,1424,l),
(616,1486,l),
(531,1486,l),
(381,1152,o),
(246,768,o),
(30,402,c),
(68,322,l),
(673,322,l),
(673,0,l)
);
}
);
width = 1093;
}
);
unicode = 52;
}
{
glyphname = six;
kernLeft = six;
kernRight = six;
layers = (
{
layerId = UUID0;
shapes = (
{
closed = 1;
nodes = (
(914,-26,o),
(1106,214,o),
(1106,496,cs),
(1106,768,o),
(954,978,o),
(648,978,cs),
(488,978,o),
(372,894,o),
(312,820,c),
(388,1114,o),
(552,1372,o),
(914,1496,c),
(876,1572,l),
(432,1476,o),
(110,1056,o),
(110,604,cs),
(110,252,o),
(280,-26,o),
(604,-26,cs)
);
},
{
closed = 1;
nodes = (
(810,874,o),
(934,746,o),
(934,460,cs),
(934,270,o),
(826,64,o),
(616,64,cs),
(372,64,o),
(286,330,o),
(286,564,cs),
(286,650,o),
(288,668,o),
(290,686,c),
(324,754,o),
(438,874,o),
(646,874,cs)
);
}
);
width = 1196;
},
{
layerId = "DEBB1CE4-A72D-4960-969E-E04A036D2FA1";
shapes = (
{
closed = 1;
nodes = (
(986,-34,o),
(1177,184,o),
(1177,478,cs),
(1177,764,o),
(1012,942,o),
(752,942,cs),
(614,942,o),
(528,894,o),
(468,844,c),
(542,1098,o),
(696,1316,o),
(982,1402,c),
(916,1522,l),
(522,1476,o),
(90,1092,o),
(90,562,cs),
(90,226,o),
(274,-34,o),
(628,-34,cs)
);
},
{
closed = 1;
nodes = (
(765,776,o),
(831,674,o),
(831,418,cs),
(831,210,o),
(778,100,o),
(640,100,cs),
(492,100,o),
(428,262,o),
(428,532,cs),
(428,596,o),
(432,642,o),
(436,684,c),
(472,724,o),
(534,776,o),
(643,776,cs)
);
}
);
width = 1242;
},
{
layerId = "184155C8-9F61-4F1C-9784-DDA8EA717636";
shapes = (
{
closed = 1;
nodes = (
(954,-35,o),
(1224,139,o),
(1224,514,cs),
(1224,814,o),
(1035,948,o),
(827,948,cs),
(690,948,o),
(552,884,o),
(471,752,c),
(503,1036,o),
(624,1371,o),
(999,1457,c),
(970,1517,l),
(447,1499,o),
(63,1084,o),
(63,603,cs),
(63,222,o),
(273,-35,o),
(644,-35,cs)
);
},
{
closed = 1;
nodes = (
(784,790,o),
(829,601,o),
(829,405,cs),
(829,198,o),
(777,30,o),
(645,30,cs),
(526,30,o),
(463,161,o),
(463,510,cs),
(463,589,o),
(467,652,o),
(471,697,c),
(503,734,o),
(570,790,o),
(648,790,cs)
);
}
);
width = 1281;
},
{
layerId = "EA2265BD-E890-48C4-9E90-A53076E780C5";
shapes = (
{
closed = 1;
nodes = (
(949,-33,o),
(1130,206,o),
(1130,498,cs),
(1130,783,o),
(971,943,o),
(737,943,cs),
(613,943,o),
(533,894,o),
(477,843,c),
(523,1100,o),
(640,1317,o),
(962,1406,c),
(898,1524,l),
(474,1475,o),
(90,1109,o),
(90,613,cs),
(90,228,o),
(274,-33,o),
(608,-33,cs)
);
},
{
closed = 1;
nodes = (
(732,780,o),
(794,676,o),
(794,439,cs),
(794,212,o),
(747,99,o),
(627,99,cs),
(501,99,o),
(436,265,o),
(436,534,cs),
(436,589,o),
(439,638,o),
(444,684,c),
(480,727,o),
(532,780,o),
(621,780,cs)
);
}
);
width = 1208;
},
{
layerId = "0E4B6E2E-ECAB-4D06-9686-B0B40AA31834";
shapes = (
{
closed = 1;
nodes = (
(886,-26,o),
(1065,214,o),
(1065,496,cs),
(1065,768,o),
(924,978,o),
(633,978,cs),
(481,978,o),
(375,894,o),
(318,820,c),
(390,1114,o),
(544,1372,o),
(888,1496,c),
(850,1572,l),
(428,1476,o),
(115,1056,o),
(115,604,cs),
(115,252,o),
(283,-26,o),
(591,-26,cs)
);
},
{
closed = 1;
nodes = (
(785,874,o),
(891,746,o),
(891,460,cs),
(891,270,o),
(800,64,o),
(603,64,cs),
(373,64,o),
(293,330,o),
(293,564,cs),
(293,650,o),
(295,668,o),
(297,686,c),
(329,754,o),
(435,874,o),
(631,874,cs)
);
}
);
width = 1155;
},
{
layerId = "F2B10EEF-9DDC-48CA-970D-6B8C79870881";
shapes = (
{
closed = 1;
nodes = (
(837,-38,o),
(1075,155,o),
(1075,511,cs),
(1075,805,o),
(909,939,o),
(725,939,cs),
(605,939,o),
(479,875,o),
(408,742,c),
(436,1029,o),
(544,1362,o),
(871,1447,c),
(844,1507,l),
(400,1489,o),
(46,1075,o),
(46,594,cs),
(46,252,o),
(232,-38,o),
(564,-38,cs)
);
},
{
closed = 1;
nodes = (
(669,781,o),
(717,591,o),
(717,401,cs),
(717,214,o),
(668,27,o),
(558,27,cs),
(459,27,o),
(401,178,o),
(401,506,cs),
(401,584,o),
(405,643,o),
(408,688,c),
(434,725,o),
(491,781,o),
(555,781,cs)
);
}
);
width = 1113;
},
{
layerId = "E96AC896-F5DF-475B-BBD9-C7FEC6A86D0E";
shapes = (
{
closed = 1;
nodes = (
(826,-27,o),
(985,254,o),
(985,522,cs),
(985,818,o),
(816,976,o),
(594,976,cs),
(474,976,o),
(345,918,o),
(255,761,c),
(295,1088,o),
(473,1398,o),
(818,1522,c),
(795,1572,l),
(372,1476,o),
(75,1056,o),
(75,604,cs),
(75,312,o),
(210,-25,o),
(519,-26,cs)
);
},
{
closed = 1;
nodes = (
(755,907,o),
(820,708,o),
(820,497,cs),
(820,259,o),
(744,19,o),
(530,19,cs),
(299,19,o),
(248,388,o),
(248,552,cs),
(248,628,o),
(249,705,o),
(251,723,c),
(310,813,o),
(430,910,o),
(556,909,cs)
);
}
);
width = 1044;
},
{
layerId = "C9B9556E-C2FD-4F62-BB40-44923C452C22";
shapes = (
{
closed = 1;
nodes = (
(903,-27,o),
(1070,254,o),
(1070,522,cs),
(1070,818,o),
(892,976,o),
(653,976,cs),
(524,976,o),
(377,918,o),
(280,761,c),
(324,1088,o),
(523,1398,o),
(894,1522,c),
(869,1572,l),
(414,1476,o),
(100,1056,o),
(100,604,cs),
(100,322,o),
(240,-25,o),
(572,-26,cs)
);
},
{
closed = 1;
nodes = (
(826,908,o),
(898,708,o),
(898,497,cs),
(898,259,o),
(814,19,o),
(584,19,cs),
(335,19,o),
(273,388,o),
(273,552,cs),
(273,628,o),
(274,705,o),
(276,723,c),
(340,813,o),
(471,910,o),
(612,909,cs)
);
}
);
width = 1160;
}
);
unicode = 54;
}
{
glyphname = seven;
kernLeft = seven;
kernRight = seven;
layers = (
{
layerId = UUID0;
shapes = (
{
closed = 1;
nodes = (
(1046,1442,l),
(1012,1486,l),
(108,1486,l),
(68,1120,l),
(174,1102,l),
(244,1352,l),
(896,1358,l),
(720,894,o),
(540,436,o),
(360,0,c),
(560,-2,l)
);
}
);
width = 1102;
},
{
layerId = "DEBB1CE4-A72D-4960-969E-E04A036D2FA1";
shapes = (
{
closed = 1;
nodes = (
(1174,1410,l),
(1114,1486,l),
(145,1486,l),
(91,1012,l),
(275,974,l),
(394,1290,l),
(875,1304,l),
(731,926,o),
(521,474,o),
(297,0,c),
(694,0,l)
);
}
);
width = 1234;
},
{
guides = (
{
angle = 3.2983;
pos = (792,1432);
},
{
pos = (-736,1250);
},
{
pos = (555,1195);
}
);
layerId = "184155C8-9F61-4F1C-9784-DDA8EA717636";
shapes = (
{
closed = 1;
nodes = (
(1107,1435,l),
(1058,1486,l),
(93,1486,l),
(26,1003,l),
(102,987,l),
(184,1178,l),
(959,1178,l),
(740,824,o),
(526,451,o),
(232,0,c),
(646,0,l)
);
}
);
width = 1105;
},
{
layerId = "EA2265BD-E890-48C4-9E90-A53076E780C5";
shapes = (
{
closed = 1;
nodes = (
(1076,1412,l),
(1017,1486,l),
(120,1486,l),
(70,1014,l),
(238,980,l),
(362,1281,l),
(820,1305,l),
(671,924,o),
(479,483,o),
(268,0,c),
(648,0,l)
);
}
);
width = 1131;
},
{
layerId = "0E4B6E2E-ECAB-4D06-9686-B0B40AA31834";
shapes = (
{
closed = 1;
nodes = (
(1004,1442,l),
(970,1486,l),
(118,1486,l),
(78,1120,l),
(176,1102,l),
(246,1352,l),
(864,1358,l),
(688,894,o),
(507,436,o),
(327,0,c),
(518,-2,l)
);
}
);
width = 1059;
},
{
layerId = "F2B10EEF-9DDC-48CA-970D-6B8C79870881";
shapes = (
{
closed = 1;
nodes = (
(944,1413,l),
(871,1486,l),
(82,1486,l),
(26,1022,l),
(99,1011,l),
(181,1185,l),
(804,1185,l),
(608,824,o),
(389,447,o),
(165,0,c),
(560,0,l)
);
}
);
width = 942;
},
{
layerId = "E96AC896-F5DF-475B-BBD9-C7FEC6A86D0E";
shapes = (
{
closed = 1;
nodes = (
(913,1442,l),
(879,1486,l),
(105,1486,l),
(65,1119,l),
(108,1111,l),
(188,1352,l),
(825,1358,l),
(648,908,o),
(497,436,o),
(297,0,c),
(464,-2,l)
);
}
);
width = 936;
},
{
layerId = "C9B9556E-C2FD-4F62-BB40-44923C452C22";
shapes = (
{
closed = 1;
nodes = (
(1016,1442,l),
(982,1486,l),
(108,1486,l),
(68,1119,l),
(111,1111,l),
(191,1352,l),
(928,1358,l),
(741,908,o),
(529,436,o),
(329,0,c),
(516,-2,l)
);
}
);
width = 1066;
}
);
unicode = 55;
}
{
glyphname = colon;
kernLeft = colon;
kernRight = colon;
layers = (
{
layerId = UUID0;
shapes = (
{
closed = 1;
nodes = (
(400,810,o),
(462,864,o),
(462,942,cs),
(462,1000,o),
(430,1054,o),
(354,1054,cs),
(288,1054,o),
(224,998,o),
(224,922,cs),
(224,854,o),
(274,810,o),
(334,810,cs)
);
},
{
closed = 1;
nodes = (
(400,-22,o),
(462,32,o),
(462,110,cs),
(462,168,o),
(430,222,o),
(354,222,cs),
(288,222,o),
(224,166,o),
(224,90,cs),
(224,22,o),
(274,-22,o),
(334,-22,cs)
);
}
);
width = 686;
},
{
layerId = "DEBB1CE4-A72D-4960-969E-E04A036D2FA1";
shapes = (
{
closed = 1;
nodes = (
(461,794,o),
(546,860,o),
(546,975,cs),
(546,1061,o),
(482,1143,o),
(370,1143,cs),
(260,1143,o),
(169,1069,o),
(169,960,cs),
(169,863,o),
(252,794,o),
(340,794,cs)
);
},
{
closed = 1;
nodes = (
(461,-16,o),
(546,50,o),
(546,165,cs),
(546,251,o),
(482,333,o),
(370,333,cs),
(260,333,o),
(169,259,o),
(169,151,cs),
(169,53,o),
(252,-16,o),
(340,-16,cs)
);
}
);
width = 716;
},
{
layerId = "184155C8-9F61-4F1C-9784-DDA8EA717636";
shapes = (
{
closed = 1;
nodes = (
(377,712,o),
(451,772,o),
(451,877,cs),
(451,955,o),
(396,1029,o),
(295,1029,cs),
(195,1029,o),
(116,962,o),
(116,864,cs),
(116,775,o),
(187,712,o),
(267,712,cs)
);
},
{
closed = 1;
nodes = (
(378,-16,o),
(452,44,o),
(452,149,cs),
(452,227,o),
(397,301,o),
(296,301,cs),
(196,301,o),
(117,234,o),
(117,136,cs),
(117,47,o),
(188,-16,o),
(268,-16,cs)
);
}
);
width = 568;
},
{
layerId = "EA2265BD-E890-48C4-9E90-A53076E780C5";
shapes = (
{
closed = 1;
nodes = (
(461,794,o),
(546,860,o),
(546,975,cs),
(546,1061,o),
(482,1143,o),
(370,1143,cs),
(260,1143,o),
(169,1069,o),
(169,960,cs),
(169,863,o),
(252,794,o),
(340,794,cs)
);
},
{
closed = 1;
nodes = (
(461,-16,o),
(546,50,o),
(546,165,cs),
(546,251,o),
(482,333,o),
(370,333,cs),
(260,333,o),
(169,259,o),
(169,151,cs),
(169,53,o),
(252,-16,o),
(340,-16,cs)
);
}
);
width = 716;
},
{
layerId = "0E4B6E2E-ECAB-4D06-9686-B0B40AA31834";
shapes = (
{
closed = 1;
nodes = (
(400,810,o),
(462,864,o),
(462,942,cs),
(462,1000,o),
(430,1054,o),
(354,1054,cs),
(288,1054,o),
(224,998,o),
(224,922,cs),
(224,854,o),
(274,810,o),
(334,810,cs)
);
},
{
closed = 1;
nodes = (
(400,-22,o),
(462,32,o),
(462,110,cs),
(462,168,o),
(430,222,o),
(354,222,cs),
(288,222,o),
(224,166,o),
(224,90,cs),
(224,22,o),
(274,-22,o),
(334,-22,cs)
);
}
);
width = 686;
},
{
layerId = "F2B10EEF-9DDC-48CA-970D-6B8C79870881";
shapes = (
{
closed = 1;
nodes = (
(320,710,o),
(385,770,o),
(385,875,cs),
(385,953,o),
(336,1027,o),
(247,1027,cs),
(158,1027,o),
(88,960,o),
(88,862,cs),
(88,773,o),
(151,710,o),
(222,710,cs)
);
},
{
closed = 1;
nodes = (
(320,-16,o),
(385,44,o),
(385,149,cs),
(385,227,o),
(336,301,o),
(247,301,cs),
(158,301,o),
(88,234,o),
(88,136,cs),
(88,47,o),
(151,-16,o),
(222,-16,cs)
);
}
);
width = 473;
},
{
layerId = "E96AC896-F5DF-475B-BBD9-C7FEC6A86D0E";
shapes = (
{
closed = 1;
nodes = (
(231,765,o),
(274,809,o),
(274,872,cs),
(274,919,o),
(251,963,o),
(199,963,cs),
(152,963,o),
(108,917,o),
(108,856,cs),
(108,801,o),
(143,765,o),
(185,765,cs)
);
},
{
closed = 1;
nodes = (
(231,-22,o),
(274,22,o),
(274,85,cs),
(274,132,o),
(251,176,o),
(199,176,cs),
(152,176,o),
(108,130,o),
(108,69,cs),
(108,14,o),
(143,-22,o),
(185,-22,cs)
);
}
);
width = 382;
},
{
layerId = "C9B9556E-C2FD-4F62-BB40-44923C452C22";
shapes = (
{
closed = 1;
nodes = (
(273,765,o),
(323,809,o),
(323,872,cs),
(323,919,o),
(297,963,o),
(236,963,cs),
(182,963,o),
(131,917,o),
(131,856,cs),
(131,801,o),
(171,765,o),
(220,765,cs)
);
},
{
closed = 1;
nodes = (
(273,-22,o),
(323,22,o),
(323,85,cs),
(323,132,o),
(297,176,o),
(236,176,cs),
(182,176,o),
(131,130,o),
(131,69,cs),
(131,14,o),
(171,-22,o),
(220,-22,cs)
);
}
);
width = 454;
}
);
unicode = 58;
}
{
glyphname = semicolon;
kernLeft = colon;
kernRight = colon;
layers = (
{
layerId = UUID0;
shapes = (
{
closed = 1;
nodes = (
(404,810,o),
(466,864,o),
(466,942,cs),
(466,1000,o),
(434,1054,o),
(358,1054,cs),
(292,1054,o),
(228,998,o),
(228,922,cs),
(228,854,o),
(278,810,o),
(338,810,cs)
);
},
{
closed = 1;
nodes = (
(336,278,ls),
(284,278,o),
(238,240,o),
(238,176,cs),
(238,58,o),
(334,64,o),
(334,-30,cs),
(334,-174,o),
(256,-334,o),
(210,-370,c),
(210,-388,l),
(268,-428,l),
(270,-428,l),
(366,-372,o),
(484,-184,o),
(484,48,cs),
(484,198,o),
(426,278,o),
(344,278,c)
);
}
);
width = 502;
},
{
layerId = "DEBB1CE4-A72D-4960-969E-E04A036D2FA1";
shapes = (
{
closed = 1;
nodes = (
(442,794,o),
(528,860,o),
(528,975,cs),
(528,1061,o),
(464,1143,o),
(352,1143,cs),
(242,1143,o),
(151,1069,o),
(151,960,cs),
(151,863,o),
(234,794,o),
(322,794,cs)
);
},
{
closed = 1;
nodes = (
(332,358,ls),
(234,358,o),
(164,298,o),
(164,204,cs),
(164,54,o),
(284,54,o),
(284,-49,cs),
(284,-170,o),
(229,-346,o),
(164,-401,c),
(164,-434,l),
(261,-499,l),
(263,-499,l),
(372,-444,o),
(540,-181,o),
(540,82,cs),
(540,238,o),
(448,358,o),
(344,358,c)
);
}
);
width = 620;
},
{
layerId = "184155C8-9F61-4F1C-9784-DDA8EA717636";
shapes = (
{
closed = 1;
nodes = (
(371,712,o),
(445,772,o),
(445,877,cs),
(445,955,o),
(390,1029,o),
(289,1029,cs),
(189,1029,o),
(110,962,o),
(110,864,cs),
(110,775,o),
(181,712,o),
(261,712,cs)
);
},
{
closed = 1;
nodes = (
(268,319,ls),
(177,319,o),
(122,265,o),
(122,179,cs),
(122,35,o),
(292,40,o),
(292,-81,cs),
(292,-194,o),
(234,-307,o),
(145,-398,c),
(145,-406,l),
(177,-427,l),
(179,-426,l),
(326,-345,o),
(464,-155,o),
(464,68,cs),
(464,210,o),
(383,319,o),
(279,319,c)
);
}
);
width = 562;
},
{
layerId = "EA2265BD-E890-48C4-9E90-A53076E780C5";
shapes = (
{
closed = 1;
nodes = (
(442,794,o),
(528,860,o),
(528,975,cs),
(528,1061,o),
(464,1143,o),
(352,1143,cs),
(242,1143,o),
(151,1069,o),
(151,960,cs),
(151,863,o),
(234,794,o),
(322,794,cs)
);
},
{
closed = 1;
nodes = (
(332,358,ls),
(234,358,o),
(164,298,o),
(164,204,cs),
(164,54,o),
(284,54,o),
(284,-49,cs),
(284,-170,o),
(229,-346,o),
(164,-401,c),
(164,-434,l),
(261,-499,l),
(263,-499,l),
(372,-444,o),
(540,-181,o),
(540,82,cs),
(540,238,o),
(448,358,o),
(344,358,c)
);
}
);
width = 620;
},
{
layerId = "0E4B6E2E-ECAB-4D06-9686-B0B40AA31834";
shapes = (
{
closed = 1;
nodes = (
(404,810,o),
(466,864,o),
(466,942,cs),
(466,1000,o),
(434,1054,o),
(358,1054,cs),
(292,1054,o),
(228,998,o),
(228,922,cs),
(228,854,o),
(278,810,o),
(338,810,cs)
);
},
{
closed = 1;
nodes = (
(336,278,ls),
(284,278,o),
(238,240,o),
(238,176,cs),
(238,58,o),
(334,64,o),
(334,-30,cs),
(334,-174,o),
(256,-334,o),
(210,-370,c),
(210,-388,l),
(268,-428,l),
(270,-428,l),
(366,-372,o),
(484,-184,o),
(484,48,cs),
(484,198,o),
(426,278,o),
(344,278,c)
);
}
);
width = 502;
},
{
layerId = "F2B10EEF-9DDC-48CA-970D-6B8C79870881";
shapes = (
{
closed = 1;
nodes = (
(320,710,o),
(385,770,o),
(385,875,cs),
(385,953,o),
(336,1027,o),
(247,1027,cs),
(158,1027,o),
(88,960,o),
(88,862,cs),
(88,773,o),
(151,710,o),
(222,710,cs)
);
},
{
closed = 1;
nodes = (
(219,319,ls),
(142,319,o),
(94,262,o),
(94,181,cs),
(94,42,o),
(242,22,o),
(242,-89,cs),
(242,-195,o),
(173,-306,o),
(99,-397,c),
(99,-405,l),
(131,-427,l),
(133,-426,l),
(259,-343,o),
(394,-156,o),
(394,65,cs),
(394,212,o),
(324,319,o),
(228,319,c)
);
}
);
width = 473;
},
{
layerId = "E96AC896-F5DF-475B-BBD9-C7FEC6A86D0E";
shapes = (
{
closed = 1;
nodes = (
(231,765,o),
(274,809,o),
(274,872,cs),
(274,919,o),
(251,963,o),
(199,963,cs),
(152,963,o),
(108,917,o),
(108,856,cs),
(108,801,o),
(143,765,o),
(185,765,cs)
);
},
{
closed = 1;
nodes = (
(175,220,ls),
(139,220,o),
(110,190,o),
(110,138,cs),
(110,43,o),
(193,35,o),
(193,-48,cs),
(193,-149,o),
(146,-254,o),
(94,-309,c),
(94,-317,l),
(124,-338,l),
(125,-338,l),
(203,-276,o),
(281,-129,o),
(281,35,cs),
(281,156,o),
(231,220,o),
(181,220,c)
);
}
);
width = 394;
},
{
layerId = "C9B9556E-C2FD-4F62-BB40-44923C452C22";
shapes = (
{
closed = 1;
nodes = (
(270,765,o),
(320,809,o),
(320,872,cs),
(320,919,o),
(294,963,o),
(233,963,cs),
(179,963,o),
(128,917,o),
(128,856,cs),
(128,801,o),
(168,765,o),
(217,765,cs)
);
},
{
closed = 1;
nodes = (
(204,220,ls),
(162,220,o),
(125,190,o),
(125,138,cs),
(125,43,o),
(232,35,o),
(232,-46,cs),
(232,-162,o),
(165,-256,o),
(102,-311,c),
(102,-319,l),
(130,-338,l),
(131,-338,l),
(236,-279,o),
(323,-126,o),
(323,35,cs),
(323,156,o),
(273,220,o),
(210,220,c)
);
}
);
width = 458;
}
);
unicode = 59;
}
{
color = 0;
glyphname = less;
kernLeft = less;
kernRight = less;
layers = (
{
layerId = UUID0;
shapes = (
{
closed = 1;
nodes = (
(164,616,l),
(164,510,l),
(1110,16,l),
(1110,168,l),
(310,564,l),
(1110,962,l),
(1110,1112,l)
);
}
);
width = 1338;
},
{
layerId = "DEBB1CE4-A72D-4960-969E-E04A036D2FA1";
shapes = (
{
closed = 1;
nodes = (
(164,625,l),
(164,501,l),
(1110,16,l),
(1110,246,l),
(461,564,l),
(1110,876,l),
(1110,1112,l)
);
}
);
width = 1338;
},
{
layerId = "184155C8-9F61-4F1C-9784-DDA8EA717636";
shapes = (
{
closed = 1;
nodes = (
(154,597,l),
(154,526,l),
(1100,77,l),
(1100,170,l),
(262,562,l),
(1100,960,l),
(1100,1051,l)
);
}
);
width = 1318;
},
{
layerId = "EA2265BD-E890-48C4-9E90-A53076E780C5";
shapes = (
{
closed = 1;
nodes = (
(144,625,l),
(144,501,l),
(976,16,l),
(976,246,l),
(440,564,l),
(976,876,l),
(976,1112,l)
);
}
);
width = 1184;
},
{
layerId = "0E4B6E2E-ECAB-4D06-9686-B0B40AA31834";
shapes = (
{
closed = 1;
nodes = (
(144,616,l),
(144,510,l),
(966,16,l),
(966,165,l),
(286,563,l),
(966,962,l),
(966,1112,l)
);
}
);
width = 1167;
},
{
layerId = "F2B10EEF-9DDC-48CA-970D-6B8C79870881";
shapes = (
{
closed = 1;
nodes = (
(144,597,l),
(144,526,l),
(1046,77,l),
(1046,167,l),
(245,561,l),
(1046,962,l),
(1046,1051,l)
);
}
);
width = 1254;
},
{
layerId = "E96AC896-F5DF-475B-BBD9-C7FEC6A86D0E";
shapes = (
{
closed = 1;
nodes = (
(144,597,l),
(144,526,l),
(995,77,l),
(995,170,l),
(241,562,l),
(995,960,l),
(995,1051,l)
);
}
);
width = 1203;
},
{
layerId = "C9B9556E-C2FD-4F62-BB40-44923C452C22";
shapes = (
{
closed = 1;
nodes = (
(154,597,l),
(154,526,l),
(1100,77,l),
(1100,170,l),
(262,562,l),
(1100,960,l),
(1100,1051,l)
);
}
);
width = 1318;
}
);
unicode = 60;
}
{
color = 0;
glyphname = greater;
kernLeft = greater;
kernRight = greater;
layers = (
{
layerId = UUID0;
shapes = (
{
closed = 1;
nodes = (
(1174,654,l),
(228,1150,l),
(228,1000,l),
(1028,602,l),
(228,206,l),
(228,54,l),
(1174,548,l)
);
}
);
width = 1338;
},
{
layerId = "DEBB1CE4-A72D-4960-969E-E04A036D2FA1";
shapes = (
{
closed = 1;
nodes = (
(1174,663,l),
(228,1150,l),
(228,914,l),
(877,602,l),
(228,284,l),
(228,54,l),
(1174,539,l)
);
}
);
width = 1338;
},
{
layerId = "184155C8-9F61-4F1C-9784-DDA8EA717636";
shapes = (
{
closed = 1;
nodes = (
(1164,596,l),
(218,1050,l),
(218,959,l),
(1056,561,l),
(218,169,l),
(218,76,l),
(1164,525,l)
);
}
);
width = 1318;
},
{
layerId = "EA2265BD-E890-48C4-9E90-A53076E780C5";
shapes = (
{
closed = 1;
nodes = (
(1040,663,l),
(208,1150,l),
(208,914,l),
(744,602,l),
(208,284,l),
(208,54,l),
(1040,539,l)
);
}
);
width = 1184;
},
{
layerId = "0E4B6E2E-ECAB-4D06-9686-B0B40AA31834";
shapes = (
{
closed = 1;
nodes = (
(1030,654,l),
(208,1150,l),
(208,1000,l),
(888,601,l),
(208,203,l),
(208,54,l),
(1030,548,l)
);
}
);
width = 1174;
},
{
layerId = "F2B10EEF-9DDC-48CA-970D-6B8C79870881";
shapes = (
{
closed = 1;
nodes = (
(1059,597,l),
(208,1051,l),
(208,960,l),
(962,562,l),
(208,170,l),
(208,77,l),
(1059,526,l)
);
}
);
width = 1254;
},
{
layerId = "E96AC896-F5DF-475B-BBD9-C7FEC6A86D0E";
shapes = (
{
closed = 1;
nodes = (
(1059,597,l),
(208,1051,l),
(208,960,l),
(962,562,l),
(208,170,l),
(208,77,l),
(1059,526,l)
);
}
);
width = 1203;
},
{
layerId = "C9B9556E-C2FD-4F62-BB40-44923C452C22";
shapes = (
{
closed = 1;
nodes = (
(1164,596,l),
(218,1050,l),
(218,959,l),
(1056,561,l),
(218,169,l),
(218,76,l),
(1164,525,l)
);
}
);
width = 1318;
}
);
unicode = 62;
}
{
glyphname = question;
kernLeft = question;
kernRight = question;
layers = (
{
layerId = UUID0;
shapes = (
{
closed = 1;
nodes = (
(462,468,l),
(456,536,o),
(452,614,o),
(452,704,cs),
(452,722,o),
(452,750,o),
(454,766,c),
(526,914,o),
(872,1032,o),
(872,1336,cs),
(872,1574,o),
(742,1810,o),
(332,1810,cs),
(256,1810,o),
(150,1792,o),
(108,1768,c),
(134,1664,l),
(176,1682,o),
(254,1690,o),
(306,1690,cs),
(604,1690,o),
(740,1504,o),
(740,1316,cs),
(740,1196,o),
(642,1094,o),
(582,1048,cs),
(456,952,o),
(284,912,o),
(284,748,c),
(288,678,o),
(296,576,o),
(340,468,c)
);
},
{
closed = 1;
nodes = (
(412,-22,o),
(476,30,o),
(476,108,cs),
(476,166,o),
(442,218,o),
(362,218,cs),
(298,218,o),
(230,162,o),
(230,88,cs),
(230,20,o),
(284,-22,o),
(342,-22,cs)
);
}
);
width = 952;
},
{
layerId = "DEBB1CE4-A72D-4960-969E-E04A036D2FA1";
shapes = (
{
closed = 1;
nodes = (
(515,523,l),
(499,611,o),
(495,700,o),
(495,775,cs),
(493,805,o),
(502,830,o),
(509,841,c),
(609,980,o),
(944,1022,o),
(944,1349,cs),
(944,1581,o),
(789,1816,o),
(372,1816,cs),
(206,1816,o),
(103,1783,o),
(52,1756,c),
(98,1578,l),
(132,1596,o),
(193,1616,o),
(276,1616,cs),
(518,1616,o),
(617,1460,o),
(617,1313,cs),
(617,1217,o),
(562,1122,o),
(501,1086,cs),
(280,964,o),
(223,891,o),
(223,786,c),
(229,684,o),
(284,582,o),
(322,523,c)
);
},
{
closed = 1;
nodes = (
(518,-16,o),
(604,49,o),
(604,164,cs),
(604,249,o),
(539,330,o),
(427,330,cs),
(317,330,o),
(227,257,o),
(227,149,cs),
(227,51,o),
(310,-16,o),
(397,-16,cs)
);
}
);
width = 987;
},
{
layerId = "184155C8-9F61-4F1C-9784-DDA8EA717636";
shapes = (
{
closed = 1;
nodes = (
(414,456,l),
(398,544,o),
(386,661,o),
(386,738,cs),
(386,774,o),
(393,807,o),
(408,832,cs),
(456,913,o),
(894,1003,o),
(894,1322,cs),
(894,1590,o),
(695,1776,o),
(343,1776,cs),
(199,1776,o),
(88,1741,o),
(42,1714,c),
(64,1638,l),
(100,1655,o),
(169,1669,o),
(239,1669,cs),
(447,1669,o),
(568,1499,o),
(568,1279,cs),
(568,1110,o),
(520,999,o),
(443,961,cs),
(291,885,o),
(254,853,o),
(255,782,cs),
(256,682,o),
(323,515,o),
(353,456,c)
);
},
{
closed = 1;
nodes = (
(473,-16,o),
(547,44,o),
(547,149,cs),
(547,227,o),
(492,301,o),
(391,301,cs),
(291,301,o),
(212,234,o),
(212,136,cs),
(212,47,o),
(283,-16,o),
(363,-16,cs)
);
}
);
width = 924;
},
{
layerId = "EA2265BD-E890-48C4-9E90-A53076E780C5";
shapes = (
{
closed = 1;
nodes = (
(505,523,l),
(489,611,o),
(485,700,o),
(485,775,cs),
(483,805,o),
(492,830,o),
(499,841,c),
(599,980,o),
(934,1022,o),
(934,1349,cs),
(934,1581,o),
(779,1816,o),
(362,1816,cs),
(196,1816,o),
(93,1783,o),
(42,1756,c),
(88,1578,l),
(122,1596,o),
(183,1616,o),
(266,1616,cs),
(508,1616,o),
(607,1460,o),
(607,1313,cs),
(607,1217,o),
(552,1122,o),
(491,1086,cs),
(270,964,o),
(213,891,o),
(213,786,c),
(219,684,o),
(274,582,o),
(312,523,c)
);
},
{
closed = 1;
nodes = (
(508,-16,o),
(594,49,o),
(594,164,cs),
(594,249,o),
(529,330,o),
(417,330,cs),
(307,330,o),
(217,257,o),
(217,149,cs),
(217,51,o),
(300,-16,o),
(387,-16,cs)
);
}
);
width = 977;
},
{
layerId = "0E4B6E2E-ECAB-4D06-9686-B0B40AA31834";
shapes = (
{
closed = 1;
nodes = (
(462,468,l),
(456,536,o),
(452,614,o),
(452,704,cs),
(452,722,o),
(452,750,o),
(454,766,c),
(526,914,o),
(872,1032,o),
(872,1336,cs),
(872,1574,o),
(742,1810,o),
(332,1810,cs),
(256,1810,o),
(150,1792,o),
(108,1768,c),
(134,1664,l),
(176,1682,o),
(254,1690,o),
(306,1690,cs),
(604,1690,o),
(740,1504,o),
(740,1316,cs),
(740,1196,o),
(642,1094,o),
(582,1048,cs),
(456,952,o),
(284,912,o),
(284,748,c),
(288,678,o),
(296,576,o),
(340,468,c)
);
},
{
closed = 1;
nodes = (
(412,-22,o),
(476,30,o),
(476,108,cs),
(476,166,o),
(442,218,o),
(362,218,cs),
(298,218,o),
(230,162,o),
(230,88,cs),
(230,20,o),
(284,-22,o),
(342,-22,cs)
);
}
);
width = 952;
},
{
layerId = "F2B10EEF-9DDC-48CA-970D-6B8C79870881";
shapes = (
{
closed = 1;
nodes = (
(367,470,l),
(353,556,o),
(340,668,o),
(340,743,cs),
(340,775,o),
(345,807,o),
(355,826,cs),
(402,915,o),
(776,992,o),
(783,1321,cs),
(789,1585,o),
(602,1776,o),
(302,1776,cs),
(168,1776,o),
(77,1737,o),
(30,1708,c),
(60,1637,l),
(95,1657,o),
(144,1672,o),
(200,1672,cs),
(388,1672,o),
(480,1517,o),
(480,1269,cs),
(480,1100,o),
(444,989,o),
(381,953,cs),
(262,885,o),
(221,844,o),
(221,786,cs),
(221,697,o),
(281,529,o),
(309,470,c)
);
},
{
closed = 1;
nodes = (
(417,-16,o),
(483,44,o),
(483,149,cs),
(483,227,o),
(434,301,o),
(344,301,cs),
(256,301,o),
(185,234,o),
(185,136,cs),
(185,47,o),
(249,-16,o),
(320,-16,cs)
);
}
);
width = 807;
},
{
layerId = "E96AC896-F5DF-475B-BBD9-C7FEC6A86D0E";
shapes = (
{
closed = 1;
nodes = (
(297,353,l),
(292,461,o),
(286,575,o),
(286,665,cs),
(286,683,o),
(286,711,o),
(288,727,cs),
(353,902,o),
(650,1007,o),
(650,1346,cs),
(650,1589,o),
(514,1770,o),
(221,1770,cs),
(162,1770,o),
(78,1752,o),
(46,1728,c),
(62,1668,l),
(95,1686,o),
(159,1694,o),
(200,1694,cs),
(429,1694,o),
(527,1517,o),
(527,1291,cs),
(527,1124,o),
(465,1037,o),
(415,994,cs),
(323,916,o),
(182,808,o),
(182,709,cs),
(182,639,o),
(218,461,o),
(245,353,c)
);
},
{
closed = 1;
nodes = (
(293,-22,o),
(336,22,o),
(336,85,cs),
(336,132,o),
(313,176,o),
(261,176,cs),
(214,176,o),
(170,130,o),
(170,69,cs),
(170,14,o),
(205,-22,o),
(247,-22,cs)
);
}
);
width = 695;
},
{
background = {
shapes = (
{
closed = 1;
nodes = (
(306,377,l),
(297,485,o),
(290,549,o),
(290,639,cs),
(290,657,o),
(290,685,o),
(293,701,c),
(393,904,o),
(755,994,o),
(755,1325,cs),
(755,1586,o),
(575,1770,o),
(219,1770,cs),
(142,1770,o),
(26,1752,o),
(-16,1728,c),
(5,1667,l),
(48,1685,o),
(132,1696,o),
(184,1696,cs),
(468,1696,o),
(631,1507,o),
(631,1289,cs),
(631,1135,o),
(527,1032,o),
(466,985,cs),
(343,890,o),
(179,810,o),
(179,683,c),
(184,613,o),
(209,485,o),
(241,377,c)
);
},
{
closed = 1;
nodes = (
(304,-22,o),
(357,22,o),
(357,85,cs),
(357,132,o),
(330,176,o),
(259,176,cs),
(196,176,o),
(141,130,o),
(141,69,cs),
(141,14,o),
(183,-22,o),
(241,-22,cs)
);
}
);
};
layerId = "C9B9556E-C2FD-4F62-BB40-44923C452C22";
shapes = (
{
closed = 1;
nodes = (
(282,359,l),
(269,467,o),
(260,535,o),
(260,625,cs),
(260,643,o),
(260,678,o),
(262,694,c),
(351,896,o),
(693,961,o),
(693,1326,cs),
(693,1582,o),
(549,1770,o),
(192,1770,cs),
(123,1770,o),
(26,1752,o),
(-12,1728,c),
(5,1667,l),
(43,1685,o),
(137,1696,o),
(184,1696,cs),
(445,1696,o),
(583,1521,o),
(583,1294,cs),
(583,1136,o),
(527,1047,o),
(432,977,cs),
(272,859,o),
(151,780,o),
(151,669,c),
(155,599,o),
(177,467,o),
(206,359,c)
);
},
{
closed = 1;
nodes = (
(302,-22,o),
(352,22,o),
(352,85,cs),
(352,132,o),
(326,176,o),
(265,176,cs),
(211,176,o),
(160,130,o),
(160,69,cs),
(160,14,o),
(200,-22,o),
(249,-22,cs)
);
}
);
width = 745;
}
);
unicode = 63;
}
{
glyphname = at;
kernLeft = at;
kernRight = at;
layers = (
{
layerId = UUID0;
shapes = (
{
closed = 1;
nodes = (
(136,-162,o),
(396,-500,o),
(870,-500,cs),
(1060,-500,o),
(1240,-438,o),
(1338,-358,c),
(1306,-290,l),
(1226,-344,o),
(1040,-386,o),
(896,-386,cs),
(530,-386,o),
(264,-118,o),
(264,392,cs),
(264,1010,o),
(670,1390,o),
(1110,1390,cs),
(1442,1390,o),
(1746,1204,o),
(1746,734,cs),
(1746,342,o),
(1508,102,o),
(1366,102,cs),
(1332,102,o),
(1310,160,o),
(1322,326,cs),
(1336,524,o),
(1398,846,o),
(1424,972,c),
(1388,986,o),
(1360,997,o),
(1328,1006,cs),
(1306,1012,o),
(1296,982,o),
(1288,958,c),
(1220,996,o),
(1124,1016,o),
(1054,1016,cs),
(738,1016,o),
(550,636,o),
(550,368,cs),
(550,120,o),
(688,-26,o),
(820,-26,cs),
(970,-26,o),
(1120,206,o),
(1206,434,c),
(1182,302,o),
(1176,210,o),
(1180,148,cs),
(1187,36,o),
(1260,-26,o),
(1328,-26,cs),
(1492,-26,o),
(1860,244,o),
(1860,772,cs),
(1860,1264,o),
(1566,1504,o),
(1168,1504,cs),
(626,1504,o),
(136,1056,o),
(136,362,cs)
);
},
{
closed = 1;
nodes = (
(702,648,o),
(814,898,o),
(1012,898,cs),
(1082,898,o),
(1208,866,o),
(1248,826,c),
(1236,754,o),
(1214,674,o),
(1186,596,cs),
(1095,342,o),
(950,120,o),
(852,120,cs),
(740,120,o),
(702,278,o),
(702,406,cs)
);
}
);
width = 1994;
},
{
layerId = "DEBB1CE4-A72D-4960-969E-E04A036D2FA1";
shapes = (
{
closed = 1;
nodes = (
(152,-200,o),
(511,-522,o),
(941,-522,cs),
(1139,-522,o),
(1333,-468,o),
(1444,-373,c),
(1405,-281,l),
(1328,-332,o),
(1152,-373,o),
(993,-373,cs),
(660,-373,o),
(357,-133,o),
(357,364,cs),
(357,955,o),
(681,1396,o),
(1186,1396,cs),
(1517,1396,o),
(1865,1253,o),
(1865,727,cs),
(1865,389,o),
(1698,170,o),
(1519,170,cs),
(1502,170,o),
(1472,237,o),
(1478,338,cs),
(1489,530,o),
(1560,846,o),
(1592,991,c),
(1538,1007,o),
(1479,1033,o),
(1434,1044,cs),
(1406,1051,o),
(1377,1020,o),
(1369,996,c),
(1298,1033,o),
(1209,1051,o),
(1138,1051,cs),
(810,1051,o),
(609,701,o),
(609,380,cs),
(609,123,o),
(759,-29,o),
(895,-29,cs),
(1072,-29,o),
(1208,206,o),
(1293,438,c),
(1269,302,o),
(1258,214,o),
(1261,160,cs),
(1267,48,o),
(1328,-8,o),
(1396,-8,cs),
(1620,-8,o),
(2037,256,o),
(2037,803,cs),
(2037,1276,o),
(1710,1562,o),
(1273,1562,cs),
(583,1562,o),
(152,1000,o),
(152,322,cs)
);
},
{
closed = 1;
nodes = (
(855,672,o),
(936,888,o),
(1097,888,cs),
(1147,888,o),
(1267,844,o),
(1298,808,c),
(1290,755,o),
(1264,667,o),
(1243,603,cs),
(1178,405,o),
(1046,209,o),
(962,209,cs),
(887,209,o),
(855,362,o),
(855,453,cs)
);
}
);
width = 2155;
},
{
layerId = "184155C8-9F61-4F1C-9784-DDA8EA717636";
shapes = (
{
closed = 1;
nodes = (
(142,-186,o),
(480,-522,o),
(931,-522,cs),
(1115,-522,o),
(1311,-466,o),
(1416,-373,c),
(1396,-328,l),
(1275,-405,o),
(1133,-438,o),
(1005,-438,cs),
(600,-438,o),
(298,-111,o),
(298,391,cs),
(298,952,o),
(665,1431,o),
(1184,1431,cs),
(1554,1431,o),
(1879,1181,o),
(1879,729,cs),
(1879,355,o),
(1656,125,o),
(1519,125,cs),
(1469,125,o),
(1455,156,o),
(1455,257,cs),
(1455,500,o),
(1517,819,o),
(1553,930,c),
(1391,986,o),
(1376,990,o),
(1353,990,cs),
(1327,990,o),
(1310,990,o),
(1292,943,c),
(1228,975,o),
(1167,991,o),
(1100,991,cs),
(786,991,o),
(561,694,o),
(561,359,cs),
(561,117,o),
(683,-20,o),
(844,-20,cs),
(1018,-20,o),
(1132,140,o),
(1209,418,c),
(1185,282,o),
(1171,194,o),
(1174,140,cs),
(1180,28,o),
(1254,-8,o),
(1353,-8,cs),
(1643,-8,o),
(2007,305,o),
(2007,799,cs),
(2007,1222,o),
(1741,1533,o),
(1274,1533,cs),
(700,1533,o),
(142,1040,o),
(142,344,cs)
);
},
{
closed = 1;
nodes = (
(871,729,o),
(984,932,o),
(1116,932,cs),
(1161,932,o),
(1210,900,o),
(1255,851,c),
(1255,796,o),
(1221,644,o),
(1201,569,cs),
(1141,344,o),
(1062,193,o),
(978,193,cs),
(901,193,o),
(871,322,o),
(871,457,cs)
);
}
);
width = 2127;
},
{
layerId = "EA2265BD-E890-48C4-9E90-A53076E780C5";
shapes = (
{
closed = 1;
nodes = (
(93,-223,o),
(462,-522,o),
(837,-522,cs),
(1001,-522,o),
(1181,-468,o),
(1281,-373,c),
(1245,-281,l),
(1184,-329,o),
(1026,-373,o),
(890,-373,cs),
(596,-373,o),
(289,-153,o),
(289,394,cs),
(289,952,o),
(607,1396,o),
(1071,1396,cs),
(1330,1396,o),
(1684,1253,o),
(1684,734,cs),
(1684,387,o),
(1525,170,o),
(1358,170,cs),
(1347,170,o),
(1322,234,o),
(1324,338,cs),
(1327,520,o),
(1409,900,o),
(1427,991,c),
(1381,1005,o),
(1293,1040,o),
(1271,1044,cs),
(1244,1049,o),
(1216,1020,o),
(1209,996,c),
(1146,1033,o),
(1068,1051,o),
(1003,1051,cs),
(713,1051,o),
(532,696,o),
(532,387,cs),
(532,118,o),
(669,-29,o),
(794,-29,cs),
(952,-29,o),
(1070,208,o),
(1144,438,c),
(1121,293,o),
(1112,214,o),
(1114,160,cs),
(1119,36,o),
(1170,-8,o),
(1251,-8,cs),
(1449,-8,o),
(1851,256,o),
(1851,803,cs),
(1851,1276,o),
(1538,1562,o),
(1114,1562,cs),
(508,1562,o),
(93,967,o),
(93,357,cs)
);
},
{
closed = 1;
nodes = (
(773,666,o),
(843,888,o),
(962,888,cs),
(1014,888,o),
(1114,844,o),
(1139,808,c),
(1133,749,o),
(1101,635,o),
(1092,602,cs),
(1033,384,o),
(925,209,o),
(859,209,cs),
(800,209,o),
(773,352,o),
(773,472,cs)
);
}
);
width = 1933;
},
{
layerId = "0E4B6E2E-ECAB-4D06-9686-B0B40AA31834";
shapes = (
{
closed = 1;
nodes = (
(106,-161,o),
(380,-500,o),
(797,-500,cs),
(973,-500,o),
(1148,-439,o),
(1243,-358,c),
(1216,-290,l),
(1140,-345,o),
(974,-386,o),
(840,-386,cs),
(469,-386,o),
(229,-81,o),
(229,389,cs),
(229,961,o),
(583,1390,o),
(1042,1390,cs),
(1350,1390,o),
(1643,1201,o),
(1643,748,cs),
(1643,335,o),
(1385,102,o),
(1291,102,cs),
(1239,102,o),
(1218,157,o),
(1230,318,cs),
(1245,513,o),
(1289,782,o),
(1325,972,c),
(1287,988,o),
(1256,1001,o),
(1233,1006,cs),
(1216,1010,o),
(1207,997,o),
(1194,958,c),
(1132,996,o),
(1042,1016,o),
(976,1016,cs),
(688,1016,o),
(514,634,o),
(514,361,cs),
(514,126,o),
(642,-26,o),
(761,-26,cs),
(902,-26,o),
(1036,196,o),
(1120,431,c),
(1097,300,o),
(1092,194,o),
(1095,149,cs),
(1103,33,o),
(1167,-26,o),
(1238,-26,cs),
(1386,-26,o),
(1752,243,o),
(1752,781,cs),
(1752,1262,o),
(1456,1504,o),
(1082,1504,cs),
(578,1504,o),
(106,1055,o),
(106,365,cs)
);
},
{
closed = 1;
nodes = (
(661,642,o),
(762,898,o),
(939,898,cs),
(1004,898,o),
(1121,865,o),
(1156,826,c),
(1145,753,o),
(1118,654,o),
(1099,595,cs),
(1012,324,o),
(881,120,o),
(789,120,cs),
(712,120,o),
(661,247,o),
(661,411,cs)
);
}
);
width = 1856;
},
{
layerId = "F2B10EEF-9DDC-48CA-970D-6B8C79870881";
shapes = (
{
closed = 1;
nodes = (
(133,-186,o),
(444,-522,o),
(859,-522,cs),
(1028,-522,o),
(1208,-466,o),
(1305,-373,c),
(1287,-328,l),
(1175,-405,o),
(1045,-438,o),
(927,-438,cs),
(554,-438,o),
(277,-111,o),
(277,391,cs),
(277,952,o),
(614,1431,o),
(1092,1431,cs),
(1432,1431,o),
(1731,1181,o),
(1731,729,cs),
(1731,355,o),
(1538,125,o),
(1412,125,cs),
(1366,125,o),
(1353,156,o),
(1353,257,cs),
(1353,500,o),
(1410,819,o),
(1443,930,c),
(1294,986,o),
(1280,990,o),
(1259,990,cs),
(1235,990,o),
(1220,990,o),
(1203,943,c),
(1144,975,o),
(1088,991,o),
(1026,991,cs),
(737,991,o),
(530,694,o),
(530,359,cs),
(530,117,o),
(643,-20,o),
(791,-20,cs),
(951,-20,o),
(1056,140,o),
(1127,418,c),
(1105,282,o),
(1092,194,o),
(1094,140,cs),
(1098,28,o),
(1168,-8,o),
(1259,-8,cs),
(1526,-8,o),
(1849,305,o),
(1849,799,cs),
(1849,1222,o),
(1604,1533,o),
(1174,1533,cs),
(646,1533,o),
(133,1040,o),
(133,344,cs)
);
},
{
closed = 1;
nodes = (
(816,729,o),
(920,932,o),
(1041,932,cs),
(1082,932,o),
(1128,900,o),
(1169,851,c),
(1169,796,o),
(1138,644,o),
(1119,569,cs),
(1062,344,o),
(991,193,o),
(914,193,cs),
(843,193,o),
(816,322,o),
(816,457,cs)
);
}
);
width = 1974;
},
{
layerId = "E96AC896-F5DF-475B-BBD9-C7FEC6A86D0E";
shapes = (
{
closed = 1;
nodes = (
(133,-198,o),
(411,-500,o),
(813,-500,cs),
(993,-500,o),
(1156,-439,o),
(1247,-358,c),
(1230,-303,l),
(1139,-387,o),
(978,-446,o),
(828,-446,cs),
(481,-446,o),
(246,-119,o),
(246,382,cs),
(246,1000,o),
(605,1450,o),
(1045,1450,cs),
(1361,1450,o),
(1638,1232,o),
(1638,760,cs),
(1638,312,o),
(1382,66,o),
(1286,66,cs),
(1242,66,o),
(1215,118,o),
(1230,325,cs),
(1244,515,o),
(1288,783,o),
(1323,962,c),
(1252,988,o),
(1245,990,o),
(1240,991,cs),
(1224,994,o),
(1216,984,o),
(1204,945,c),
(1137,975,o),
(1049,992,o),
(989,992,cs),
(700,992,o),
(531,626,o),
(531,365,cs),
(531,140,o),
(656,4,o),
(771,4,cs),
(921,4,o),
(1042,245,o),
(1122,478,c),
(1107,313,o),
(1105,185,o),
(1106,148,cs),
(1108,56,o),
(1177,4,o),
(1243,4,cs),
(1392,4,o),
(1738,259,o),
(1738,787,cs),
(1738,1259,o),
(1464,1504,o),
(1085,1504,cs),
(583,1504,o),
(133,1073,o),
(133,362,cs)
);
},
{
closed = 1;
nodes = (
(665,698,o),
(788,938,o),
(944,938,cs),
(1015,938,o),
(1116,888,o),
(1174,842,c),
(1162,764,o),
(1140,676,o),
(1115,595,cs),
(1023,298,o),
(888,90,o),
(795,90,cs),
(723,90,o),
(665,215,o),
(665,411,cs)
);
}
);
width = 1863;
},
{
layerId = "C9B9556E-C2FD-4F62-BB40-44923C452C22";
shapes = (
{
closed = 1;
nodes = (
(142,-198,o),
(444,-500,o),
(881,-500,cs),
(1077,-500,o),
(1254,-439,o),
(1353,-358,c),
(1334,-303,l),
(1235,-387,o),
(1060,-446,o),
(897,-446,cs),
(520,-446,o),
(262,-119,o),
(262,382,cs),
(262,1000,o),
(655,1450,o),
(1133,1450,cs),
(1466,1450,o),
(1782,1232,o),
(1782,760,cs),
(1782,312,o),
(1500,66,o),
(1395,66,cs),
(1347,66,o),
(1318,118,o),
(1334,325,cs),
(1349,515,o),
(1397,783,o),
(1435,962,c),
(1358,988,o),
(1351,990,o),
(1345,991,cs),
(1328,994,o),
(1319,984,o),
(1306,945,c),
(1233,975,o),
(1138,992,o),
(1072,992,cs),
(758,992,o),
(575,626,o),
(575,365,cs),
(575,140,o),
(711,4,o),
(835,4,cs),
(999,4,o),
(1130,245,o),
(1217,478,c),
(1201,313,o),
(1198,185,o),
(1200,148,cs),
(1205,56,o),
(1277,4,o),
(1349,4,cs),
(1510,4,o),
(1887,259,o),
(1887,787,cs),
(1887,1259,o),
(1589,1504,o),
(1177,1504,cs),
(631,1504,o),
(142,1073,o),
(142,362,cs)
);
},
{
closed = 1;
nodes = (
(720,698,o),
(854,938,o),
(1024,938,cs),
(1101,938,o),
(1211,888,o),
(1274,842,c),
(1261,764,o),
(1237,676,o),
(1209,595,cs),
(1108,298,o),
(963,90,o),
(862,90,cs),
(783,90,o),
(720,215,o),
(720,411,cs)
);
}
);
width = 2011;
}
);
unicode = 64;
}
{
color = 4;
glyphname = A;
kernLeft = A;
kernRight = A;
layers = (
{
anchors = (
{
name = bottom;
pos = (704,0);
},
{
name = center;
pos = (743,710);
},
{
name = ogonek;
pos = (1267,10);
},
{
name = top;
pos = (723,1486);
}
);
layerId = UUID0;
shapes = (
{
closed = 1;
nodes = (
(-6,86,l),
(-6,0,l),
(444,0,l),
(444,86,l),
(266,106,l),
(372,422,l),
(993,422,l),
(1096,104,l),
(926,86,l),
(926,0,l),
(1414,0,l),
(1414,86,l),
(1284,104,l),
(806,1500,l),
(633,1500,l),
(122,104,l)
);
},
{
closed = 1;
nodes = (
(406,526,l),
(639,1186,l),
(695,1367,l),
(746,1192,l),
(958,526,l)
);
}
);
width = 1408;
},
{
anchors = (
{
name = bottom;
pos = (707,0);
},
{
name = center;
pos = (783,710);
},
{
name = ogonek;
pos = (1273,10);
},
{
name = top;
pos = (707,1486);
}
);
layerId = "DEBB1CE4-A72D-4960-969E-E04A036D2FA1";
shapes = (
{
closed = 1;
nodes = (
(-33,132,l),
(-31,0,l),
(502,0,l),
(502,132,l),
(346,150,l),
(413,392,l),
(891,392,l),
(960,153,l),
(818,132,l),
(818,0,l),
(1448,0,l),
(1448,132,l),
(1337,153,l),
(903,1493,l),
(543,1493,l),
(83,154,l)
);
},
{
closed = 1;
nodes = (
(453,545,l),
(630,1142,l),
(663,1284,l),
(691,1143,l),
(849,545,l)
);
}
);
width = 1414;
},
{
anchors = (
{
name = bottom;
pos = (619,0);
},
{
name = center;
pos = (623,710);
},
{
name = ogonek;
pos = (1113,10);
},
{
name = top;
pos = (619,1486);
}
);
layerId = "184155C8-9F61-4F1C-9784-DDA8EA717636";
shapes = (
{
closed = 1;
nodes = (
(-150,38,l),
(-150,0,l),
(250,0,l),
(250,38,l),
(109,72,l),
(209,435,l),
(674,435,l),
(779,72,l),
(637,38,l),
(637,0,l),
(1327,0,l),
(1327,38,l),
(1213,69,l),
(758,1486,l),
(474,1486,l),
(2,76,l)
);
},
{
closed = 1;
nodes = (
(231,499,l),
(417,1089,l),
(450,1201,l),
(478,1089,l),
(651,499,l)
);
}
);
width = 1237;
},
{
anchors = (
{
name = bottom;
pos = (642,0);
},
{
name = center;
pos = (733,710);
},
{
name = ogonek;
pos = (1155,10);
},
{
name = top;
pos = (642,1486);
}
);
layerId = "EA2265BD-E890-48C4-9E90-A53076E780C5";
shapes = (
{
closed = 1;
nodes = (
(-36,132,l),
(-34,0,l),
(448,0,l),
(448,132,l),
(307,150,l),
(367,392,l),
(798,392,l),
(856,153,l),
(728,132,l),
(728,0,l),
(1313,0,l),
(1313,132,l),
(1212,153,l),
(845,1493,l),
(475,1493,l),
(69,154,l)
);
},
{
closed = 1;
nodes = (
(404,545,l),
(560,1134,l),
(590,1276,l),
(617,1135,l),
(759,545,l)
);
}
);
width = 1283;
},
{
anchors = (
{
name = bottom;
pos = (644,0);
},
{
name = center;
pos = (723,710);
},
{
name = ogonek;
pos = (1159,10);
},
{
name = top;
pos = (656,1486);
}
);
layerId = "0E4B6E2E-ECAB-4D06-9686-B0B40AA31834";
shapes = (
{
closed = 1;
nodes = (
(-3,86,l),
(-3,0,l),
(438,0,l),
(438,86,l),
(264,106,l),
(363,422,l),
(890,422,l),
(984,104,l),
(821,86,l),
(821,0,l),
(1291,0,l),
(1291,86,l),
(1163,104,l),
(745,1500,l),
(581,1500,l),
(123,104,l)
);
},
{
closed = 1;
nodes = (
(396,526,l),
(587,1186,l),
(641,1362,l),
(678,1192,l),
(855,526,l)
);
}
);
width = 1288;
},
{
anchors = (
{
name = bottom;
pos = (520,0);
},
{
name = center;
pos = (573,710);
},
{
name = ogonek;
pos = (936,10);
},
{
name = top;
pos = (520,1486);
}
);
layerId = "F2B10EEF-9DDC-48CA-970D-6B8C79870881";
shapes = (
{
closed = 1;
nodes = (
(-153,38,l),
(-153,0,l),
(216,0,l),
(216,38,l),
(56,76,l),
(140,384,l),
(562,384,l),
(635,72,l),
(513,38,l),
(513,0,l),
(1113,0,l),
(1113,38,l),
(1010,69,l),
(669,1496,l),
(362,1496,l),
(-23,76,l)
);
},
{
closed = 1;
nodes = (
(159,446,l),
(334,1169,l),
(365,1297,l),
(392,1169,l),
(546,446,l)
);
}
);
width = 1040;
},
{
anchors = (
{
name = bottom;
pos = (535,0);
},
{
name = center;
pos = (553,710);
},
{
name = ogonek;
pos = (963,10);
},
{
name = top;
pos = (535,1486);
}
);
layerId = "E96AC896-F5DF-475B-BBD9-C7FEC6A86D0E";
shapes = (
{
closed = 1;
nodes = (
(-78,36,l),
(-78,0,l),
(266,0,l),
(266,36,l),
(119,69,l),
(221,435,l),
(746,435,l),
(844,67,l),
(702,36,l),
(702,0,l),
(1123,0,l),
(1123,36,l),
(1004,67,l),
(617,1496,l),
(450,1496,l),
(33,67,l)
);
},
{
closed = 1;
nodes = (
(242,501,l),
(437,1246,l),
(488,1429,l),
(531,1246,l),
(727,501,l)
);
}
);
width = 1070;
},
{
anchors = (
{
name = bottom;
pos = (650,0);
},
{
name = center;
pos = (643,710);
},
{
name = ogonek;
pos = (1169,10);
},
{
name = top;
pos = (670,1486);
}
);
layerId = "C9B9556E-C2FD-4F62-BB40-44923C452C22";
shapes = (
{
closed = 1;
nodes = (
(-20,36,l),
(-20,0,l),
(347,0,l),
(347,36,l),
(214,69,l),
(326,460,l),
(895,460,l),
(1015,69,l),
(879,36,l),
(879,0,l),
(1314,0,l),
(1314,36,l),
(1184,69,l),
(737,1500,l),
(591,1500,l),
(104,67,l)
);
},
{
closed = 1;
nodes = (
(346,526,l),
(577,1251,l),
(621,1385,l),
(659,1251,l),
(874,526,l)
);
}
);
width = 1299;
}
);
unicode = 65;
}
{
color = 4;
glyphname = B;
kernLeft = H;
kernRight = B;
layers = (
{
anchors = (
{
name = bottom;
pos = (651,0);
},
{
name = center;
pos = (651,743);
},
{
name = top;
pos = (651,1486);
}
);
layerId = UUID0;
shapes = (
{
closed = 1;
nodes = (
(79,86,l),
(79,0,l),
(325,0,ls),
(479,0,o),
(545,-12,o),
(643,-12,cs),
(1105,-12,o),
(1245,210,o),
(1245,444,cs),
(1245,656,o),
(1097,800,o),
(843,792,c),
(1037,830,o),
(1139,986,o),
(1139,1166,cs),
(1139,1376,o),
(1003,1502,o),
(645,1502,cs),
(545,1502,o),
(453,1486,o),
(333,1486,cs),
(83,1486,l),
(83,1400,l),
(251,1378,l),
(251,104,l)
);
},
{
closed = 1;
nodes = (
(415,1398,l),
(455,1398,o),
(525,1410,o),
(623,1410,cs),
(889,1410,o),
(973,1314,o),
(973,1128,cs),
(973,932,o),
(863,824,o),
(661,824,cs),
(609,824,o),
(477,822,o),
(415,826,c)
);
},
{
closed = 1;
nodes = (
(415,718,l),
(475,722,o),
(629,720,o),
(701,720,cs),
(959,720,o),
(1065,626,o),
(1065,414,cs),
(1065,210,o),
(951,84,o),
(641,84,cs),
(573,84,o),
(467,84,o),
(415,100,c)
);
}
);
width = 1301;
},
{
anchors = (
{
name = bottom;
pos = (717,0);
},
{
name = center;
pos = (717,743);
},
{
name = top;
pos = (717,1486);
}
);
layerId = "DEBB1CE4-A72D-4960-969E-E04A036D2FA1";
shapes = (
{
closed = 1;
nodes = (
(79,132,l),
(79,0,l),
(403,0,ls),
(533,0,o),
(591,-12,o),
(741,-12,cs),
(1243,-12,o),
(1387,192,o),
(1387,450,cs),
(1387,672,o),
(1219,794,o),
(957,794,c),
(1143,820,o),
(1287,954,o),
(1287,1160,cs),
(1287,1368,o),
(1173,1500,o),
(723,1500,cs),
(621,1500,o),
(525,1486,o),
(399,1486,cs),
(83,1486,l),
(83,1346,l),
(233,1318,l),
(233,154,l)
);
},
{
closed = 1;
nodes = (
(571,1358,l),
(597,1362,o),
(679,1368,o),
(709,1368,cs),
(879,1368,o),
(947,1292,o),
(947,1126,cs),
(947,952,o),
(885,840,o),
(733,840,cs),
(685,840,o),
(607,840,o),
(571,844,c)
);
},
{
closed = 1;
nodes = (
(571,686,l),
(607,688,o),
(693,690,o),
(753,690,cs),
(927,690,o),
(1011,622,o),
(1011,430,cs),
(1011,242,o),
(935,126,o),
(729,126,cs),
(675,126,o),
(601,130,o),
(571,142,c)
);
}
);
width = 1433;
},
{
anchors = (
{
name = bottom;
pos = (673,0);
},
{
name = center;
pos = (673,743);
},
{
name = top;
pos = (673,1486);
}
);
layerId = "184155C8-9F61-4F1C-9784-DDA8EA717636";
shapes = (
{
closed = 1;
nodes = (
(18,37,l),
(18,0,l),
(342,0,ls),
(472,0,o),
(530,-12,o),
(680,-12,cs),
(1182,-12,o),
(1326,192,o),
(1326,450,cs),
(1326,672,o),
(1148,794,o),
(896,794,c),
(1082,820,o),
(1223,954,o),
(1223,1160,cs),
(1223,1349,o),
(1112,1500,o),
(686,1500,cs),
(560,1500,o),
(464,1486,o),
(338,1486,cs),
(19,1486,l),
(19,1450,l),
(152,1412,l),
(152,73,l)
);
},
{
closed = 1;
nodes = (
(530,1431,l),
(554,1435,o),
(616,1442,o),
(644,1442,cs),
(802,1442,o),
(858,1336,o),
(858,1139,cs),
(858,960,o),
(808,796,o),
(639,796,cs),
(601,796,o),
(563,796,o),
(530,800,c)
);
},
{
closed = 1;
nodes = (
(530,735,l),
(563,737,o),
(607,740,o),
(657,740,cs),
(847,740,o),
(918,648,o),
(918,421,cs),
(918,198,o),
(854,49,o),
(662,49,cs),
(612,49,o),
(558,55,o),
(530,68,c)
);
}
);
width = 1346;
},
{
anchors = (
{
name = bottom;
pos = (618,0);
},
{
name = center;
pos = (618,743);
},
{
name = top;
pos = (618,1486);
}
);
layerId = "EA2265BD-E890-48C4-9E90-A53076E780C5";
shapes = (
{
closed = 1;
nodes = (
(50,131,l),
(50,0,l),
(342,0,ls),
(443,0,o),
(491,-12,o),
(643,-12,cs),
(1085,-12,o),
(1199,203,o),
(1199,450,cs),
(1199,662,o),
(1065,794,o),
(838,794,c),
(996,820,o),
(1130,971,o),
(1130,1156,cs),
(1130,1331,o),
(1032,1500,o),
(623,1500,cs),
(524,1500,o),
(440,1486,o),
(341,1486,cs),
(53,1486,l),
(53,1347,l),
(178,1320,l),
(178,153,l)
);
},
{
closed = 1;
nodes = (
(500,1359,l),
(519,1363,o),
(603,1369,o),
(613,1369,cs),
(735,1369,o),
(790,1281,o),
(790,1127,cs),
(790,966,o),
(748,840,o),
(630,840,cs),
(590,840,o),
(525,840,o),
(500,844,c)
);
},
{
closed = 1;
nodes = (
(500,687,l),
(525,689,o),
(590,691,o),
(636,691,cs),
(765,691,o),
(832,615,o),
(832,430,cs),
(832,249,o),
(776,125,o),
(624,125,cs),
(580,125,o),
(520,129,o),
(500,141,c)
);
}
);
width = 1235;
},
{
anchors = (
{
name = bottom;
pos = (570,0);
},
{
name = center;
pos = (570,743);
},
{
name = top;
pos = (570,1486);
}
);
layerId = "0E4B6E2E-ECAB-4D06-9686-B0B40AA31834";
shapes = (
{
closed = 1;
nodes = (
(58,85,l),
(58,0,l),
(278,0,ls),
(408,0,o),
(494,-12,o),
(583,-12,cs),
(985,-12,o),
(1105,211,o),
(1105,444,cs),
(1105,655,o),
(976,800,o),
(757,792,c),
(923,830,o),
(1015,988,o),
(1015,1166,cs),
(1015,1376,o),
(900,1502,o),
(583,1502,cs),
(497,1502,o),
(387,1486,o),
(283,1486,cs),
(61,1486,l),
(61,1401,l),
(204,1380,l),
(204,103,l)
);
},
{
closed = 1;
nodes = (
(363,1399,l),
(396,1399,o),
(487,1411,o),
(565,1411,cs),
(783,1411,o),
(854,1315,o),
(854,1128,cs),
(854,931,o),
(764,824,o),
(596,824,cs),
(547,824,o),
(414,821,o),
(363,826,c)
);
},
{
closed = 1;
nodes = (
(363,719,l),
(412,723,o),
(574,721,o),
(628,721,cs),
(841,721,o),
(930,626,o),
(930,414,cs),
(930,209,o),
(836,83,o),
(580,83,cs),
(523,83,o),
(405,83,o),
(363,99,c)
);
}
);
width = 1139;
},
{
anchors = (
{
name = bottom;
pos = (605,0);
},
{
name = center;
pos = (605,743);
},
{
name = top;
pos = (605,1486);
}
);
layerId = "F2B10EEF-9DDC-48CA-970D-6B8C79870881";
shapes = (
{
closed = 1;
nodes = (
(40,37,l),
(40,0,l),
(324,0,ls),
(431,0,o),
(481,-12,o),
(620,-12,cs),
(1044,-12,o),
(1174,195,o),
(1174,449,cs),
(1174,669,o),
(1022,795,o),
(793,794,c),
(952,821,o),
(1084,957,o),
(1084,1161,cs),
(1084,1369,o),
(987,1500,o),
(602,1500,cs),
(510,1500,o),
(426,1486,o),
(319,1486,cs),
(41,1486,l),
(41,1450,l),
(152,1413,l),
(152,72,l)
);
},
{
closed = 1;
nodes = (
(498,1426,l),
(518,1430,o),
(541,1438,o),
(588,1438,cs),
(715,1438,o),
(747,1332,o),
(747,1137,cs),
(747,957,o),
(703,797,o),
(579,797,cs),
(548,797,o),
(524,797,o),
(498,801,c)
);
},
{
closed = 1;
nodes = (
(498,736,l),
(521,738,o),
(550,741,o),
(593,741,cs),
(730,741,o),
(799,645,o),
(799,420,cs),
(799,200,o),
(739,54,o),
(604,54,cs),
(564,54,o),
(519,59,o),
(498,72,c)
);
}
);
width = 1210;
},
{
anchors = (
{
name = bottom;
pos = (538,0);
},
{
name = center;
pos = (538,743);
},
{
name = top;
pos = (538,1486);
}
);
layerId = "E96AC896-F5DF-475B-BBD9-C7FEC6A86D0E";
shapes = (
{
closed = 1;
nodes = (
(36,36,l),
(36,0,l),
(241,0,ls),
(347,0,o),
(440,-12,o),
(528,-12,cs),
(920,-12,o),
(1054,204,o),
(1050,435,cs),
(1047,632,o),
(900,790,o),
(666,782,c),
(860,820,o),
(962,982,o),
(958,1162,cs),
(953,1377,o),
(777,1502,o),
(545,1502,cs),
(425,1502,o),
(397,1486,o),
(239,1486,cs),
(37,1486,l),
(37,1450,l),
(161,1420,l),
(161,67,l)
);
},
{
closed = 1;
nodes = (
(313,1420,l),
(354,1432,o),
(421,1452,o),
(518,1452,cs),
(672,1452,o),
(787,1360,o),
(792,1155,cs),
(798,922,o),
(711,797,o),
(543,797,cs),
(472,797,o),
(379,795,o),
(313,799,c)
);
},
{
closed = 1;
nodes = (
(313,734,l),
(378,739,o),
(471,738,o),
(564,738,cs),
(774,738,o),
(880,621,o),
(885,415,cs),
(890,206,o),
(814,37,o),
(549,37,cs),
(461,37,o),
(408,45,o),
(312,65,c)
);
}
);
width = 1076;
},
{
anchors = (
{
name = bottom;
pos = (582,0);
},
{
name = center;
pos = (582,743);
},
{
name = top;
pos = (582,1486);
}
);
background = {
shapes = (
{
closed = 1;
nodes = (
(24,36,l),
(24,0,l),
(248,0,ls),
(319,0,o),
(459,-12,o),
(516,-12,cs),
(978,-12,o),
(1125,204,o),
(1125,435,cs),
(1125,632,o),
(958,776,o),
(724,768,c),
(918,806,o),
(1024,965,o),
(1024,1145,cs),
(1024,1329,o),
(909,1502,o),
(528,1502,cs),
(428,1502,o),
(376,1486,o),
(256,1486,cs),
(174,1486,l),
(161,1457,l),
(174,1435,l),
(174,67,l)
);
},
{
closed = 1;
nodes = (
(333,1438,l),
(375,1442,o),
(417,1453,o),
(521,1453,cs),
(766,1453,o),
(863,1360,o),
(863,1129,cs),
(863,922,o),
(769,797,o),
(581,797,cs),
(526,797,o),
(398,795,o),
(332,799,c)
);
},
{
closed = 1;
nodes = (
(332,734,l),
(397,739,o),
(525,738,o),
(602,738,cs),
(832,738,o),
(948,621,o),
(948,415,cs),
(948,206,o),
(872,37,o),
(537,37,cs),
(463,37,o),
(387,46,o),
(331,63,c)
);
}
);
};
layerId = "C9B9556E-C2FD-4F62-BB40-44923C452C22";
shapes = (
{
closed = 1;
nodes = (
(24,36,l),
(24,0,l),
(248,0,ls),
(319,0,o),
(459,-12,o),
(516,-12,cs),
(978,-12,o),
(1125,204,o),
(1125,435,cs),
(1125,632,o),
(958,788,o),
(724,780,c),
(918,818,o),
(1024,965,o),
(1024,1145,cs),
(1024,1329,o),
(909,1502,o),
(528,1502,cs),
(428,1502,o),
(376,1486,o),
(256,1486,cs),
(25,1486,l),
(25,1450,l),
(174,1420,l),
(174,67,l)
);
},
{
closed = 1;
nodes = (
(333,1438,l),
(375,1442,o),
(417,1453,o),
(521,1453,cs),
(766,1453,o),
(863,1360,o),
(863,1129,cs),
(863,922,o),
(769,797,o),
(581,797,cs),
(526,797,o),
(398,795,o),
(332,799,c)
);
},
{
closed = 1;
nodes = (
(332,734,l),
(397,739,o),
(525,738,o),
(602,738,cs),
(832,738,o),
(948,621,o),
(948,415,cs),
(948,206,o),
(872,37,o),
(537,37,cs),
(463,37,o),
(387,46,o),
(331,63,c)
);
}
);
width = 1164;
}
);
metricLeft = H;
unicode = 66;
}
{
color = 4;
glyphname = C;
kernLeft = O;
kernRight = C;
layers = (
{
anchors = (
{
name = bottom;
pos = (739,0);
},
{
name = center;
pos = (733,740);
},
{
name = hook;
pos = (1192,1112);
},
{
name = top;
pos = (769,1486);
}
);
layerId = UUID0;
shapes = (
{
closed = 1;
nodes = (
(994,-22,o),
(1068,50,o),
(1172,54,c),
(1222,322,l),
(1124,338,l),
(1044,148,l),
(992,106,o),
(924,74,o),
(758,74,cs),
(416,74,o),
(260,398,o),
(260,768,cs),
(260,1178,o),
(472,1406,o),
(744,1406,cs),
(902,1406,o),
(1006,1376,o),
(1042,1344,c),
(1086,1112,l),
(1190,1112,l),
(1206,1438,l),
(1133,1451,o),
(962,1502,o),
(784,1502,cs),
(382,1502,o),
(72,1182,o),
(72,736,cs),
(72,272,o),
(318,-22,o),
(754,-22,cs)
);
}
);
width = 1298;
},
{
anchors = (
{
name = bottom;
pos = (728,0);
},
{
name = center;
pos = (693,740);
},
{
name = hook;
pos = (1193,1006);
},
{
name = top;
pos = (748,1486);
}
);
layerId = "DEBB1CE4-A72D-4960-969E-E04A036D2FA1";
shapes = (
{
closed = 1;
nodes = (
(981,-22,o),
(1062,43,o),
(1197,54,c),
(1237,405,l),
(1046,423,l),
(952,183,l),
(918,150,o),
(869,121,o),
(751,121,cs),
(521,121,o),
(409,386,o),
(409,758,cs),
(409,1163,o),
(544,1360,o),
(743,1360,cs),
(844,1360,o),
(904,1336,o),
(927,1313,c),
(994,1006,l),
(1197,1006,l),
(1222,1462,l),
(1080,1466,o),
(962,1502,o),
(765,1502,cs),
(339,1502,o),
(23,1210,o),
(23,726,cs),
(23,272,o),
(257,-22,o),
(730,-22,cs)
);
}
);
width = 1336;
},
{
anchors = (
{
name = bottom;
pos = (722,0);
},
{
name = center;
pos = (713,740);
},
{
name = hook;
pos = (1185,1006);
},
{
name = top;
pos = (722,1486);
}
);
layerId = "184155C8-9F61-4F1C-9784-DDA8EA717636";
shapes = (
{
closed = 1;
nodes = (
(1014,-22,o),
(1067,54,o),
(1171,54,c),
(1207,463,l),
(1057,473,l),
(970,184,ls),
(952,125,o),
(876,36,o),
(787,36,cs),
(538,36,o),
(460,386,o),
(460,758,cs),
(460,1245,o),
(562,1447,o),
(765,1447,cs),
(881,1447,o),
(924,1381,o),
(934,1316,c),
(986,1006,l),
(1185,1006,l),
(1239,1437,l),
(1049,1437,o),
(993,1507,o),
(741,1507,cs),
(311,1507,o),
(30,1213,o),
(30,734,cs),
(30,289,o),
(250,-22,o),
(748,-22,cs)
);
}
);
width = 1264;
},
{
anchors = (
{
name = bottom;
pos = (658,0);
},
{
name = center;
pos = (605,740);
},
{
name = hook;
pos = (1088,1006);
},
{
name = top;
pos = (678,1486);
}
);
layerId = "EA2265BD-E890-48C4-9E90-A53076E780C5";
shapes = (
{
closed = 1;
nodes = (
(886,-22,o),
(966,43,o),
(1098,54,c),
(1137,405,l),
(950,433,l),
(858,183,l),
(818,135,o),
(758,117,o),
(679,117,cs),
(494,117,o),
(389,349,o),
(389,758,cs),
(389,1163,o),
(526,1371,o),
(686,1371,cs),
(772,1371,o),
(801,1336,o),
(824,1313,c),
(889,1006,l),
(1088,1006,l),
(1113,1462,l),
(974,1466,o),
(895,1505,o),
(702,1505,cs),
(328,1505,o),
(24,1258,o),
(24,726,cs),
(24,255,o),
(253,-22,o),
(650,-22,cs)
);
}
);
width = 1195;
},
{
anchors = (
{
name = bottom;
pos = (623,0);
},
{
name = center;
pos = (673,740);
},
{
name = hook;
pos = (1048,1112);
},
{
name = top;
pos = (673,1486);
}
);
layerId = "0E4B6E2E-ECAB-4D06-9686-B0B40AA31834";
shapes = (
{
closed = 1;
nodes = (
(865,-22,o),
(925,50,o),
(1029,54,c),
(1079,322,l),
(981,336,l),
(901,148,l),
(849,106,o),
(795,74,o),
(634,74,cs),
(335,74,o),
(199,398,o),
(199,768,cs),
(199,1178,o),
(427,1406,o),
(666,1406,cs),
(809,1406,o),
(863,1380,o),
(899,1348,c),
(943,1112,l),
(1047,1112,l),
(1063,1458,l),
(966,1458,o),
(871,1502,o),
(678,1502,cs),
(309,1502,o),
(21,1182,o),
(21,736,cs),
(21,272,o),
(257,-22,o),
(630,-22,cs)
);
}
);
width = 1166;
},
{
anchors = (
{
name = bottom;
pos = (637,0);
},
{
name = center;
pos = (623,740);
},
{
name = hook;
pos = (1070,1008);
},
{
name = top;
pos = (647,1486);
}
);
layerId = "F2B10EEF-9DDC-48CA-970D-6B8C79870881";
shapes = (
{
closed = 1;
nodes = (
(876,-22,o),
(948,54,o),
(1072,54,c),
(1112,464,l),
(960,473,l),
(875,184,ls),
(854,112,o),
(758,36,o),
(661,36,cs),
(458,36,o),
(405,386,o),
(405,758,cs),
(405,1245,o),
(493,1452,o),
(657,1452,cs),
(760,1452,o),
(819,1386,o),
(836,1318,c),
(890,1006,l),
(1076,1006,l),
(1130,1442,l),
(958,1442,o),
(906,1509,o),
(651,1509,cs),
(277,1509,o),
(34,1215,o),
(34,726,cs),
(34,272,o),
(219,-22,o),
(652,-22,cs)
);
}
);
width = 1154;
},
{
anchors = (
{
name = bottom;
pos = (567,0);
},
{
name = center;
pos = (633,740);
},
{
name = hook;
pos = (997,1110);
},
{
name = top;
pos = (627,1486);
}
);
layerId = "E96AC896-F5DF-475B-BBD9-C7FEC6A86D0E";
shapes = (
{
closed = 1;
nodes = (
(826,-20,o),
(879,50,o),
(983,54,c),
(1024,332,l),
(945,350,l),
(870,148,l),
(818,96,o),
(737,29,o),
(612,29,cs),
(298,29,o),
(206,388,o),
(206,746,cs),
(206,1178,o),
(356,1450,o),
(646,1450,cs),
(744,1450,o),
(830,1416,o),
(866,1384,c),
(908,1108,l),
(998,1108,l),
(1013,1446,l),
(943,1446,o),
(806,1502,o),
(633,1502,cs),
(286,1502,o),
(40,1181,o),
(40,725,cs),
(40,312,o),
(219,-20,o),
(569,-20,cs)
);
}
);
width = 1074;
},
{
anchors = (
{
name = bottom;
pos = (685,0);
},
{
name = center;
pos = (683,740);
},
{
name = hook;
pos = (1122,1110);
},
{
name = top;
pos = (725,1486);
}
);
layerId = "C9B9556E-C2FD-4F62-BB40-44923C452C22";
shapes = (
{
closed = 1;
nodes = (
(935,-20,o),
(988,50,o),
(1092,54,c),
(1133,332,l),
(1054,350,l),
(979,148,l),
(927,96,o),
(846,29,o),
(711,29,cs),
(322,29,o),
(200,388,o),
(200,746,cs),
(200,1178,o),
(396,1450,o),
(745,1450,cs),
(863,1450,o),
(949,1416,o),
(985,1384,c),
(1017,1108,l),
(1120,1108,l),
(1136,1438,l),
(1066,1438,o),
(970,1502,o),
(732,1502,cs),
(326,1502,o),
(30,1181,o),
(30,725,cs),
(30,312,o),
(253,-20,o),
(668,-20,cs)
);
}
);
width = 1229;
}
);
unicode = 67;
}
{
color = 4;
glyphname = E;
kernLeft = H;
kernRight = E;
layers = (
{
anchors = (
{
name = bottom;
pos = (623,0);
},
{
name = ogonek;
pos = (1121,10);
},
{
name = top;
pos = (623,1486);
},
{
name = topleft;
pos = (20,1486);
}
);
layerId = UUID0;
shapes = (
{
closed = 1;
nodes = (
(79,86,l),
(79,0,l),
(1163,0,l),
(1225,338,l),
(1129,368,l),
(1027,118,l),
(415,102,l),
(415,718,l),
(783,712,l),
(809,542,l),
(909,542,l),
(909,984,l),
(809,984,l),
(783,818,l),
(415,812,l),
(415,1394,l),
(951,1384,l),
(1005,1192,l),
(1101,1192,l),
(1073,1486,l),
(83,1486,l),
(83,1400,l),
(251,1378,l),
(251,104,l)
);
}
);
width = 1246;
},
{
anchors = (
{
name = bottom;
pos = (664,0);
},
{
name = ogonek;
pos = (1194,10);
},
{
name = top;
pos = (664,1486);
},
{
name = topleft;
pos = (20,1486);
}
);
layerId = "DEBB1CE4-A72D-4960-969E-E04A036D2FA1";
shapes = (
{
closed = 1;
nodes = (
(82,132,l),
(82,0,l),
(1259,0,l),
(1306,376,l),
(1136,424,l),
(1015,165,l),
(581,138,l),
(581,691,l),
(823,686,l),
(856,511,l),
(995,511,l),
(995,1012,l),
(856,1012,l),
(821,849,l),
(581,843,l),
(581,1354,l),
(972,1334,l),
(1040,1133,l),
(1199,1133,l),
(1172,1486,l),
(79,1486,l),
(79,1347,l),
(235,1319,l),
(235,153,l)
);
}
);
width = 1327;
},
{
anchors = (
{
name = bottom;
pos = (636,0);
},
{
name = ogonek;
pos = (1144,10);
},
{
name = top;
pos = (636,1486);
},
{
name = topleft;
pos = (20,1486);
}
);
layerId = "184155C8-9F61-4F1C-9784-DDA8EA717636";
shapes = (
{
closed = 1;
nodes = (
(18,37,l),
(18,0,l),
(1154,0,l),
(1249,438,l),
(1117,466,l),
(938,120,l),
(533,59,l),
(533,735,l),
(748,728,l),
(834,462,l),
(882,462,l),
(882,1043,l),
(834,1043,l),
(748,794,l),
(533,787,l),
(533,1427,l),
(914,1389,l),
(1051,1108,l),
(1178,1108,l),
(1144,1486,l),
(19,1486,l),
(19,1450,l),
(152,1412,l),
(152,78,l)
);
}
);
width = 1271;
},
{
anchors = (
{
name = bottom;
pos = (573,0);
},
{
name = ogonek;
pos = (1031,10);
},
{
name = top;
pos = (573,1486);
},
{
name = topleft;
pos = (20,1486);
}
);
layerId = "EA2265BD-E890-48C4-9E90-A53076E780C5";
shapes = (
{
closed = 1;
nodes = (
(54,131,l),
(54,0,l),
(1089,0,l),
(1126,375,l),
(962,422,l),
(853,164,l),
(523,137,l),
(523,692,l),
(701,687,l),
(731,512,l),
(860,512,l),
(860,1011,l),
(731,1011,l),
(698,848,l),
(523,842,l),
(523,1355,l),
(824,1335,l),
(886,1135,l),
(1038,1135,l),
(1015,1486,l),
(50,1486,l),
(50,1348,l),
(181,1321,l),
(181,152,l)
);
}
);
width = 1145;
},
{
anchors = (
{
name = bottom;
pos = (550,0);
},
{
name = ogonek;
pos = (989,10);
},
{
name = top;
pos = (550,1486);
},
{
name = topleft;
pos = (20,1486);
}
);
layerId = "0E4B6E2E-ECAB-4D06-9686-B0B40AA31834";
shapes = (
{
closed = 1;
nodes = (
(58,85,l),
(58,0,l),
(1000,0,l),
(1052,337,l),
(961,366,l),
(872,117,l),
(364,101,l),
(364,719,l),
(681,713,l),
(704,543,l),
(794,543,l),
(794,983,l),
(704,983,l),
(681,817,l),
(364,811,l),
(364,1395,l),
(810,1385,l),
(858,1194,l),
(947,1194,l),
(923,1486,l),
(61,1486,l),
(61,1401,l),
(204,1380,l),
(204,103,l)
);
}
);
width = 1099;
},
{
anchors = (
{
name = bottom;
pos = (571,0);
},
{
name = ogonek;
pos = (1028,10);
},
{
name = top;
pos = (571,1486);
},
{
name = topleft;
pos = (20,1486);
}
);
layerId = "F2B10EEF-9DDC-48CA-970D-6B8C79870881";
shapes = (
{
closed = 1;
nodes = (
(40,38,l),
(40,0,l),
(1032,0,l),
(1110,393,l),
(962,429,l),
(802,106,l),
(502,59,l),
(502,734,l),
(663,728,l),
(765,462,l),
(803,462,l),
(803,1043,l),
(765,1043,l),
(663,794,l),
(502,788,l),
(502,1427,l),
(777,1400,l),
(911,1124,l),
(1034,1124,l),
(1007,1486,l),
(41,1486,l),
(41,1450,l),
(152,1412,l),
(152,72,l)
);
}
);
width = 1142;
},
{
anchors = (
{
name = bottom;
pos = (526,0);
},
{
name = ogonek;
pos = (946,10);
},
{
name = top;
pos = (526,1486);
},
{
name = topleft;
pos = (20,1486);
}
);
layerId = "E96AC896-F5DF-475B-BBD9-C7FEC6A86D0E";
shapes = (
{
closed = 1;
nodes = (
(36,36,l),
(36,0,l),
(951,0,l),
(1023,338,l),
(951,362,l),
(819,73,l),
(329,48,l),
(329,741,l),
(613,722,l),
(649,542,l),
(703,542,l),
(703,984,l),
(649,984,l),
(613,808,l),
(329,786,l),
(329,1435,l),
(788,1422,l),
(879,1192,l),
(945,1192,l),
(917,1486,l),
(37,1486,l),
(37,1450,l),
(177,1420,l),
(177,67,l)
);
}
);
width = 1051;
},
{
anchors = (
{
name = bottom;
pos = (579,0);
},
{
name = ogonek;
pos = (1042,10);
},
{
name = top;
pos = (579,1486);
},
{
name = topleft;
pos = (20,1486);
}
);
layerId = "C9B9556E-C2FD-4F62-BB40-44923C452C22";
shapes = (
{
closed = 1;
nodes = (
(24,36,l),
(24,0,l),
(1056,0,l),
(1118,338,l),
(1046,362,l),
(924,73,l),
(321,48,l),
(321,741,l),
(702,722,l),
(738,542,l),
(792,542,l),
(792,984,l),
(738,984,l),
(702,808,l),
(321,786,l),
(321,1435,l),
(837,1422,l),
(928,1192,l),
(994,1192,l),
(966,1486,l),
(25,1486,l),
(25,1450,l),
(165,1420,l),
(165,67,l)
);
}
);
width = 1158;
}
);
unicode = 69;
}
{
color = 4;
glyphname = F;
kernLeft = H;
kernRight = F;
layers = (
{
anchors = (
{
name = bottom;
pos = (609,0);
},
{
name = top;
pos = (609,1486);
}
);
layerId = UUID0;
shapes = (
{
closed = 1;
nodes = (
(91,86,l),
(91,0,l),
(733,0,l),
(733,86,l),
(419,104,l),
(419,706,l),
(819,698,l),
(853,528,l),
(945,528,l),
(945,970,l),
(853,970,l),
(819,808,l),
(419,802,l),
(419,1394,l),
(982,1384,l),
(1038,1158,l),
(1147,1158,l),
(1127,1486,l),
(79,1486,l),
(79,1400,l),
(255,1378,l),
(255,104,l)
);
}
);
width = 1217;
},
{
anchors = (
{
name = bottom;
pos = (632,0);
},
{
name = top;
pos = (632,1486);
}
);
layerId = "DEBB1CE4-A72D-4960-969E-E04A036D2FA1";
shapes = (
{
closed = 1;
nodes = (
(88,132,l),
(88,0,l),
(887,0,l),
(887,132,l),
(582,154,l),
(582,645,l),
(843,637,l),
(884,453,l),
(1023,453,l),
(1023,986,l),
(883,986,l),
(843,807,l),
(582,801,l),
(582,1354,l),
(965,1329,l),
(1046,1112,l),
(1225,1112,l),
(1204,1486,l),
(79,1486,l),
(79,1347,l),
(239,1319,l),
(239,154,l)
);
}
);
width = 1264;
},
{
anchors = (
{
name = bottom;
pos = (586,0);
},
{
name = top;
pos = (586,1486);
}
);
layerId = "184155C8-9F61-4F1C-9784-DDA8EA717636";
shapes = (
{
closed = 1;
nodes = (
(18,38,l),
(18,0,l),
(750,0,l),
(750,38,l),
(533,72,l),
(533,711,l),
(751,704,l),
(834,438,l),
(882,438,l),
(882,1019,l),
(835,1019,l),
(751,770,l),
(533,763,l),
(533,1426,l),
(865,1389,l),
(994,1088,l),
(1127,1088,l),
(1098,1486,l),
(19,1486,l),
(19,1450,l),
(152,1412,l),
(152,72,l)
);
}
);
width = 1172;
},
{
anchors = (
{
name = bottom;
pos = (536,0);
},
{
name = top;
pos = (536,1486);
}
);
layerId = "EA2265BD-E890-48C4-9E90-A53076E780C5";
shapes = (
{
closed = 1;
nodes = (
(55,132,l),
(55,0,l),
(784,0,l),
(784,132,l),
(523,154,l),
(523,645,l),
(694,637,l),
(735,453,l),
(874,453,l),
(874,986,l),
(734,986,l),
(694,807,l),
(523,801,l),
(523,1354,l),
(822,1333,l),
(893,1112,l),
(1042,1112,l),
(1021,1486,l),
(50,1486,l),
(50,1347,l),
(181,1321,l),
(181,154,l)
);
}
);
width = 1072;
},
{
anchors = (
{
name = bottom;
pos = (527,0);
},
{
name = top;
pos = (527,1486);
}
);
layerId = "0E4B6E2E-ECAB-4D06-9686-B0B40AA31834";
shapes = (
{
closed = 1;
nodes = (
(58,86,l),
(58,0,l),
(619,0,l),
(619,86,l),
(363,104,l),
(363,706,l),
(659,698,l),
(693,528,l),
(785,528,l),
(785,970,l),
(693,970,l),
(659,808,l),
(363,802,l),
(363,1394,l),
(822,1384,l),
(876,1158,l),
(986,1158,l),
(966,1486,l),
(61,1486,l),
(61,1400,l),
(204,1378,l),
(204,104,l)
);
}
);
width = 1054;
},
{
anchors = (
{
name = bottom;
pos = (532,0);
},
{
name = top;
pos = (532,1486);
}
);
layerId = "F2B10EEF-9DDC-48CA-970D-6B8C79870881";
shapes = (
{
closed = 1;
nodes = (
(40,38,l),
(40,0,l),
(662,0,l),
(662,38,l),
(507,72,l),
(507,710,l),
(678,704,l),
(770,437,l),
(808,437,l),
(808,1019,l),
(770,1019,l),
(677,770,l),
(507,764,l),
(507,1429,l),
(749,1400,l),
(889,1088,l),
(1019,1088,l),
(993,1486,l),
(41,1486,l),
(41,1450,l),
(152,1412,l),
(152,72,l)
);
}
);
width = 1064;
},
{
anchors = (
{
name = bottom;
pos = (481,0);
},
{
name = top;
pos = (481,1486);
}
);
layerId = "E96AC896-F5DF-475B-BBD9-C7FEC6A86D0E";
shapes = (
{
closed = 1;
nodes = (
(36,36,l),
(36,0,l),
(530,0,l),
(530,36,l),
(330,67,l),
(330,735,l),
(632,722,l),
(667,542,l),
(721,542,l),
(721,984,l),
(667,984,l),
(632,808,l),
(330,792,l),
(330,1433,l),
(778,1422,l),
(866,1192,l),
(933,1192,l),
(906,1486,l),
(37,1486,l),
(37,1450,l),
(177,1420,l),
(177,67,l)
);
}
);
width = 961;
},
{
anchors = (
{
name = bottom;
pos = (522,0);
},
{
name = top;
pos = (522,1486);
}
);
layerId = "C9B9556E-C2FD-4F62-BB40-44923C452C22";
shapes = (
{
closed = 1;
nodes = (
(24,36,l),
(24,0,l),
(528,0,l),
(528,36,l),
(321,67,l),
(321,735,l),
(703,722,l),
(738,542,l),
(792,542,l),
(792,984,l),
(738,984,l),
(703,808,l),
(321,792,l),
(321,1433,l),
(849,1422,l),
(937,1192,l),
(1004,1192,l),
(977,1486,l),
(25,1486,l),
(25,1450,l),
(165,1420,l),
(165,67,l)
);
}
);
width = 1044;
}
);
metricLeft = H;
unicode = 70;
}
{
color = 4;
glyphname = G;
kernLeft = O;
kernRight = G;
layers = (
{
anchors = (
{
name = bottom;
pos = (741,0);
},
{
name = hook;
pos = (1259,1108);
},
{
name = rstem;
pos = (1258,380);
},
{
name = top;
pos = (751,1486);
}
);
layerId = UUID0;
shapes = (
{
closed = 1;
nodes = (
(999,-22,o),
(1155,76,o),
(1291,80,c),
(1291,622,l),
(1413,642,l),
(1413,748,l),
(845,748,l),
(845,642,l),
(1123,622,l),
(1123,166,l),
(1021,110,o),
(885,71,o),
(743,71,cs),
(365,71,o),
(241,418,o),
(241,770,cs),
(241,1192,o),
(435,1406,o),
(775,1406,cs),
(963,1406,o),
(1081,1362,o),
(1111,1338,c),
(1155,1108,l),
(1259,1108,l),
(1275,1440,l),
(1207,1445,o),
(999,1502,o),
(793,1502,cs),
(345,1502,o),
(53,1220,o),
(53,718,cs),
(53,306,o),
(287,-22,o),
(731,-22,cs)
);
}
);
width = 1441;
},
{
anchors = (
{
name = bottom;
pos = (772,0);
},
{
name = hook;
pos = (1310,1056);
},
{
name = rstem;
pos = (1288,380);
},
{
name = top;
pos = (772,1486);
}
);
layerId = "DEBB1CE4-A72D-4960-969E-E04A036D2FA1";
shapes = (
{
closed = 1;
nodes = (
(1030,-22,o),
(1240,76,o),
(1346,80,c),
(1346,606,l),
(1446,623,l),
(1446,767,l),
(824,767,l),
(824,623,l),
(1010,601,l),
(1010,184,l),
(970,145,o),
(886,117,o),
(790,117,cs),
(544,117,o),
(448,385,o),
(448,758,cs),
(448,1159,o),
(584,1371,o),
(820,1371,cs),
(939,1371,o),
(995,1340,o),
(1013,1320,c),
(1069,1056,l),
(1310,1056,l),
(1333,1443,l),
(1262,1450,o),
(1040,1505,o),
(828,1505,cs),
(348,1505,o),
(50,1232,o),
(50,730,cs),
(50,305,o),
(300,-22,o),
(759,-22,cs)
);
}
);
width = 1464;
},
{
anchors = (
{
name = bottom;
pos = (737,0);
},
{
name = hook;
pos = (1245,1006);
},
{
name = rstem;
pos = (1278,380);
},
{
name = top;
pos = (737,1486);
}
);
layerId = "184155C8-9F61-4F1C-9784-DDA8EA717636";
shapes = (
{
closed = 1;
nodes = (
(1074,-22,o),
(1123,80,o),
(1315,80,c),
(1315,621,l),
(1399,641,l),
(1399,694,l),
(797,694,l),
(797,641,l),
(973,621,l),
(973,184,l),
(943,88,o),
(846,36,o),
(741,36,cs),
(519,36,o),
(460,385,o),
(462,758,cs),
(464,1245,o),
(540,1447,o),
(719,1447,cs),
(913,1447,o),
(957,1381,o),
(967,1316,c),
(1019,1006,l),
(1245,1006,l),
(1299,1437,l),
(1109,1437,o),
(1031,1507,o),
(743,1507,cs),
(289,1507,o),
(30,1213,o),
(30,734,cs),
(30,289,o),
(238,-22,o),
(712,-22,cs)
);
}
);
width = 1414;
},
{
anchors = (
{
name = bottom;
pos = (694,0);
},
{
name = hook;
pos = (1171,1058);
},
{
name = rstem;
pos = (1087,380);
},
{
name = top;
pos = (694,1486);
}
);
layerId = "EA2265BD-E890-48C4-9E90-A53076E780C5";
shapes = (
{
closed = 1;
nodes = (
(908,-22,o),
(1084,76,o),
(1178,80,c),
(1178,606,l),
(1267,623,l),
(1267,767,l),
(716,767,l),
(716,623,l),
(877,601,l),
(877,184,l),
(852,145,o),
(781,117,o),
(696,117,cs),
(478,117,o),
(412,385,o),
(412,758,cs),
(412,1159,o),
(523,1371,o),
(732,1371,cs),
(831,1371,o),
(880,1340,o),
(896,1320,c),
(946,1056,l),
(1170,1056,l),
(1191,1443,l),
(1128,1443,o),
(947,1505,o),
(739,1505,cs),
(314,1505,o),
(40,1232,o),
(40,730,cs),
(40,305,o),
(261,-22,o),
(668,-22,cs)
);
}
);
width = 1287;
},
{
anchors = (
{
name = bottom;
pos = (657,0);
},
{
name = hook;
pos = (1069,1108);
},
{
name = rstem;
pos = (1048,380);
},
{
name = top;
pos = (667,1486);
}
);
layerId = "0E4B6E2E-ECAB-4D06-9686-B0B40AA31834";
shapes = (
{
closed = 1;
nodes = (
(881,-22,o),
(984,76,o),
(1080,80,c),
(1080,622,l),
(1192,642,l),
(1192,748,l),
(673,748,l),
(673,642,l),
(927,622,l),
(927,166,l),
(862,110,o),
(777,71,o),
(630,71,cs),
(325,71,o),
(225,418,o),
(225,770,cs),
(225,1172,o),
(417,1406,o),
(677,1406,cs),
(830,1406,o),
(901,1362,o),
(928,1338,c),
(968,1108,l),
(1070,1108,l),
(1085,1437,l),
(1020,1441,o),
(863,1502,o),
(694,1502,cs),
(315,1502,o),
(43,1220,o),
(43,718,cs),
(43,296,o),
(255,-22,o),
(619,-22,cs)
);
}
);
width = 1213;
},
{
anchors = (
{
name = bottom;
pos = (646,0);
},
{
name = hook;
pos = (1102,1006);
},
{
name = rstem;
pos = (1035,390);
},
{
name = top;
pos = (666,1486);
}
);
layerId = "F2B10EEF-9DDC-48CA-970D-6B8C79870881";
shapes = (
{
closed = 1;
nodes = (
(950,-22,o),
(983,80,o),
(1153,80,c),
(1153,621,l),
(1227,641,l),
(1227,694,l),
(714,694,l),
(714,641,l),
(846,621,l),
(846,184,l),
(819,88,o),
(777,36,o),
(675,36,cs),
(457,36,o),
(411,405,o),
(413,758,cs),
(416,1225,o),
(523,1452,o),
(683,1452,cs),
(782,1452,o),
(814,1392,o),
(829,1321,c),
(891,1006,l),
(1103,1006,l),
(1154,1442,l),
(976,1442,o),
(904,1512,o),
(696,1512,cs),
(293,1512,o),
(34,1213,o),
(34,734,cs),
(34,289,o),
(218,-22,o),
(659,-22,cs)
);
}
);
width = 1232;
},
{
anchors = (
{
name = bottom;
pos = (605,0);
},
{
name = hook;
pos = (996,1110);
},
{
name = rstem;
pos = (926,380);
},
{
name = top;
pos = (625,1486);
}
);
layerId = "E96AC896-F5DF-475B-BBD9-C7FEC6A86D0E";
shapes = (
{
closed = 1;
nodes = (
(823,-20,o),
(919,76,o),
(1017,80,c),
(1017,634,l),
(1109,655,l),
(1109,718,l),
(663,718,l),
(663,655,l),
(865,631,l),
(865,118,l),
(808,71,o),
(721,31,o),
(607,31,cs),
(299,31,o),
(208,399,o),
(208,751,cs),
(208,1178,o),
(350,1452,o),
(646,1452,cs),
(748,1452,o),
(843,1409,o),
(868,1384,c),
(909,1108,l),
(999,1108,l),
(1014,1446,l),
(946,1446,o),
(807,1502,o),
(639,1502,cs),
(280,1502,o),
(40,1181,o),
(40,724,cs),
(40,323,o),
(217,-20,o),
(563,-20,cs)
);
}
);
width = 1129;
},
{
anchors = (
{
name = bottom;
pos = (688,0);
},
{
name = hook;
pos = (1149,1108);
},
{
name = rstem;
pos = (1148,380);
},
{
name = top;
pos = (718,1486);
}
);
layerId = "C9B9556E-C2FD-4F62-BB40-44923C452C22";
shapes = (
{
closed = 1;
nodes = (
(971,-20,o),
(1081,76,o),
(1179,80,c),
(1179,629,l),
(1301,650,l),
(1301,718,l),
(784,718,l),
(784,650,l),
(1028,629,l),
(1028,121,l),
(958,74,o),
(844,31,o),
(722,31,cs),
(333,31,o),
(210,399,o),
(210,751,cs),
(210,1178,o),
(406,1452,o),
(773,1452,cs),
(891,1452,o),
(977,1416,o),
(1014,1384,c),
(1058,1108,l),
(1149,1108,l),
(1164,1438,l),
(1094,1438,o),
(999,1502,o),
(747,1502,cs),
(336,1502,o),
(40,1181,o),
(40,724,cs),
(40,323,o),
(262,-20,o),
(678,-20,cs)
);
}
);
width = 1316;
}
);
unicode = 71;
}
{
color = 4;
glyphname = H;
kernLeft = H;
kernRight = H;
layers = (
{
anchors = (
{
name = bottom;
pos = (791,0);
},
{
name = center;
pos = (791,743);
},
{
name = top;
pos = (791,1486);
},
{
name = topleft;
pos = (20,1486);
}
);
layerId = UUID0;
shapes = (
{
closed = 1;
nodes = (
(79,86,l),
(79,0,l),
(585,0,l),
(585,86,l),
(409,104,l),
(409,710,l),
(1173,710,l),
(1173,104,l),
(1000,86,l),
(1000,0,l),
(1503,0,l),
(1503,86,l),
(1337,104,l),
(1337,1378,l),
(1498,1400,l),
(1498,1486,l),
(1002,1486,l),
(1002,1400,l),
(1173,1378,l),
(1173,816,l),
(409,816,l),
(409,1378,l),
(583,1400,l),
(583,1486,l),
(84,1486,l),
(84,1400,l),
(245,1378,l),
(245,104,l)
);
}
);
width = 1582;
},
{
anchors = (
{
name = bottom;
pos = (839,0);
},
{
name = center;
pos = (839,743);
},
{
name = top;
pos = (839,1486);
},
{
name = topleft;
pos = (20,1486);
}
);
layerId = "DEBB1CE4-A72D-4960-969E-E04A036D2FA1";
shapes = (
{
closed = 1;
nodes = (
(79,132,l),
(79,0,l),
(727,0,l),
(727,132,l),
(565,153,l),
(565,672,l),
(1113,672,l),
(1113,154,l),
(959,132,l),
(959,0,l),
(1598,0,l),
(1598,132,l),
(1454,153,l),
(1454,1320,l),
(1596,1347,l),
(1596,1486,l),
(959,1486,l),
(959,1347,l),
(1113,1319,l),
(1113,841,l),
(565,841,l),
(565,1320,l),
(726,1347,l),
(726,1486,l),
(80,1486,l),
(80,1347,l),
(223,1320,l),
(223,153,l)
);
}
);
width = 1677;
},
{
anchors = (
{
name = bottom;
pos = (759,0);
},
{
name = center;
pos = (759,743);
},
{
name = top;
pos = (759,1486);
},
{
name = topleft;
pos = (20,1486);
}
);
layerId = "184155C8-9F61-4F1C-9784-DDA8EA717636";
shapes = (
{
closed = 1;
nodes = (
(18,38,l),
(18,0,l),
(679,0,l),
(679,38,l),
(535,72,l),
(535,732,l),
(983,732,l),
(983,72,l),
(841,38,l),
(841,0,l),
(1500,0,l),
(1500,38,l),
(1366,72,l),
(1366,1412,l),
(1498,1450,l),
(1498,1486,l),
(841,1486,l),
(841,1450,l),
(983,1412,l),
(983,798,l),
(535,798,l),
(535,1412,l),
(678,1450,l),
(678,1486,l),
(19,1486,l),
(19,1450,l),
(152,1412,l),
(152,72,l)
);
}
);
width = 1518;
},
{
anchors = (
{
name = bottom;
pos = (715,0);
},
{
name = center;
pos = (715,743);
},
{
name = top;
pos = (715,1486);
},
{
name = topleft;
pos = (20,1486);
}
);
layerId = "EA2265BD-E890-48C4-9E90-A53076E780C5";
shapes = (
{
closed = 1;
nodes = (
(50,131,l),
(50,0,l),
(634,0,l),
(634,131,l),
(496,152,l),
(496,673,l),
(933,673,l),
(933,153,l),
(806,131,l),
(806,0,l),
(1379,0,l),
(1379,131,l),
(1261,152,l),
(1261,1322,l),
(1379,1348,l),
(1379,1486,l),
(806,1486,l),
(806,1348,l),
(933,1321,l),
(933,840,l),
(496,840,l),
(496,1322,l),
(633,1348,l),
(633,1486,l),
(51,1486,l),
(51,1348,l),
(168,1322,l),
(168,152,l)
);
}
);
width = 1429;
},
{
anchors = (
{
name = bottom;
pos = (675,0);
},
{
name = center;
pos = (675,743);
},
{
name = top;
pos = (675,1486);
},
{
name = topleft;
pos = (20,1486);
}
);
layerId = "0E4B6E2E-ECAB-4D06-9686-B0B40AA31834";
shapes = (
{
closed = 1;
nodes = (
(58,85,l),
(58,0,l),
(511,0,l),
(511,85,l),
(359,103,l),
(359,711,l),
(991,711,l),
(991,103,l),
(844,85,l),
(844,0,l),
(1292,0,l),
(1292,85,l),
(1152,103,l),
(1152,1378,l),
(1286,1401,l),
(1286,1486,l),
(846,1486,l),
(846,1401,l),
(991,1378,l),
(991,815,l),
(359,815,l),
(359,1378,l),
(509,1401,l),
(509,1486,l),
(60,1486,l),
(60,1401,l),
(198,1378,l),
(198,103,l)
);
}
);
width = 1350;
},
{
anchors = (
{
name = bottom;
pos = (676,0);
},
{
name = center;
pos = (676,743);
},
{
name = top;
pos = (676,1486);
},
{
name = topleft;
pos = (20,1486);
}
);
layerId = "F2B10EEF-9DDC-48CA-970D-6B8C79870881";
shapes = (
{
closed = 1;
nodes = (
(40,37,l),
(40,0,l),
(627,0,l),
(627,37,l),
(503,72,l),
(503,734,l),
(848,734,l),
(848,72,l),
(726,37,l),
(726,0,l),
(1311,0,l),
(1311,37,l),
(1198,72,l),
(1198,1412,l),
(1310,1450,l),
(1310,1486,l),
(726,1486,l),
(726,1450,l),
(848,1412,l),
(848,800,l),
(503,800,l),
(503,1412,l),
(626,1450,l),
(626,1486,l),
(41,1486,l),
(41,1450,l),
(153,1412,l),
(153,72,l)
);
}
);
width = 1351;
},
{
anchors = (
{
name = bottom;
pos = (620,0);
},
{
name = center;
pos = (620,743);
},
{
name = top;
pos = (620,1486);
},
{
name = topleft;
pos = (20,1486);
}
);
layerId = "E96AC896-F5DF-475B-BBD9-C7FEC6A86D0E";
shapes = (
{
closed = 1;
nodes = (
(36,36,l),
(36,0,l),
(450,0,l),
(450,36,l),
(313,67,l),
(313,734,l),
(928,734,l),
(928,67,l),
(792,37,l),
(792,0,l),
(1204,0,l),
(1204,37,l),
(1080,67,l),
(1080,1420,l),
(1203,1450,l),
(1203,1486,l),
(792,1486,l),
(792,1450,l),
(928,1420,l),
(928,796,l),
(313,796,l),
(313,1420,l),
(450,1450,l),
(450,1486,l),
(37,1486,l),
(37,1450,l),
(161,1420,l),
(161,67,l)
);
}
);
width = 1240;
},
{
anchors = (
{
name = bottom;
pos = (690,0);
},
{
name = center;
pos = (690,743);
},
{
name = top;
pos = (690,1486);
},
{
name = topleft;
pos = (20,1486);
}
);
layerId = "C9B9556E-C2FD-4F62-BB40-44923C452C22";
shapes = (
{
closed = 1;
nodes = (
(24,36,l),
(24,0,l),
(466,0,l),
(466,36,l),
(321,67,l),
(321,732,l),
(1058,732,l),
(1058,67,l),
(913,36,l),
(913,0,l),
(1355,0,l),
(1355,36,l),
(1214,67,l),
(1214,1420,l),
(1354,1450,l),
(1354,1486,l),
(913,1486,l),
(913,1450,l),
(1058,1420,l),
(1058,794,l),
(321,794,l),
(321,1420,l),
(466,1450,l),
(466,1486,l),
(25,1486,l),
(25,1450,l),
(165,1420,l),
(165,67,l)
);
}
);
width = 1379;
}
);
unicode = 72;
}
{
color = 4;
glyphname = J;
kernLeft = J;
kernRight = J;
layers = (
{
anchors = (
{
name = bottom;
pos = (356,0);
},
{
name = center;
pos = (368,791);
},
{
name = top;
pos = (369,1486);
}
);
layerId = UUID0;
shapes = (
{
closed = 1;
nodes = (
(22,-346,l),
(194,-314,o),
(384,-188,o),
(430,42,cs),
(455,166,o),
(450,328,o),
(450,550,cs),
(450,1376,l),
(642,1400,l),
(642,1486,l),
(84,1486,l),
(84,1400,l),
(286,1376,l),
(286,506,ls),
(286,208,o),
(282,96,o),
(246,-18,cs),
(204,-152,o),
(96,-242,o),
(-22,-274,c)
);
}
);
width = 711;
},
{
anchors = (
{
name = bottom;
pos = (416,0);
},
{
name = center;
pos = (417,791);
},
{
name = top;
pos = (416,1486);
}
);
layerId = "DEBB1CE4-A72D-4960-969E-E04A036D2FA1";
shapes = (
{
closed = 1;
nodes = (
(34,-387,l),
(316,-342,o),
(496,-184,o),
(556,29,cs),
(582,122,o),
(585,298,o),
(585,550,cs),
(585,1320,l),
(744,1347,l),
(744,1486,l),
(73,1486,l),
(73,1347,l),
(244,1318,l),
(244,382,ls),
(244,171,o),
(229,68,o),
(202,-12,cs),
(154,-155,o),
(50,-239,o),
(-43,-271,c)
);
}
);
width = 832;
},
{
anchors = (
{
name = bottom;
pos = (358,0);
},
{
name = center;
pos = (356,791);
},
{
name = top;
pos = (358,1486);
}
);
layerId = "184155C8-9F61-4F1C-9784-DDA8EA717636";
shapes = (
{
closed = 1;
nodes = (
(-23,-387,l),
(255,-357,o),
(457,-195,o),
(522,29,cs),
(549,122,o),
(551,298,o),
(551,550,cs),
(551,1412,l),
(692,1450,l),
(692,1486,l),
(25,1486,l),
(25,1450,l),
(168,1412,l),
(168,318,ls),
(168,107,o),
(153,-19,o),
(126,-99,cs),
(78,-242,o),
(44,-286,o),
(-55,-330,c)
);
}
);
width = 716;
},
{
anchors = (
{
name = bottom;
pos = (364,0);
},
{
name = center;
pos = (361,791);
},
{
name = top;
pos = (364,1486);
}
);
layerId = "EA2265BD-E890-48C4-9E90-A53076E780C5";
shapes = (
{
closed = 1;
nodes = (
(5,-387,l),
(267,-342,o),
(437,-174,o),
(497,39,cs),
(523,132,o),
(526,308,o),
(526,560,cs),
(526,1320,l),
(691,1347,l),
(691,1486,l),
(30,1486,l),
(30,1347,l),
(199,1318,l),
(199,382,ls),
(199,171,o),
(186,68,o),
(159,-12,cs),
(111,-155,o),
(21,-239,o),
(-72,-271,c)
);
}
);
width = 727;
},
{
anchors = (
{
name = bottom;
pos = (309,0);
},
{
name = center;
pos = (299,791);
},
{
name = top;
pos = (302,1486);
}
);
layerId = "0E4B6E2E-ECAB-4D06-9686-B0B40AA31834";
shapes = (
{
closed = 1;
nodes = (
(-55,-346,l),
(117,-314,o),
(307,-188,o),
(353,42,cs),
(378,166,o),
(373,328,o),
(373,550,cs),
(373,1376,l),
(565,1400,l),
(565,1486,l),
(27,1486,l),
(27,1400,l),
(212,1376,l),
(212,506,ls),
(212,208,o),
(208,96,o),
(172,-18,cs),
(130,-152,o),
(19,-242,o),
(-99,-274,c)
);
}
);
width = 617;
},
{
anchors = (
{
name = bottom;
pos = (335,0);
},
{
name = center;
pos = (332,791);
},
{
name = top;
pos = (335,1486);
}
);
layerId = "F2B10EEF-9DDC-48CA-970D-6B8C79870881";
shapes = (
{
closed = 1;
nodes = (
(-46,-387,l),
(232,-357,o),
(402,-195,o),
(467,29,cs),
(494,122,o),
(496,298,o),
(496,550,cs),
(496,1412,l),
(629,1450,l),
(629,1486,l),
(19,1486,l),
(19,1450,l),
(152,1412,l),
(152,318,ls),
(152,107,o),
(137,-19,o),
(110,-99,cs),
(62,-242,o),
(21,-286,o),
(-78,-330,c)
);
}
);
width = 669;
},
{
anchors = (
{
name = bottom;
pos = (248,0);
},
{
name = center;
pos = (248,791);
},
{
name = top;
pos = (248,1486);
}
);
layerId = "E96AC896-F5DF-475B-BBD9-C7FEC6A86D0E";
shapes = (
{
closed = 1;
nodes = (
(-80,-346,l),
(92,-314,o),
(257,-170,o),
(297,38,cs),
(321,162,o),
(316,330,o),
(316,476,cs),
(316,1420,l),
(456,1450,l),
(456,1486,l),
(18,1486,l),
(18,1450,l),
(165,1420,l),
(165,506,ls),
(165,208,o),
(160,97,o),
(131,-18,cs),
(94,-164,o),
(2,-269,o),
(-116,-301,c)
);
}
);
width = 496;
},
{
anchors = (
{
name = bottom;
pos = (254,0);
},
{
name = center;
pos = (239,791);
},
{
name = top;
pos = (237,1486);
}
);
layerId = "C9B9556E-C2FD-4F62-BB40-44923C452C22";
shapes = (
{
closed = 1;
nodes = (
(-89,-346,l),
(83,-314,o),
(254,-170,o),
(294,38,cs),
(318,162,o),
(313,333,o),
(313,476,cs),
(313,1420,l),
(445,1450,l),
(445,1486,l),
(12,1486,l),
(12,1450,l),
(157,1420,l),
(157,506,ls),
(157,208,o),
(153,96,o),
(123,-18,cs),
(85,-164,o),
(-5,-269,o),
(-123,-301,c)
);
}
);
width = 507;
}
);
metricWidth = I;
unicode = 74;
}
{
color = 4;
glyphname = K;
kernLeft = H;
kernRight = K;
layers = (
{
anchors = (
{
name = bottom;
pos = (701,0);
},
{
name = center;
pos = (340,1112);
},
{
name = top;
pos = (701,1486);
}
);
background = {
shapes = (
{
closed = 1;
nodes = (
(1399,0,l),
(1399,84,l),
(1305,106,l),
(1219,117,o),
(901,750,o),
(699,887,c),
(680,810,l),
(1189,1378,l),
(1335,1400,l),
(1335,1486,l),
(871,1486,l),
(871,1400,l),
(1041,1378,l),
(367,595,l),
(415,577,l),
(415,1378,l),
(587,1400,l),
(587,1486,l),
(83,1486,l),
(83,1400,l),
(251,1378,l),
(251,104,l),
(79,86,l),
(79,0,l),
(603,0,l),
(603,84,l),
(415,104,l),
(415,581,l),
(367,453,l),
(681,809,l),
(604,781,l),
(794,625,o),
(1050,0,o),
(1159,0,c)
);
}
);
};
layerId = UUID0;
shapes = (
{
closed = 1;
nodes = (
(603,0,l),
(603,84,l),
(415,104,l),
(415,508,l),
(633,755,l),
(819,565,o),
(1055,0,o),
(1159,0,c),
(1399,0,l),
(1399,84,l),
(1305,106,l),
(1223,116,o),
(930,691,o),
(728,864,c),
(1189,1378,l),
(1335,1400,l),
(1335,1486,l),
(871,1486,l),
(871,1400,l),
(1041,1378,l),
(415,651,l),
(415,1378,l),
(587,1400,l),
(587,1486,l),
(83,1486,l),
(83,1400,l),
(251,1378,l),
(251,104,l),
(79,86,l),
(79,0,l)
);
}
);
width = 1401;
},
{
anchors = (
{
name = bottom;
pos = (764,0);
},
{
name = center;
pos = (400,1112);
},
{
name = top;
pos = (764,1486);
}
);
background = {
shapes = (
{
closed = 1;
nodes = (
(1536,0,l),
(1536,131,l),
(1441,153,l),
(1357,202,o),
(1067,868,o),
(875,954,c),
(834,800,l),
(1294,1320,l),
(1470,1348,l),
(1470,1486,l),
(899,1486,l),
(899,1347,l),
(1062,1319,l),
(481,578,l),
(574,546,l),
(574,1319,l),
(722,1347,l),
(722,1486,l),
(80,1486,l),
(80,1347,l),
(233,1319,l),
(233,154,l),
(79,132,l),
(79,0,l),
(740,0,l),
(740,131,l),
(574,153,l),
(574,642,l),
(476,378,l),
(833,793,l),
(682,737,l),
(834,617,o),
(1045,0,o),
(1132,0,c)
);
}
);
};
layerId = "DEBB1CE4-A72D-4960-969E-E04A036D2FA1";
shapes = (
{
closed = 1;
nodes = (
(740,0,l),
(740,131,l),
(574,153,l),
(574,493,l),
(736,679,l),
(889,467,o),
(1055,0,o),
(1132,0,c),
(1536,0,l),
(1536,131,l),
(1441,153,l),
(1363,202,o),
(1121,744,o),
(934,913,c),
(1294,1320,l),
(1470,1348,l),
(1470,1486,l),
(899,1486,l),
(899,1347,l),
(1062,1319,l),
(574,696,l),
(574,1319,l),
(722,1347,l),
(722,1486,l),
(80,1486,l),
(80,1347,l),
(233,1319,l),
(233,154,l),
(79,132,l),
(79,0,l)
);
}
);
width = 1527;
},
{
anchors = (
{
name = bottom;
pos = (724,0);
},
{
name = center;
pos = (350,1112);
},
{
name = top;
pos = (724,1486);
}
);
background = {
shapes = (
{
closed = 1;
nodes = (
(1457,1,l),
(1457,39,l),
(1396,66,l),
(1264,236,o),
(975,943,o),
(872,995,c),
(776,853,l),
(1211,1409,l),
(1384,1447,l),
(1384,1487,l),
(920,1486,l),
(920,1449,l),
(1104,1412,l),
(455,519,l),
(535,612,l),
(535,1412,l),
(678,1450,l),
(678,1486,l),
(19,1486,l),
(19,1450,l),
(152,1412,l),
(152,71,l),
(18,38,l),
(18,0,l),
(678,0,l),
(678,38,l),
(535,71,l),
(535,557,l),
(450,417,l),
(726,792,l),
(631,688,l),
(709,612,o),
(896,0,o),
(984,0,c)
);
}
);
};
layerId = "184155C8-9F61-4F1C-9784-DDA8EA717636";
shapes = (
{
closed = 1;
nodes = (
(678,0,l),
(678,38,l),
(535,71,l),
(535,532,l),
(641,676,l),
(728,553,o),
(901,0,o),
(984,0,c),
(1457,1,l),
(1457,39,l),
(1396,66,l),
(1264,236,o),
(995,899,o),
(882,988,c),
(1211,1409,l),
(1384,1447,l),
(1384,1487,l),
(920,1486,l),
(920,1449,l),
(1104,1412,l),
(535,629,l),
(535,1412,l),
(678,1450,l),
(678,1486,l),
(19,1486,l),
(19,1450,l),
(152,1412,l),
(152,71,l),
(18,38,l),
(18,0,l)
);
}
);
width = 1447;
},
{
anchors = (
{
name = bottom;
pos = (717,0);
},
{
name = center;
pos = (360,1112);
},
{
name = top;
pos = (717,1486);
}
);
layerId = "EA2265BD-E890-48C4-9E90-A53076E780C5";
shapes = (
{
closed = 1;
nodes = (
(697,0,l),
(697,131,l),
(532,153,l),
(532,492,l),
(681,666,l),
(820,465,o),
(974,0,o),
(1049,0,cs),
(1443,0,l),
(1443,131,l),
(1348,153,l),
(1273,197,o),
(1054,726,o),
(872,900,c),
(1211,1320,l),
(1367,1348,l),
(1367,1486,l),
(836,1486,l),
(836,1347,l),
(999,1319,l),
(532,701,l),
(532,1319,l),
(679,1347,l),
(679,1486,l),
(51,1486,l),
(51,1347,l),
(204,1319,l),
(204,154,l),
(50,132,l),
(50,0,l)
);
}
);
width = 1434;
},
{
anchors = (
{
name = bottom;
pos = (649,0);
},
{
name = center;
pos = (315,1112);
},
{
name = top;
pos = (649,1486);
}
);
layerId = "0E4B6E2E-ECAB-4D06-9686-B0B40AA31834";
shapes = (
{
closed = 1;
nodes = (
(579,0,l),
(579,84,l),
(391,104,l),
(391,507,l),
(609,754,l),
(788,564,o),
(951,0,o),
(1055,0,cs),
(1285,0,l),
(1285,84,l),
(1191,106,l),
(1109,117,o),
(897,696,o),
(702,866,c),
(1115,1378,l),
(1241,1400,l),
(1241,1486,l),
(827,1486,l),
(827,1400,l),
(967,1378,l),
(391,655,l),
(391,1378,l),
(563,1400,l),
(563,1486,l),
(62,1486,l),
(62,1400,l),
(230,1378,l),
(230,104,l),
(58,86,l),
(58,0,l)
);
}
);
width = 1297;
},
{
anchors = (
{
name = bottom;
pos = (648,0);
},
{
name = center;
pos = (332,1112);
},
{
name = top;
pos = (648,1486);
}
);
layerId = "F2B10EEF-9DDC-48CA-970D-6B8C79870881";
shapes = (
{
closed = 1;
nodes = (
(624,0,l),
(624,38,l),
(502,71,l),
(502,539,l),
(593,678,l),
(657,583,o),
(819,0,o),
(890,0,cs),
(1306,1,l),
(1306,39,l),
(1254,66,l),
(1150,178,o),
(906,858,o),
(809,1002,c),
(1074,1409,l),
(1224,1447,l),
(1224,1487,l),
(829,1486,l),
(829,1449,l),
(983,1412,l),
(502,646,l),
(502,1412,l),
(624,1450,l),
(624,1486,l),
(41,1486,l),
(41,1450,l),
(154,1412,l),
(154,71,l),
(40,38,l),
(40,0,l)
);
}
);
width = 1296;
},
{
anchors = (
{
name = bottom;
pos = (593,0);
},
{
name = center;
pos = (250,1112);
},
{
name = top;
pos = (593,1486);
}
);
layerId = "E96AC896-F5DF-475B-BBD9-C7FEC6A86D0E";
shapes = (
{
closed = 1;
nodes = (
(466,0,l),
(466,36,l),
(321,67,l),
(321,499,l),
(518,756,l),
(651,578,o),
(876,0,o),
(946,0,cs),
(1160,0,l),
(1160,36,l),
(1079,68,l),
(1015,78,o),
(748,724,o),
(603,869,c),
(990,1422,l),
(1122,1450,l),
(1122,1486,l),
(723,1486,l),
(723,1450,l),
(876,1420,l),
(321,601,l),
(321,1420,l),
(466,1450,l),
(466,1486,l),
(37,1486,l),
(37,1450,l),
(169,1420,l),
(169,67,l),
(36,38,l),
(36,0,l)
);
}
);
width = 1186;
},
{
anchors = (
{
name = bottom;
pos = (622,0);
},
{
name = center;
pos = (241,1112);
},
{
name = top;
pos = (622,1486);
}
);
background = {
shapes = (
{
closed = 1;
nodes = (
(1233,0,l),
(1233,36,l),
(1152,68,l),
(1067,78,o),
(731,738,o),
(584,875,c),
(568,800,l),
(1053,1422,l),
(1180,1450,l),
(1180,1486,l),
(781,1486,l),
(781,1450,l),
(933,1420,l),
(297,568,l),
(321,557,l),
(321,1420,l),
(471,1450,l),
(471,1486,l),
(25,1486,l),
(25,1450,l),
(165,1420,l),
(165,67,l),
(24,37,l),
(24,0,l),
(476,0,l),
(476,36,l),
(321,67,l),
(321,543,l),
(299,470,l),
(541,766,l),
(489,767,l),
(623,613,o),
(929,0,o),
(994,0,c)
);
}
);
};
layerId = "C9B9556E-C2FD-4F62-BB40-44923C452C22";
shapes = (
{
closed = 1;
nodes = (
(476,0,l),
(476,36,l),
(321,67,l),
(321,497,l),
(515,734,l),
(653,555,o),
(932,0,o),
(994,0,c),
(1233,0,l),
(1233,36,l),
(1152,68,l),
(1070,81,o),
(781,649,o),
(607,850,c),
(1053,1422,l),
(1180,1450,l),
(1180,1486,l),
(781,1486,l),
(781,1450,l),
(933,1420,l),
(321,600,l),
(321,1420,l),
(471,1450,l),
(471,1486,l),
(25,1486,l),
(25,1450,l),
(165,1420,l),
(165,67,l),
(24,37,l),
(24,0,l)
);
}
);
width = 1243;
}
);
metricLeft = H;
unicode = 75;
}
{
color = 4;
glyphname = L;
kernLeft = H;
kernRight = L;
layers = (
{
anchors = (
{
name = belt;
pos = (249,757);
},
{
name = bottom;
pos = (613,0);
},
{
name = center;
pos = (613,743);
},
{
name = top;
pos = (328,1486);
},
{
name = topright;
pos = (841,1005);
}
);
layerId = UUID0;
shapes = (
{
closed = 1;
nodes = (
(1109,0,l),
(1183,416,l),
(1087,432,l),
(975,120,l),
(415,104,l),
(415,1378,l),
(615,1400,l),
(615,1486,l),
(83,1486,l),
(83,1400,l),
(251,1378,l),
(251,104,l),
(79,86,l),
(79,0,l)
);
}
);
width = 1225;
},
{
anchors = (
{
name = belt;
pos = (230,757);
},
{
name = bottom;
pos = (645,0);
},
{
name = center;
pos = (645,743);
},
{
name = top;
pos = (399,1486);
},
{
name = topright;
pos = (911,1005);
}
);
layerId = "DEBB1CE4-A72D-4960-969E-E04A036D2FA1";
shapes = (
{
closed = 1;
nodes = (
(1210,0,l),
(1268,548,l),
(1080,572,l),
(949,176,l),
(574,156,l),
(574,1319,l),
(764,1347,l),
(764,1486,l),
(81,1486,l),
(81,1347,l),
(231,1319,l),
(231,153,l),
(79,132,l),
(79,0,l)
);
}
);
width = 1289;
},
{
anchors = (
{
name = belt;
pos = (152,757);
},
{
name = bottom;
pos = (601,0);
},
{
name = center;
pos = (601,743);
},
{
name = top;
pos = (355,1486);
},
{
name = topright;
pos = (1181,1486);
}
);
layerId = "184155C8-9F61-4F1C-9784-DDA8EA717636";
shapes = (
{
closed = 1;
nodes = (
(1124,0,l),
(1191,435,l),
(1021,452,l),
(868,120,l),
(533,59,l),
(533,1412,l),
(694,1450,l),
(694,1486,l),
(19,1486,l),
(19,1450,l),
(152,1412,l),
(152,78,l),
(18,37,l),
(18,0,l)
);
}
);
width = 1201;
},
{
anchors = (
{
name = belt;
pos = (200,757);
},
{
name = bottom;
pos = (546,0);
},
{
name = center;
pos = (546,743);
},
{
name = top;
pos = (364,1486);
},
{
name = topright;
pos = (821,1005);
}
);
layerId = "EA2265BD-E890-48C4-9E90-A53076E780C5";
shapes = (
{
closed = 1;
nodes = (
(1061,0,l),
(1109,548,l),
(921,572,l),
(800,176,l),
(532,156,l),
(532,1319,l),
(722,1347,l),
(722,1486,l),
(52,1486,l),
(52,1347,l),
(202,1319,l),
(202,153,l),
(50,132,l),
(50,0,l)
);
}
);
width = 1092;
},
{
anchors = (
{
name = belt;
pos = (230,757);
},
{
name = bottom;
pos = (523,0);
},
{
name = center;
pos = (523,743);
},
{
name = top;
pos = (315,1486);
},
{
name = topright;
pos = (771,1005);
}
);
layerId = "0E4B6E2E-ECAB-4D06-9686-B0B40AA31834";
shapes = (
{
closed = 1;
nodes = (
(968,0,l),
(1032,416,l),
(936,432,l),
(834,120,l),
(394,104,l),
(394,1378,l),
(594,1400,l),
(594,1486,l),
(62,1486,l),
(62,1400,l),
(230,1378,l),
(230,104,l),
(58,86,l),
(58,0,l)
);
}
);
width = 1046;
},
{
anchors = (
{
name = belt;
pos = (151,757);
},
{
name = bottom;
pos = (530,0);
},
{
name = center;
pos = (530,743);
},
{
name = top;
pos = (329,1486);
},
{
name = topright;
pos = (791,1005);
}
);
layerId = "F2B10EEF-9DDC-48CA-970D-6B8C79870881";
shapes = (
{
closed = 1;
nodes = (
(1007,0,l),
(1072,406,l),
(914,442,l),
(768,108,l),
(502,66,l),
(502,1410,l),
(669,1450,l),
(669,1486,l),
(41,1486,l),
(41,1450,l),
(152,1410,l),
(152,74,l),
(40,38,l),
(40,0,l)
);
}
);
width = 1059;
},
{
anchors = (
{
name = belt;
pos = (176,757);
},
{
name = bottom;
pos = (472,0);
},
{
name = center;
pos = (472,743);
},
{
name = top;
pos = (259,1486);
},
{
name = topright;
pos = (691,1005);
}
);
layerId = "E96AC896-F5DF-475B-BBD9-C7FEC6A86D0E";
shapes = (
{
closed = 1;
nodes = (
(868,0,l),
(942,416,l),
(871,432,l),
(736,91,l),
(329,63,l),
(330,1420,l),
(490,1450,l),
(490,1486,l),
(37,1486,l),
(37,1450,l),
(177,1420,l),
(177,67,l),
(36,36,l),
(36,0,l)
);
}
);
width = 944;
},
{
anchors = (
{
name = belt;
pos = (165,757);
},
{
name = bottom;
pos = (525,0);
},
{
name = center;
pos = (525,743);
},
{
name = top;
pos = (245,1486);
},
{
name = topright;
pos = (731,1005);
}
);
layerId = "C9B9556E-C2FD-4F62-BB40-44923C452C22";
shapes = (
{
closed = 1;
nodes = (
(966,0,l),
(1040,416,l),
(969,432,l),
(834,91,l),
(321,63,l),
(322,1420,l),
(482,1450,l),
(482,1486,l),
(25,1486,l),
(25,1450,l),
(165,1420,l),
(165,67,l),
(24,36,l),
(24,0,l)
);
}
);
width = 1050;
}
);
metricLeft = H;
unicode = 76;
}
{
color = 4;
glyphname = M;
kernLeft = M;
kernRight = M;
layers = (
{
anchors = (
{
name = bottom;
pos = (973,0);
},
{
name = top;
pos = (973,1486);
}
);
layerId = UUID0;
shapes = (
{
closed = 1;
nodes = (
(16,86,l),
(16,0,l),
(516,0,l),
(516,86,l),
(320,104,l),
(415,1016,l),
(458,1416,l),
(576,1028,l),
(910,72,l),
(994,72,l),
(1354,1140,l),
(1442,1416,l),
(1482,1016,l),
(1578,104,l),
(1392,86,l),
(1392,0,l),
(1930,0,l),
(1930,86,l),
(1748,106,l),
(1590,1378,l),
(1820,1400,l),
(1820,1486,l),
(1342,1486,l),
(1038,562,l),
(970,294,l),
(896,562,l),
(592,1486,l),
(112,1486,l),
(112,1400,l),
(346,1378,l),
(186,104,l)
);
}
);
width = 1946;
},
{
anchors = (
{
name = bottom;
pos = (1034,0);
},
{
name = top;
pos = (1034,1486);
}
);
layerId = "DEBB1CE4-A72D-4960-969E-E04A036D2FA1";
shapes = (
{
closed = 1;
nodes = (
(4,132,l),
(4,0,l),
(569,0,l),
(569,132,l),
(371,154,l),
(460,1016,l),
(496,1370,l),
(580,1021,l),
(845,57,l),
(1107,57,l),
(1375,1048,l),
(1445,1369,l),
(1480,1016,l),
(1559,154,l),
(1389,132,l),
(1389,0,l),
(2063,0,l),
(2063,132,l),
(1909,155,l),
(1750,1319,l),
(1971,1347,l),
(1971,1486,l),
(1296,1486,l),
(1083,649,l),
(1041,428,l),
(995,649,l),
(800,1486,l),
(108,1486,l),
(108,1347,l),
(325,1319,l),
(163,153,l)
);
}
);
width = 2067;
},
{
anchors = (
{
name = bottom;
pos = (930,0);
},
{
name = top;
pos = (930,1486);
}
);
layerId = "184155C8-9F61-4F1C-9784-DDA8EA717636";
shapes = (
{
closed = 1;
nodes = (
(-45,36,l),
(-45,0,l),
(374,0,l),
(374,36,l),
(207,71,l),
(301,1046,l),
(334,1360,l),
(410,1047,l),
(638,57,l),
(980,57,l),
(1166,1046,l),
(1229,1360,l),
(1267,1044,l),
(1363,72,l),
(1218,38,l),
(1218,0,l),
(1905,0,l),
(1905,36,l),
(1763,72,l),
(1613,1413,l),
(1772,1451,l),
(1772,1486,l),
(1181,1486,l),
(995,520,l),
(954,282,l),
(912,516,l),
(705,1486,l),
(118,1486,l),
(118,1451,l),
(272,1413,l),
(110,71,l)
);
}
);
width = 1860;
},
{
anchors = (
{
name = bottom;
pos = (909,0);
},
{
name = top;
pos = (909,1486);
}
);
layerId = "EA2265BD-E890-48C4-9E90-A53076E780C5";
shapes = (
{
closed = 1;
nodes = (
(12,132,l),
(12,0,l),
(503,0,l),
(503,132,l),
(336,154,l),
(393,1016,l),
(425,1370,l),
(479,1021,l),
(704,57,l),
(962,57,l),
(1196,1048,l),
(1256,1369,l),
(1277,1016,l),
(1330,154,l),
(1182,132,l),
(1182,0,l),
(1805,0,l),
(1805,132,l),
(1671,155,l),
(1548,1319,l),
(1740,1347,l),
(1740,1486,l),
(1125,1486,l),
(955,669,l),
(924,478,l),
(885,669,l),
(728,1486,l),
(88,1486,l),
(88,1347,l),
(276,1319,l),
(146,153,l)
);
}
);
width = 1817;
},
{
anchors = (
{
name = bottom;
pos = (890,0);
},
{
name = top;
pos = (890,1486);
}
);
layerId = "0E4B6E2E-ECAB-4D06-9686-B0B40AA31834";
shapes = (
{
closed = 1;
nodes = (
(16,86,l),
(16,0,l),
(506,0,l),
(506,86,l),
(314,104,l),
(413,1016,l),
(455,1416,l),
(566,1028,l),
(829,72,l),
(916,72,l),
(1227,1140,l),
(1300,1416,l),
(1340,1016,l),
(1418,104,l),
(1237,86,l),
(1237,0,l),
(1764,0,l),
(1764,86,l),
(1586,106,l),
(1445,1378,l),
(1666,1400,l),
(1666,1486,l),
(1202,1486,l),
(959,582,l),
(897,318,l),
(841,562,l),
(597,1486,l),
(110,1486,l),
(110,1400,l),
(345,1378,l),
(183,104,l)
);
}
);
width = 1780;
},
{
anchors = (
{
name = bottom;
pos = (818,0);
},
{
name = top;
pos = (818,1486);
}
);
layerId = "F2B10EEF-9DDC-48CA-970D-6B8C79870881";
shapes = (
{
closed = 1;
nodes = (
(-12,36,l),
(-12,0,l),
(359,0,l),
(359,36,l),
(211,71,l),
(275,1046,l),
(304,1360,l),
(372,1047,l),
(573,57,l),
(867,57,l),
(1028,1046,l),
(1078,1360,l),
(1104,1044,l),
(1177,72,l),
(1048,38,l),
(1048,0,l),
(1647,0,l),
(1647,36,l),
(1521,72,l),
(1408,1413,l),
(1548,1451,l),
(1548,1486,l),
(1024,1486,l),
(880,520,l),
(843,282,l),
(806,516,l),
(627,1486,l),
(113,1486,l),
(113,1451,l),
(250,1413,l),
(125,71,l)
);
}
);
width = 1635;
},
{
anchors = (
{
name = bottom;
pos = (784,0);
},
{
name = top;
pos = (784,1486);
}
);
layerId = "E96AC896-F5DF-475B-BBD9-C7FEC6A86D0E";
shapes = (
{
closed = 1;
nodes = (
(-20,36,l),
(-20,0,l),
(390,0,l),
(390,36,l),
(224,60,l),
(326,1016,l),
(358,1419,l),
(457,1016,l),
(687,72,l),
(813,72,l),
(1070,1040,l),
(1166,1419,l),
(1201,1016,l),
(1272,60,l),
(1110,36,l),
(1110,0,l),
(1587,0,l),
(1587,36,l),
(1437,62,l),
(1292,1416,l),
(1432,1451,l),
(1432,1486,l),
(1094,1486,l),
(875,562,l),
(793,196,l),
(704,562,l),
(494,1486,l),
(134,1486,l),
(134,1451,l),
(290,1416,l),
(124,60,l)
);
}
);
width = 1567;
},
{
anchors = (
{
name = bottom;
pos = (870,0);
},
{
name = top;
pos = (870,1486);
}
);
layerId = "C9B9556E-C2FD-4F62-BB40-44923C452C22";
shapes = (
{
closed = 1;
nodes = (
(-25,36,l),
(-25,0,l),
(410,0,l),
(410,36,l),
(234,60,l),
(344,1016,l),
(387,1419,l),
(505,1016,l),
(767,72,l),
(897,72,l),
(1200,1040,l),
(1302,1419,l),
(1339,1016,l),
(1439,60,l),
(1265,36,l),
(1265,0,l),
(1765,0,l),
(1765,36,l),
(1606,62,l),
(1436,1416,l),
(1583,1451,l),
(1583,1486,l),
(1226,1486,l),
(966,562,l),
(876,196,l),
(784,562,l),
(533,1486,l),
(149,1486,l),
(149,1451,l),
(314,1416,l),
(127,60,l)
);
}
);
width = 1740;
}
);
metricRight = "=|";
unicode = 77;
}
{
color = 4;
glyphname = N;
kernLeft = H;
kernRight = H;
layers = (
{
anchors = (
{
name = bottom;
pos = (763,0);
},
{
name = top;
pos = (763,1486);
}
);
layerId = UUID0;
shapes = (
{
closed = 1;
nodes = (
(69,86,l),
(69,0,l),
(527,0,l),
(527,86,l),
(345,104,l),
(345,1296,l),
(509,1030,l),
(1225,0,l),
(1329,0,l),
(1329,1378,l),
(1493,1400,l),
(1493,1486,l),
(1037,1486,l),
(1037,1400,l),
(1213,1378,l),
(1213,260,l),
(1099,460,l),
(391,1486,l),
(69,1486,l),
(69,1400,l),
(122,1393,o),
(176,1385,o),
(229,1378,c),
(229,106,l)
);
}
);
width = 1526;
},
{
anchors = (
{
name = bottom;
pos = (800,0);
},
{
name = top;
pos = (800,1486);
}
);
layerId = "DEBB1CE4-A72D-4960-969E-E04A036D2FA1";
shapes = (
{
closed = 1;
nodes = (
(69,132,l),
(69,0,l),
(626,0,l),
(626,132,l),
(415,154,l),
(415,1178,l),
(546,913,l),
(1128,0,l),
(1423,0,l),
(1423,1320,l),
(1573,1347,l),
(1573,1486,l),
(1063,1486,l),
(1063,1347,l),
(1233,1320,l),
(1233,394,l),
(1120,634,l),
(585,1486,l),
(69,1486,l),
(69,1347,l),
(121,1338,o),
(174,1329,o),
(226,1320,c),
(226,153,l)
);
}
);
width = 1600;
},
{
anchors = (
{
name = bottom;
pos = (670,0);
},
{
name = top;
pos = (670,1486);
}
);
layerId = "184155C8-9F61-4F1C-9784-DDA8EA717636";
shapes = (
{
closed = 1;
nodes = (
(-22,36,l),
(-22,0,l),
(399,0,l),
(399,36,l),
(219,95,l),
(221,1161,l),
(312,1007,l),
(964,0,l),
(1199,0,l),
(1199,1392,l),
(1370,1450,l),
(1370,1486,l),
(949,1486,l),
(949,1450,l),
(1126,1392,l),
(1127,402,l),
(1017,599,l),
(444,1486,l),
(-19,1486,l),
(-19,1432,l),
(43,1432,o),
(141,1304,o),
(148,1241,c),
(146,95,l)
);
}
);
width = 1340;
},
{
anchors = (
{
name = bottom;
pos = (674,0);
},
{
name = top;
pos = (674,1486);
}
);
layerId = "EA2265BD-E890-48C4-9E90-A53076E780C5";
shapes = (
{
closed = 1;
nodes = (
(36,131,l),
(36,0,l),
(490,0,l),
(490,131,l),
(335,153,l),
(335,1179,l),
(442,914,l),
(861,0,l),
(1192,0,l),
(1192,1322,l),
(1317,1348,l),
(1317,1486,l),
(866,1486,l),
(866,1348,l),
(1010,1322,l),
(1010,374,l),
(913,649,l),
(531,1486,l),
(37,1486,l),
(37,1348,l),
(81,1340,o),
(110,1332,o),
(154,1322,c),
(154,152,l)
);
}
);
width = 1347;
},
{
anchors = (
{
name = bottom;
pos = (691,0);
},
{
name = top;
pos = (691,1486);
}
);
layerId = "0E4B6E2E-ECAB-4D06-9686-B0B40AA31834";
shapes = (
{
closed = 1;
nodes = (
(97,85,l),
(97,0,l),
(501,0,l),
(501,85,l),
(342,103,l),
(342,1304,l),
(479,1038,l),
(1072,0,l),
(1191,0,l),
(1191,1380,l),
(1330,1401,l),
(1330,1486,l),
(933,1486,l),
(933,1401,l),
(1083,1380,l),
(1083,247,l),
(985,446,l),
(397,1486,l),
(97,1486,l),
(97,1401,l),
(142,1395,o),
(189,1387,o),
(234,1380,c),
(234,105,l)
);
}
);
width = 1382;
},
{
anchors = (
{
name = bottom;
pos = (588,0);
},
{
name = top;
pos = (588,1486);
}
);
layerId = "F2B10EEF-9DDC-48CA-970D-6B8C79870881";
shapes = (
{
closed = 1;
nodes = (
(-25,36,l),
(-25,0,l),
(396,0,l),
(396,36,l),
(214,95,l),
(216,1151,l),
(309,987,l),
(815,0,l),
(1040,0,l),
(1040,1392,l),
(1211,1450,l),
(1211,1486,l),
(790,1486,l),
(790,1450,l),
(968,1392,l),
(969,452,l),
(858,689,l),
(441,1486,l),
(-22,1486,l),
(-22,1432,l),
(40,1432,o),
(138,1324,o),
(145,1261,c),
(143,95,l)
);
}
);
width = 1175;
},
{
anchors = (
{
name = bottom;
pos = (618,0);
},
{
name = top;
pos = (618,1486);
}
);
layerId = "E96AC896-F5DF-475B-BBD9-C7FEC6A86D0E";
shapes = (
{
closed = 1;
nodes = (
(38,36,l),
(38,0,l),
(391,0,l),
(391,36,l),
(261,67,l),
(238,1333,l),
(341,1136,l),
(950,0,l),
(1067,0,l),
(1086,1419,l),
(1228,1450,l),
(1228,1486,l),
(843,1486,l),
(843,1450,l),
(986,1419,l),
(1005,169,l),
(863,460,l),
(314,1486,l),
(47,1486,l),
(47,1450,l),
(102,1440,o),
(171,1403,o),
(175,1381,c),
(160,67,l)
);
}
);
width = 1236;
},
{
anchors = (
{
name = bottom;
pos = (690,0);
},
{
name = top;
pos = (690,1486);
}
);
layerId = "C9B9556E-C2FD-4F62-BB40-44923C452C22";
shapes = (
{
closed = 1;
nodes = (
(24,36,l),
(24,0,l),
(427,0,l),
(427,36,l),
(277,67,l),
(254,1353,l),
(372,1139,l),
(1058,0,l),
(1198,0,l),
(1217,1419,l),
(1359,1450,l),
(1359,1486,l),
(971,1486,l),
(971,1450,l),
(1117,1419,l),
(1136,133,l),
(997,402,l),
(342,1486,l),
(43,1486,l),
(43,1450,l),
(98,1440,o),
(187,1403,o),
(191,1381,c),
(176,67,l)
);
}
);
width = 1379;
}
);
unicode = 78;
}
{
color = 4;
glyphname = O;
kernLeft = O;
kernRight = O;
layers = (
{
anchors = (
{
name = bottom;
pos = (699,0);
},
{
name = center;
pos = (699,743);
},
{
name = ogonek;
pos = (1258,10);
},
{
name = qq;
pos = (808,0);
},
{
name = top;
pos = (699,1486);
},
{
name = topleft;
pos = (20,1486);
},
{
name = topright;
pos = (1378,1486);
}
);
layerId = UUID0;
shapes = (
{
closed = 1;
nodes = (
(1056,-15,o),
(1345,288,o),
(1345,756,cs),
(1345,1206,o),
(1123,1502,o),
(719,1502,cs),
(347,1502,o),
(53,1204,o),
(53,732,cs),
(53,289,o),
(272,-29,o),
(685,-22,cs)
);
},
{
closed = 1;
nodes = (
(401,72,o),
(235,350,o),
(235,732,cs),
(235,1186,o),
(425,1408,o),
(701,1408,cs),
(995,1408,o),
(1159,1140,o),
(1159,756,cs),
(1159,302,o),
(971,72,o),
(695,72,cs)
);
}
);
width = 1398;
},
{
anchors = (
{
name = bottom;
pos = (731,0);
},
{
name = center;
pos = (731,743);
},
{
name = ogonek;
pos = (1316,10);
},
{
name = qq;
pos = (808,0);
},
{
name = top;
pos = (731,1486);
},
{
name = topleft;
pos = (20,1486);
},
{
name = topright;
pos = (1442,1486);
}
);
layerId = "DEBB1CE4-A72D-4960-969E-E04A036D2FA1";
shapes = (
{
closed = 1;
nodes = (
(1138,-19,o),
(1409,301,o),
(1409,768,cs),
(1409,1218,o),
(1213,1503,o),
(743,1505,cs),
(325,1506,o),
(53,1207,o),
(53,741,cs),
(53,285,o),
(251,-26,o),
(722,-22,cs)
);
},
{
closed = 1;
nodes = (
(542,110,o),
(430,304,o),
(430,742,cs),
(430,1170,o),
(544,1373,o),
(732,1373,cs),
(920,1373,o),
(1031,1205,o),
(1031,766,cs),
(1031,337,o),
(917,110,o),
(729,110,cs)
);
}
);
width = 1462;
},
{
anchors = (
{
name = bottom;
pos = (705,0);
},
{
name = center;
pos = (705,743);
},
{
name = ogonek;
pos = (1269,10);
},
{
name = qq;
pos = (808,0);
},
{
name = top;
pos = (705,1486);
},
{
name = topleft;
pos = (20,1486);
},
{
name = topright;
pos = (1390,1486);
}
);
layerId = "184155C8-9F61-4F1C-9784-DDA8EA717636";
shapes = (
{
closed = 1;
nodes = (
(1177,-26,o),
(1384,325,o),
(1384,770,cs),
(1384,1203,o),
(1196,1509,o),
(722,1509,cs),
(235,1509,o),
(26,1161,o),
(26,719,cs),
(26,282,o),
(215,-26,o),
(694,-26,cs)
);
},
{
closed = 1;
nodes = (
(520,30,o),
(442,310,o),
(442,719,cs),
(442,1206,o),
(534,1453,o),
(708,1453,cs),
(889,1453,o),
(968,1183,o),
(968,770,cs),
(968,285,o),
(874,30,o),
(706,30,cs)
);
}
);
width = 1410;
},
{
anchors = (
{
name = bottom;
pos = (631,0);
},
{
name = center;
pos = (631,743);
},
{
name = ogonek;
pos = (1136,10);
},
{
name = qq;
pos = (788,0);
},
{
name = top;
pos = (631,1486);
},
{
name = topleft;
pos = (20,1486);
},
{
name = topright;
pos = (1242,1486);
}
);
layerId = "EA2265BD-E890-48C4-9E90-A53076E780C5";
shapes = (
{
closed = 1;
nodes = (
(994,-19,o),
(1222,301,o),
(1222,768,cs),
(1222,1210,o),
(1065,1503,o),
(639,1505,cs),
(269,1506,o),
(40,1207,o),
(40,741,cs),
(40,280,o),
(207,-26,o),
(624,-22,cs)
);
},
{
closed = 1;
nodes = (
(504,111,o),
(412,305,o),
(412,742,cs),
(412,1169,o),
(491,1374,o),
(631,1374,cs),
(767,1374,o),
(850,1204,o),
(850,766,cs),
(850,337,o),
(779,111,o),
(639,111,cs)
);
}
);
width = 1262;
},
{
anchors = (
{
name = bottom;
pos = (605,0);
},
{
name = center;
pos = (605,743);
},
{
name = ogonek;
pos = (1089,10);
},
{
name = qq;
pos = (778,0);
},
{
name = top;
pos = (605,1486);
},
{
name = topleft;
pos = (20,1486);
},
{
name = topright;
pos = (1190,1486);
}
);
layerId = "0E4B6E2E-ECAB-4D06-9686-B0B40AA31834";
shapes = (
{
closed = 1;
nodes = (
(917,-15,o),
(1164,287,o),
(1164,756,cs),
(1164,1206,o),
(975,1502,o),
(621,1502,cs),
(297,1502,o),
(46,1204,o),
(46,732,cs),
(46,284,o),
(235,-29,o),
(593,-22,cs)
);
},
{
closed = 1;
nodes = (
(360,71,o),
(227,351,o),
(227,732,cs),
(227,1186,o),
(378,1409,o),
(606,1409,cs),
(848,1409,o),
(983,1138,o),
(983,756,cs),
(983,302,o),
(830,71,o),
(602,71,cs)
);
}
);
width = 1210;
},
{
anchors = (
{
name = bottom;
pos = (622,0);
},
{
name = center;
pos = (622,743);
},
{
name = ogonek;
pos = (1120,10);
},
{
name = qq;
pos = (768,0);
},
{
name = top;
pos = (622,1486);
},
{
name = topleft;
pos = (20,1486);
},
{
name = topright;
pos = (1224,1486);
}
);
layerId = "F2B10EEF-9DDC-48CA-970D-6B8C79870881";
shapes = (
{
closed = 1;
nodes = (
(1013,-21,o),
(1204,290,o),
(1204,780,cs),
(1204,1243,o),
(1024,1503,o),
(635,1502,cs),
(232,1501,o),
(40,1192,o),
(40,707,cs),
(40,236,o),
(217,-23,o),
(613,-22,cs)
);
},
{
closed = 1;
nodes = (
(474,32,o),
(412,240,o),
(412,715,cs),
(412,1270,o),
(481,1448,o),
(618,1448,cs),
(769,1448,o),
(833,1240,o),
(833,774,cs),
(833,210,o),
(761,32,o),
(623,32,cs)
);
}
);
width = 1244;
},
{
anchors = (
{
name = bottom;
pos = (595,0);
},
{
name = center;
pos = (595,743);
},
{
name = ogonek;
pos = (1071,10);
},
{
name = qq;
pos = (788,0);
},
{
name = top;
pos = (595,1486);
},
{
name = topleft;
pos = (20,1486);
},
{
name = topright;
pos = (1170,1486);
}
);
layerId = "E96AC896-F5DF-475B-BBD9-C7FEC6A86D0E";
shapes = (
{
closed = 1;
nodes = (
(909,-22,o),
(1150,296,o),
(1150,768,cs),
(1150,1211,o),
(971,1502,o),
(612,1502,cs),
(282,1502,o),
(40,1209,o),
(40,727,cs),
(40,293,o),
(222,-22,o),
(584,-22,cs)
);
},
{
closed = 1;
nodes = (
(366,28,o),
(206,294,o),
(206,727,cs),
(206,1248,o),
(386,1450,o),
(597,1450,cs),
(822,1450,o),
(984,1212,o),
(984,768,cs),
(984,256,o),
(802,28,o),
(592,28,cs)
);
}
);
width = 1190;
},
{
anchors = (
{
name = bottom;
pos = (686,0);
},
{
name = center;
pos = (686,743);
},
{
name = ogonek;
pos = (1235,10);
},
{
name = qq;
pos = (808,0);
},
{
name = top;
pos = (686,1486);
},
{
name = topleft;
pos = (20,1486);
},
{
name = topright;
pos = (1352,1486);
}
);
layerId = "C9B9556E-C2FD-4F62-BB40-44923C452C22";
shapes = (
{
closed = 1;
nodes = (
(1040,-22,o),
(1327,259,o),
(1327,765,cs),
(1327,1214,o),
(1110,1502,o),
(706,1502,cs),
(334,1502,o),
(45,1232,o),
(45,724,cs),
(45,285,o),
(266,-22,o),
(672,-22,cs)
);
},
{
closed = 1;
nodes = (
(372,28,o),
(215,287,o),
(215,724,cs),
(215,1215,o),
(401,1452,o),
(688,1452,cs),
(998,1452,o),
(1157,1159,o),
(1157,765,cs),
(1157,273,o),
(969,28,o),
(682,28,cs)
);
}
);
width = 1372;
}
);
metricRight = "=|";
unicode = 79;
}
{
color = 4;
glyphname = S;
kernLeft = S;
kernRight = S;
layers = (
{
anchors = (
{
name = bottom;
pos = (588,0);
},
{
name = swash;
pos = (130,70);
},
{
name = top;
pos = (588,1486);
}
);
layerId = UUID0;
shapes = (
{
closed = 1;
nodes = (
(922,-22,o),
(1090,192,o),
(1090,398,cs),
(1090,638,o),
(858,743,o),
(662,834,cs),
(453,931,o),
(308,994,o),
(308,1166,cs),
(308,1328,o),
(408,1408,o),
(612,1408,cs),
(726,1408,o),
(824,1374,o),
(852,1350,c),
(888,1102,l),
(988,1102,l),
(1000,1430,l),
(942,1440,o),
(800,1502,o),
(622,1502,cs),
(336,1502,o),
(150,1350,o),
(150,1126,cs),
(150,868,o),
(391,757,o),
(558,688,cs),
(760,605,o),
(916,530,o),
(916,354,cs),
(916,184,o),
(822,76,o),
(582,76,cs),
(444,76,o),
(326,120,o),
(280,164,c),
(250,426,l),
(146,426,l),
(130,70,l),
(192,64,o),
(346,-22,o),
(572,-22,cs)
);
}
);
width = 1176;
},
{
anchors = (
{
name = bottom;
pos = (609,0);
},
{
name = swash;
pos = (108,66);
},
{
name = top;
pos = (629,1486);
}
);
layerId = "DEBB1CE4-A72D-4960-969E-E04A036D2FA1";
shapes = (
{
closed = 1;
nodes = (
(1031,-22,o),
(1171,222,o),
(1171,428,cs),
(1171,672,o),
(956,789,o),
(796,865,cs),
(607,959,o),
(440,1032,o),
(440,1192,cs),
(440,1287,o),
(503,1371,o),
(659,1371,cs),
(748,1371,o),
(817,1344,o),
(833,1323,c),
(878,1078,l),
(1060,1078,l),
(1072,1434,l),
(1012,1439,o),
(892,1505,o),
(661,1505,cs),
(295,1505,o),
(116,1310,o),
(116,1096,cs),
(116,819,o),
(340,691,o),
(493,620,cs),
(698,525,o),
(829,456,o),
(829,320,cs),
(829,197,o),
(752,115,o),
(585,115,cs),
(468,115,o),
(388,153,o),
(361,185,c),
(312,439,l),
(125,439,l),
(108,66,l),
(179,61,o),
(339,-22,o),
(585,-22,cs)
);
}
);
width = 1217;
},
{
anchors = (
{
name = bottom;
pos = (600,0);
},
{
name = swash;
pos = (50,66);
},
{
name = top;
pos = (600,1486);
}
);
layerId = "184155C8-9F61-4F1C-9784-DDA8EA717636";
shapes = (
{
closed = 1;
nodes = (
(1007,-22,o),
(1155,191,o),
(1156,417,cs),
(1157,651,o),
(921,793,o),
(751,887,cs),
(580,982,o),
(391,1055,o),
(391,1236,cs),
(391,1351,o),
(454,1449,o),
(621,1451,cs),
(724,1452,o),
(793,1410,o),
(809,1380,c),
(854,1078,l),
(1036,1078,l),
(1080,1434,l),
(1022,1439,o),
(851,1510,o),
(620,1510,cs),
(247,1510,o),
(69,1302,o),
(69,1093,cs),
(69,811,o),
(293,699,o),
(456,608,cs),
(654,497,o),
(834,399,o),
(834,244,cs),
(834,139,o),
(767,33,o),
(544,35,cs),
(433,36,o),
(359,89,o),
(332,133,c),
(283,439,l),
(95,439,l),
(50,66,l),
(116,61,o),
(327,-22,o),
(561,-22,cs)
);
}
);
width = 1199;
},
{
anchors = (
{
name = bottom;
pos = (531,0);
},
{
name = swash;
pos = (77,66);
},
{
name = top;
pos = (531,1486);
}
);
layerId = "EA2265BD-E890-48C4-9E90-A53076E780C5";
shapes = (
{
closed = 1;
nodes = (
(916,-22,o),
(1046,232,o),
(1046,428,cs),
(1046,672,o),
(850,793,o),
(703,869,cs),
(527,960,o),
(366,1032,o),
(366,1185,cs),
(366,1287,o),
(444,1371,o),
(587,1371,cs),
(670,1371,o),
(738,1344,o),
(753,1323,c),
(794,1078,l),
(962,1078,l),
(973,1434,l),
(920,1439,o),
(792,1505,o),
(574,1505,cs),
(246,1505,o),
(77,1310,o),
(77,1096,cs),
(77,819,o),
(297,687,o),
(438,616,cs),
(627,521,o),
(749,456,o),
(749,320,cs),
(749,197,o),
(661,115,o),
(517,115,cs),
(409,115,o),
(336,153,o),
(311,185,c),
(265,439,l),
(93,439,l),
(77,66,l),
(138,61,o),
(288,-22,o),
(515,-22,cs)
);
}
);
width = 1061;
},
{
anchors = (
{
name = bottom;
pos = (533,0);
},
{
name = swash;
pos = (101,77);
},
{
name = top;
pos = (533,1486);
}
);
layerId = "0E4B6E2E-ECAB-4D06-9686-B0B40AA31834";
shapes = (
{
closed = 1;
nodes = (
(868,-14,o),
(1020,197,o),
(1020,401,cs),
(1020,639,o),
(791,730,o),
(611,819,cs),
(441,903,o),
(262,983,o),
(262,1153,cs),
(262,1313,o),
(378,1409,o),
(569,1409,cs),
(674,1409,o),
(774,1368,o),
(800,1344,c),
(833,1098,l),
(926,1098,l),
(937,1423,l),
(883,1433,o),
(742,1502,o),
(578,1502,cs),
(284,1502,o),
(123,1344,o),
(123,1122,cs),
(123,867,o),
(380,768,o),
(532,699,cs),
(695,625,o),
(873,535,o),
(873,361,cs),
(873,193,o),
(748,83,o),
(538,83,cs),
(411,83,o),
(282,126,o),
(240,170,c),
(212,429,l),
(116,429,l),
(101,77,l),
(158,71,o),
(320,-14,o),
(529,-14,cs)
);
}
);
width = 1066;
},
{
anchors = (
{
name = bottom;
pos = (523,0);
},
{
name = swash;
pos = (51,66);
},
{
name = top;
pos = (523,1486);
}
);
layerId = "F2B10EEF-9DDC-48CA-970D-6B8C79870881";
shapes = (
{
closed = 1;
nodes = (
(897,-21,o),
(1008,217,o),
(1008,423,cs),
(1008,653,o),
(817,781,o),
(652,880,cs),
(448,1003,o),
(349,1052,o),
(349,1234,cs),
(349,1406,o),
(443,1457,o),
(560,1457,cs),
(646,1457,o),
(686,1410,o),
(701,1380,c),
(756,1078,l),
(921,1078,l),
(946,1434,l),
(844,1434,o),
(739,1510,o),
(559,1510,cs),
(215,1510,o),
(56,1327,o),
(56,1105,cs),
(56,828,o),
(247,702,o),
(379,622,cs),
(620,477,o),
(713,414,o),
(713,271,cs),
(713,146,o),
(653,36,o),
(490,36,cs),
(401,36,o),
(333,87,o),
(309,131,c),
(257,439,l),
(76,439,l),
(51,66,l),
(187,66,o),
(296,-21,o),
(490,-21,cs)
);
}
);
width = 1046;
},
{
anchors = (
{
name = bottom;
pos = (482,0);
},
{
name = swash;
pos = (59,70);
},
{
name = top;
pos = (482,1486);
}
);
layerId = "E96AC896-F5DF-475B-BBD9-C7FEC6A86D0E";
shapes = (
{
closed = 1;
nodes = (
(793,-22,o),
(905,202,o),
(905,378,cs),
(905,619,o),
(714,722,o),
(546,803,cs),
(320,912,o),
(200,1010,o),
(200,1182,cs),
(200,1344,o),
(315,1448,o),
(491,1448,cs),
(602,1448,o),
(669,1400,o),
(697,1376,c),
(748,1146,l),
(829,1146,l),
(841,1430,l),
(801,1430,o),
(703,1502,o),
(505,1502,cs),
(247,1502,o),
(79,1333,o),
(79,1139,cs),
(79,871,o),
(299,749,o),
(443,686,cs),
(656,592,o),
(778,493,o),
(778,346,cs),
(778,176,o),
(689,32,o),
(461,32,cs),
(365,32,o),
(272,76,o),
(212,130,c),
(162,378,l),
(75,378,l),
(59,70,l),
(121,64,o),
(249,-22,o),
(455,-22,cs)
);
}
);
width = 964;
},
{
anchors = (
{
name = bottom;
pos = (508,0);
},
{
name = swash;
pos = (50,70);
},
{
name = top;
pos = (508,1486);
}
);
layerId = "C9B9556E-C2FD-4F62-BB40-44923C452C22";
shapes = (
{
closed = 1;
nodes = (
(834,-22,o),
(968,202,o),
(968,378,cs),
(968,660,o),
(729,747,o),
(532,839,cs),
(322,937,o),
(207,1006,o),
(207,1178,cs),
(207,1340,o),
(338,1448,o),
(538,1448,cs),
(667,1448,o),
(734,1400,o),
(762,1376,c),
(813,1146,l),
(894,1146,l),
(906,1430,l),
(866,1430,o),
(768,1505,o),
(552,1502,cs),
(272,1498,o),
(86,1329,o),
(86,1135,cs),
(86,867,o),
(310,776,o),
(476,704,cs),
(677,617,o),
(841,533,o),
(841,346,cs),
(841,176,o),
(730,32,o),
(497,32,cs),
(356,32,o),
(288,76,o),
(203,130,c),
(153,378,l),
(66,378,l),
(50,70,l),
(112,64,o),
(240,-22,o),
(491,-22,cs)
);
}
);
width = 1016;
}
);
unicode = 83;
}
{
color = 4;
glyphname = T;
kernLeft = T;
kernRight = T;
layers = (
{
anchors = (
{
name = bottom;
pos = (681,0);
},
{
name = center;
pos = (681,743);
},
{
name = top;
pos = (681,1486);
}
);
layerId = UUID0;
shapes = (
{
closed = 1;
nodes = (
(324,86,l),
(324,0,l),
(1044,0,l),
(1044,86,l),
(767,104,l),
(767,1396,l),
(1144,1384,l),
(1208,978,l),
(1318,978,l),
(1284,1486,l),
(81,1486,l),
(44,978,l),
(154,978,l),
(221,1384,l),
(595,1396,l),
(595,104,l)
);
}
);
width = 1362;
},
{
anchors = (
{
name = bottom;
pos = (730,0);
},
{
name = center;
pos = (730,743);
},
{
name = top;
pos = (730,1486);
}
);
layerId = "DEBB1CE4-A72D-4960-969E-E04A036D2FA1";
shapes = (
{
closed = 1;
nodes = (
(290,132,l),
(290,0,l),
(1170,0,l),
(1170,132,l),
(903,154,l),
(903,1338,l),
(1152,1328,l),
(1240,882,l),
(1418,882,l),
(1386,1486,l),
(74,1486,l),
(42,882,l),
(220,882,l),
(310,1328,l),
(557,1338,l),
(557,154,l)
);
}
);
width = 1460;
},
{
anchors = (
{
name = bottom;
pos = (713,0);
},
{
name = center;
pos = (713,743);
},
{
name = top;
pos = (713,1486);
}
);
layerId = "184155C8-9F61-4F1C-9784-DDA8EA717636";
shapes = (
{
closed = 1;
nodes = (
(303,38,l),
(303,0,l),
(1123,0,l),
(1123,38,l),
(904,73,l),
(904,1437,l),
(1049,1419,l),
(1229,924,l),
(1391,924,l),
(1359,1486,l),
(67,1486,l),
(35,924,l),
(195,924,l),
(378,1419,l),
(522,1437,l),
(522,73,l)
);
}
);
width = 1426;
},
{
anchors = (
{
name = bottom;
pos = (657,0);
},
{
name = center;
pos = (657,743);
},
{
name = top;
pos = (657,1486);
}
);
layerId = "EA2265BD-E890-48C4-9E90-A53076E780C5";
shapes = (
{
closed = 1;
nodes = (
(258,132,l),
(258,0,l),
(1060,0,l),
(1060,132,l),
(823,154,l),
(823,1338,l),
(1022,1328,l),
(1110,882,l),
(1288,882,l),
(1256,1486,l),
(72,1486,l),
(26,882,l),
(204,882,l),
(308,1328,l),
(495,1338,l),
(495,154,l)
);
}
);
width = 1314;
},
{
anchors = (
{
name = bottom;
pos = (598,0);
},
{
name = center;
pos = (598,743);
},
{
name = top;
pos = (598,1486);
}
);
layerId = "0E4B6E2E-ECAB-4D06-9686-B0B40AA31834";
shapes = (
{
closed = 1;
nodes = (
(240,86,l),
(240,0,l),
(961,0,l),
(961,86,l),
(679,104,l),
(679,1396,l),
(991,1384,l),
(1055,978,l),
(1165,978,l),
(1131,1486,l),
(64,1486,l),
(30,978,l),
(140,978,l),
(204,1384,l),
(516,1396,l),
(516,104,l)
);
}
);
width = 1195;
},
{
anchors = (
{
name = bottom;
pos = (621,0);
},
{
name = center;
pos = (621,743);
},
{
name = top;
pos = (621,1486);
}
);
layerId = "F2B10EEF-9DDC-48CA-970D-6B8C79870881";
shapes = (
{
closed = 1;
nodes = (
(228,38,l),
(228,0,l),
(1014,0,l),
(1014,38,l),
(793,72,l),
(793,1437,l),
(916,1419,l),
(1060,921,l),
(1222,921,l),
(1190,1486,l),
(52,1486,l),
(20,921,l),
(180,921,l),
(327,1419,l),
(449,1437,l),
(449,72,l)
);
}
);
width = 1242;
},
{
anchors = (
{
name = bottom;
pos = (600,0);
},
{
name = center;
pos = (600,743);
},
{
name = top;
pos = (600,1486);
}
);
layerId = "E96AC896-F5DF-475B-BBD9-C7FEC6A86D0E";
shapes = (
{
closed = 1;
nodes = (
(269,36,l),
(269,0,l),
(930,0,l),
(930,36,l),
(675,68,l),
(675,1433,l),
(956,1417,l),
(1059,1008,l),
(1141,1008,l),
(1099,1486,l),
(100,1486,l),
(58,1008,l),
(141,1008,l),
(243,1417,l),
(524,1433,l),
(524,68,l)
);
}
);
width = 1199;
},
{
anchors = (
{
name = bottom;
pos = (657,0);
},
{
name = center;
pos = (657,743);
},
{
name = top;
pos = (657,1486);
}
);
layerId = "C9B9556E-C2FD-4F62-BB40-44923C452C22";
shapes = (
{
closed = 1;
nodes = (
(309,36,l),
(309,0,l),
(1009,0,l),
(1009,36,l),
(735,68,l),
(735,1433,l),
(1089,1412,l),
(1188,1008,l),
(1266,1008,l),
(1232,1486,l),
(83,1486,l),
(48,1008,l),
(126,1008,l),
(226,1412,l),
(579,1433,l),
(579,68,l)
);
}
);
width = 1314;
}
);
metricRight = "=|";
unicode = 84;
}
{
color = 4;
glyphname = U;
kernLeft = U;
kernRight = U;
layers = (
{
anchors = (
{
name = bottom;
pos = (738,0);
},
{
name = center;
pos = (750,710);
},
{
name = ogonek;
pos = (1328,10);
},
{
name = top;
pos = (738,1486);
},
{
name = topright;
pos = (1456,1486);
}
);
layerId = UUID0;
shapes = (
{
closed = 1;
nodes = (
(1062,-16,o),
(1288,176,o),
(1288,610,cs),
(1288,1378,l),
(1440,1400,l),
(1440,1486,l),
(996,1486,l),
(996,1400,l),
(1162,1376,l),
(1162,602,ls),
(1162,262,o),
(1030,82,o),
(774,82,cs),
(540,82,o),
(372,204,o),
(372,618,cs),
(372,1378,l),
(544,1400,l),
(544,1486,l),
(54,1486,l),
(54,1400,l),
(204,1378,l),
(204,636,ls),
(204,194,o),
(372,-16,o),
(758,-16,cs)
);
}
);
width = 1476;
},
{
anchors = (
{
name = bottom;
pos = (745,0);
},
{
name = center;
pos = (753,710);
},
{
name = ogonek;
pos = (1340,10);
},
{
name = top;
pos = (745,1486);
},
{
name = topright;
pos = (1469,1486);
}
);
layerId = "DEBB1CE4-A72D-4960-969E-E04A036D2FA1";
shapes = (
{
closed = 1;
nodes = (
(1103,-16,o),
(1343,157,o),
(1343,591,cs),
(1343,1319,l),
(1474,1347,l),
(1474,1486,l),
(953,1486,l),
(953,1347,l),
(1127,1318,l),
(1127,572,ls),
(1127,308,o),
(1042,123,o),
(824,123,cs),
(608,123,o),
(511,284,o),
(511,577,cs),
(511,1316,l),
(678,1347,l),
(678,1486,l),
(32,1486,l),
(32,1347,l),
(157,1319,l),
(157,605,ls),
(157,170,o),
(366,-16,o),
(774,-16,cs)
);
}
);
width = 1489;
},
{
anchors = (
{
name = bottom;
pos = (679,0);
},
{
name = center;
pos = (692,710);
},
{
name = ogonek;
pos = (1221,10);
},
{
name = top;
pos = (679,1486);
},
{
name = topright;
pos = (1337,1486);
}
);
layerId = "184155C8-9F61-4F1C-9784-DDA8EA717636";
shapes = (
{
closed = 1;
nodes = (
(983,-16,o),
(1211,123,o),
(1211,554,cs),
(1211,1412,l),
(1342,1450,l),
(1342,1486,l),
(995,1486,l),
(995,1450,l),
(1141,1412,l),
(1141,554,ls),
(1141,205,o),
(978,35,o),
(787,35,cs),
(633,35,o),
(538,145,o),
(538,438,cs),
(538,1412,l),
(682,1450,l),
(682,1486,l),
(20,1486,l),
(20,1450,l),
(153,1412,l),
(153,521,ls),
(153,136,o),
(362,-16,o),
(757,-16,cs)
);
}
);
width = 1357;
},
{
anchors = (
{
name = bottom;
pos = (680,0);
},
{
name = center;
pos = (692,710);
},
{
name = ogonek;
pos = (1223,10);
},
{
name = top;
pos = (680,1486);
},
{
name = topright;
pos = (1339,1486);
}
);
layerId = "EA2265BD-E890-48C4-9E90-A53076E780C5";
shapes = (
{
closed = 1;
nodes = (
(1005,-16,o),
(1226,157,o),
(1226,591,cs),
(1226,1319,l),
(1347,1347,l),
(1347,1486,l),
(867,1486,l),
(867,1347,l),
(1027,1318,l),
(1027,572,ls),
(1027,308,o),
(949,123,o),
(748,123,cs),
(549,123,o),
(469,269,o),
(469,572,cs),
(469,1316,l),
(623,1347,l),
(623,1486,l),
(28,1486,l),
(28,1347,l),
(143,1319,l),
(143,605,ls),
(143,170,o),
(346,-16,o),
(702,-16,cs)
);
}
);
width = 1359;
},
{
anchors = (
{
name = bottom;
pos = (649,0);
},
{
name = center;
pos = (673,710);
},
{
name = ogonek;
pos = (1167,10);
},
{
name = top;
pos = (649,1486);
},
{
name = topright;
pos = (1277,1486);
}
);
layerId = "0E4B6E2E-ECAB-4D06-9686-B0B40AA31834";
shapes = (
{
closed = 1;
nodes = (
(941,-16,o),
(1136,166,o),
(1136,590,cs),
(1136,1378,l),
(1272,1400,l),
(1272,1486,l),
(874,1486,l),
(874,1400,l),
(1023,1376,l),
(1023,582,ls),
(1023,252,o),
(905,82,o),
(676,82,cs),
(466,82,o),
(342,194,o),
(342,598,cs),
(342,1378,l),
(493,1400,l),
(493,1486,l),
(44,1486,l),
(44,1400,l),
(181,1378,l),
(181,616,ls),
(181,184,o),
(323,-16,o),
(668,-16,cs)
);
}
);
width = 1297;
},
{
anchors = (
{
name = bottom;
pos = (629,0);
},
{
name = center;
pos = (633,710);
},
{
name = ogonek;
pos = (1131,10);
},
{
name = top;
pos = (629,1486);
},
{
name = topright;
pos = (1237,1486);
}
);
layerId = "F2B10EEF-9DDC-48CA-970D-6B8C79870881";
shapes = (
{
closed = 1;
nodes = (
(945,-16,o),
(1095,103,o),
(1095,554,cs),
(1095,1412,l),
(1226,1450,l),
(1226,1486,l),
(879,1486,l),
(879,1450,l),
(1025,1412,l),
(1025,554,ls),
(1025,155,o),
(910,35,o),
(723,35,cs),
(579,35,o),
(524,145,o),
(524,386,cs),
(524,1412,l),
(668,1450,l),
(668,1486,l),
(10,1486,l),
(10,1450,l),
(143,1412,l),
(143,511,ls),
(143,136,o),
(328,-16,o),
(683,-16,cs)
);
}
);
width = 1257;
},
{
anchors = (
{
name = bottom;
pos = (598,0);
},
{
name = center;
pos = (647,710);
},
{
name = ogonek;
pos = (1076,10);
},
{
name = top;
pos = (598,1486);
},
{
name = topright;
pos = (1176,1486);
}
);
layerId = "E96AC896-F5DF-475B-BBD9-C7FEC6A86D0E";
shapes = (
{
closed = 1;
nodes = (
(935,-20,o),
(1073,175,o),
(1078,570,cs),
(1088,1421,l),
(1211,1450,l),
(1211,1486,l),
(850,1486,l),
(850,1450,l),
(1001,1419,l),
(1006,562,ls),
(1008,218,o),
(873,32,o),
(654,32,cs),
(472,32,o),
(331,124,o),
(331,547,cs),
(331,1421,l),
(503,1450,l),
(503,1486,l),
(20,1486,l),
(20,1450,l),
(170,1421,l),
(170,556,ls),
(170,133,o),
(348,-20,o),
(662,-20,cs)
);
}
);
width = 1196;
},
{
anchors = (
{
name = bottom;
pos = (671,0);
},
{
name = center;
pos = (685,710);
},
{
name = ogonek;
pos = (1207,10);
},
{
name = top;
pos = (671,1486);
},
{
name = topright;
pos = (1321,1486);
}
);
layerId = "C9B9556E-C2FD-4F62-BB40-44923C452C22";
shapes = (
{
closed = 1;
nodes = (
(1019,-20,o),
(1173,175,o),
(1178,610,cs),
(1188,1421,l),
(1321,1450,l),
(1321,1486,l),
(950,1486,l),
(950,1450,l),
(1101,1419,l),
(1106,602,ls),
(1108,218,o),
(957,32,o),
(718,32,cs),
(484,32,o),
(333,125,o),
(333,568,cs),
(333,1421,l),
(505,1450,l),
(505,1486,l),
(22,1486,l),
(22,1450,l),
(172,1421,l),
(172,577,ls),
(172,134,o),
(360,-20,o),
(726,-20,cs)
);
}
);
width = 1341;
}
);
unicode = 85;
}
{
color = 4;
glyphname = V;
kernLeft = V;
kernRight = V;
layers = (
{
anchors = (
{
name = bottom;
pos = (651,0);
},
{
name = top;
pos = (651,1486);
}
);
layerId = UUID0;
shapes = (
{
closed = 1;
nodes = (
(85,1378,l),
(583,-16,l),
(713,-16,l),
(1217,1378,l),
(1345,1400,l),
(1345,1486,l),
(923,1486,l),
(923,1400,l),
(1083,1378,l),
(757,418,l),
(670,142,l),
(592,414,l),
(263,1378,l),
(447,1400,l),
(447,1486,l),
(-39,1486,l),
(-39,1400,l)
);
}
);
width = 1301;
},
{
anchors = (
{
name = bottom;
pos = (697,0);
},
{
name = top;
pos = (697,1486);
}
);
layerId = "DEBB1CE4-A72D-4960-969E-E04A036D2FA1";
shapes = (
{
closed = 1;
nodes = (
(79,1319,l),
(560,-15,l),
(838,-15,l),
(1309,1319,l),
(1438,1347,l),
(1438,1486,l),
(929,1486,l),
(929,1347,l),
(1086,1319,l),
(802,452,l),
(761,275,l),
(713,451,l),
(452,1320,l),
(616,1347,l),
(616,1486,l),
(-39,1486,l),
(-39,1347,l)
);
}
);
width = 1394;
},
{
anchors = (
{
name = bottom;
pos = (651,0);
},
{
name = top;
pos = (651,1486);
}
);
layerId = "184155C8-9F61-4F1C-9784-DDA8EA717636";
shapes = (
{
closed = 1;
nodes = (
(61,1417,l),
(529,0,l),
(775,0,l),
(1253,1417,l),
(1384,1452,l),
(1384,1486,l),
(1009,1486,l),
(1009,1452,l),
(1149,1417,l),
(828,403,l),
(795,291,l),
(764,407,l),
(480,1417,l),
(633,1452,l),
(633,1486,l),
(-42,1486,l),
(-42,1452,l)
);
}
);
width = 1302;
},
{
anchors = (
{
name = bottom;
pos = (614,0);
},
{
name = top;
pos = (614,1486);
}
);
layerId = "EA2265BD-E890-48C4-9E90-A53076E780C5";
shapes = (
{
closed = 1;
nodes = (
(69,1321,l),
(468,-15,l),
(743,-15,l),
(1151,1321,l),
(1262,1348,l),
(1262,1486,l),
(803,1486,l),
(803,1348,l),
(937,1321,l),
(695,451,l),
(668,271,l),
(635,450,l),
(431,1322,l),
(567,1348,l),
(567,1486,l),
(-31,1486,l),
(-31,1348,l)
);
}
);
width = 1227;
},
{
anchors = (
{
name = bottom;
pos = (577,0);
},
{
name = top;
pos = (577,1486);
}
);
layerId = "0E4B6E2E-ECAB-4D06-9686-B0B40AA31834";
shapes = (
{
closed = 1;
nodes = (
(84,1378,l),
(513,-16,l),
(642,-16,l),
(1068,1378,l),
(1178,1401,l),
(1178,1486,l),
(806,1486,l),
(806,1401,l),
(943,1378,l),
(666,417,l),
(604,138,l),
(535,413,l),
(257,1378,l),
(413,1401,l),
(413,1486,l),
(-22,1486,l),
(-22,1401,l)
);
}
);
width = 1153;
},
{
anchors = (
{
name = bottom;
pos = (593,0);
},
{
name = top;
pos = (593,1486);
}
);
layerId = "F2B10EEF-9DDC-48CA-970D-6B8C79870881";
shapes = (
{
closed = 1;
nodes = (
(69,1412,l),
(487,0,l),
(693,0,l),
(1083,1412,l),
(1197,1445,l),
(1197,1486,l),
(877,1486,l),
(877,1445,l),
(1001,1412,l),
(727,431,l),
(706,340,l),
(686,430,l),
(449,1412,l),
(593,1445,l),
(593,1486,l),
(-28,1486,l),
(-28,1445,l)
);
}
);
width = 1185;
},
{
anchors = (
{
name = bottom;
pos = (575,0);
},
{
name = top;
pos = (575,1486);
}
);
layerId = "E96AC896-F5DF-475B-BBD9-C7FEC6A86D0E";
shapes = (
{
closed = 1;
nodes = (
(102,1417,l),
(515,-16,l),
(627,-16,l),
(1052,1417,l),
(1171,1452,l),
(1171,1486,l),
(824,1486,l),
(824,1452,l),
(956,1417,l),
(627,205,l),
(600,77,l),
(573,205,l),
(259,1417,l),
(401,1452,l),
(401,1486,l),
(-8,1486,l),
(-8,1452,l)
);
}
);
width = 1149;
},
{
anchors = (
{
name = bottom;
pos = (642,0);
},
{
name = top;
pos = (642,1486);
}
);
layerId = "C9B9556E-C2FD-4F62-BB40-44923C452C22";
shapes = (
{
closed = 1;
nodes = (
(114,1417,l),
(559,-16,l),
(686,-16,l),
(1169,1417,l),
(1307,1452,l),
(1307,1486,l),
(926,1486,l),
(926,1452,l),
(1068,1417,l),
(685,182,l),
(662,52,l),
(637,182,l),
(283,1417,l),
(427,1452,l),
(427,1486,l),
(-22,1486,l),
(-22,1452,l)
);
}
);
width = 1283;
}
);
unicode = 86;
}
{
color = 4;
glyphname = X;
kernLeft = X;
kernRight = X;
layers = (
{
anchors = (
{
name = bottom;
pos = (712,0);
},
{
name = top;
pos = (712,1486);
}
);
layerId = UUID0;
shapes = (
{
closed = 1;
nodes = (
(14,86,l),
(14,0,l),
(540,0,l),
(540,86,l),
(334,104,l),
(684,684,l),
(1049,104,l),
(852,86,l),
(852,0,l),
(1410,0,l),
(1410,86,l),
(1247,104,l),
(796,772,l),
(1214,1376,l),
(1372,1400,l),
(1372,1486,l),
(894,1486,l),
(894,1400,l),
(1074,1378,l),
(742,838,l),
(406,1376,l),
(610,1400,l),
(610,1486,l),
(50,1486,l),
(50,1400,l),
(207,1376,l),
(626,752,l),
(188,104,l)
);
}
);
width = 1424;
},
{
anchors = (
{
name = bottom;
pos = (730,0);
},
{
name = top;
pos = (730,1486);
}
);
layerId = "DEBB1CE4-A72D-4960-969E-E04A036D2FA1";
shapes = (
{
closed = 1;
nodes = (
(11,132,l),
(11,0,l),
(564,0,l),
(564,132,l),
(378,153,l),
(643,610,l),
(918,154,l),
(762,132,l),
(762,0,l),
(1448,0,l),
(1448,132,l),
(1316,154,l),
(886,797,l),
(1264,1318,l),
(1427,1347,l),
(1427,1486,l),
(900,1486,l),
(900,1347,l),
(1068,1319,l),
(806,897,l),
(555,1317,l),
(712,1347,l),
(712,1486,l),
(23,1486,l),
(23,1347,l),
(155,1318,l),
(558,715,l),
(176,153,l)
);
}
);
width = 1459;
},
{
anchors = (
{
name = bottom;
pos = (740,0);
},
{
name = top;
pos = (740,1486);
}
);
layerId = "184155C8-9F61-4F1C-9784-DDA8EA717636";
shapes = (
{
closed = 1;
nodes = (
(21,38,l),
(21,0,l),
(574,0,l),
(574,38,l),
(363,71,l),
(631,584,l),
(898,72,l),
(742,38,l),
(742,0,l),
(1458,0,l),
(1458,38,l),
(1326,72,l),
(894,846,l),
(1244,1412,l),
(1437,1450,l),
(1437,1486,l),
(910,1486,l),
(910,1450,l),
(1122,1413,l),
(858,905,l),
(595,1411,l),
(752,1450,l),
(752,1486,l),
(33,1486,l),
(33,1450,l),
(165,1412,l),
(595,649,l),
(240,71,l)
);
}
);
width = 1479;
},
{
anchors = (
{
name = bottom;
pos = (627,0);
},
{
name = top;
pos = (627,1486);
}
);
layerId = "EA2265BD-E890-48C4-9E90-A53076E780C5";
shapes = (
{
closed = 1;
nodes = (
(11,132,l),
(11,0,l),
(460,0,l),
(460,132,l),
(328,153,l),
(522,610,l),
(738,154,l),
(615,132,l),
(615,0,l),
(1243,0,l),
(1243,132,l),
(1131,154,l),
(780,797,l),
(1093,1318,l),
(1226,1347,l),
(1226,1486,l),
(793,1486,l),
(793,1347,l),
(914,1319,l),
(707,897,l),
(525,1317,l),
(630,1347,l),
(630,1486,l),
(24,1486,l),
(24,1347,l),
(131,1318,l),
(445,715,l),
(143,153,l)
);
}
);
width = 1254;
},
{
anchors = (
{
name = bottom;
pos = (627,0);
},
{
name = top;
pos = (627,1486);
}
);
layerId = "0E4B6E2E-ECAB-4D06-9686-B0B40AA31834";
shapes = (
{
closed = 1;
nodes = (
(14,86,l),
(14,0,l),
(470,0,l),
(470,86,l),
(284,104,l),
(598,688,l),
(928,104,l),
(752,86,l),
(752,0,l),
(1240,0,l),
(1240,86,l),
(1110,104,l),
(711,772,l),
(1094,1378,l),
(1212,1400,l),
(1212,1486,l),
(804,1486,l),
(804,1400,l),
(964,1378,l),
(662,838,l),
(356,1378,l),
(540,1400,l),
(540,1486,l),
(50,1486,l),
(50,1400,l),
(174,1378,l),
(546,752,l),
(148,104,l)
);
}
);
width = 1254;
},
{
anchors = (
{
name = bottom;
pos = (652,0);
},
{
name = top;
pos = (652,1486);
}
);
layerId = "F2B10EEF-9DDC-48CA-970D-6B8C79870881";
shapes = (
{
closed = 1;
nodes = (
(11,38,l),
(11,0,l),
(482,0,l),
(482,38,l),
(299,71,l),
(538,584,l),
(774,72,l),
(641,38,l),
(641,0,l),
(1293,0,l),
(1293,38,l),
(1181,72,l),
(807,841,l),
(1109,1412,l),
(1275,1450,l),
(1275,1486,l),
(827,1486,l),
(827,1450,l),
(1019,1413,l),
(775,908,l),
(542,1411,l),
(676,1450,l),
(676,1486,l),
(25,1486,l),
(25,1450,l),
(137,1412,l),
(506,655,l),
(206,71,l)
);
}
);
width = 1304;
},
{
anchors = (
{
name = bottom;
pos = (607,0);
},
{
name = top;
pos = (607,1486);
}
);
layerId = "E96AC896-F5DF-475B-BBD9-C7FEC6A86D0E";
shapes = (
{
closed = 1;
nodes = (
(36,36,l),
(38,0,l),
(450,0,l),
(448,36,l),
(286,65,l),
(575,658,l),
(860,62,l),
(698,36,l),
(700,0,l),
(1185,0,l),
(1183,36,l),
(1042,65,l),
(658,773,l),
(1026,1424,l),
(1167,1450,l),
(1167,1486,l),
(753,1486,l),
(753,1450,l),
(915,1421,l),
(620,839,l),
(339,1424,l),
(499,1450,l),
(499,1486,l),
(28,1486,l),
(28,1450,l),
(166,1421,l),
(536,730,l),
(170,62,l)
);
}
);
width = 1213;
},
{
anchors = (
{
name = bottom;
pos = (643,0);
},
{
name = top;
pos = (643,1486);
}
);
layerId = "C9B9556E-C2FD-4F62-BB40-44923C452C22";
shapes = (
{
closed = 1;
nodes = (
(32,36,l),
(34,0,l),
(446,0,l),
(444,36,l),
(282,65,l),
(611,658,l),
(936,62,l),
(774,36,l),
(776,0,l),
(1261,0,l),
(1259,36,l),
(1118,65,l),
(694,773,l),
(1102,1424,l),
(1243,1450,l),
(1243,1486,l),
(829,1486,l),
(829,1450,l),
(991,1421,l),
(656,839,l),
(335,1424,l),
(495,1450,l),
(495,1486,l),
(24,1486,l),
(24,1450,l),
(162,1421,l),
(572,730,l),
(166,62,l)
);
}
);
width = 1285;
}
);
metricRight = "=|";
unicode = 88;
}
